<svg width="525" height="527" viewBox="0 0 525 527" fill="none" xmlns="http://www.w3.org/2000/svg">
<path d="M454.952 319.973L438.515 336.41C437.929 336.996 436.979 336.996 436.393 336.41L404.844 304.861C401.524 301.541 396.142 301.541 392.823 304.861L381.423 316.26C378.104 319.58 378.104 324.962 381.423 328.281L412.973 359.831C413.559 360.417 413.559 361.367 412.973 361.952L396.536 378.39C395.95 378.975 395 378.975 394.414 378.39L362.865 346.84C359.545 343.52 354.163 343.52 350.844 346.84L324.806 372.877C322.391 375.292 321.694 378.871 322.871 381.991C325.737 389.585 328.167 397.989 328.167 406.229C328.167 436.2 302.867 461.5 272.896 461.5C242.925 461.5 217.625 436.2 217.625 406.229C217.625 376.258 242.925 350.958 272.896 350.958C281.328 350.958 289.494 352.182 296.502 355.499C299.731 357.028 303.873 356.693 306.677 353.889L397.773 262.794C398.358 262.208 399.308 262.208 399.894 262.794L454.952 317.852C455.538 318.438 455.538 319.387 454.952 319.973ZM244.208 406.229C244.208 421.595 257.53 434.917 272.896 434.917C288.262 434.917 301.583 421.595 301.583 406.229C301.583 390.863 288.262 377.542 272.896 377.542C257.53 377.542 244.208 390.863 244.208 406.229Z" fill="white" stroke="black" stroke-width="7"/>
<path d="M214.125 260C146.705 260 93.0833 313.621 93.0833 381.042V426.417C93.0833 431.111 96.8889 434.917 101.583 434.917H192.333C193.162 434.917 193.833 435.588 193.833 436.417V460C193.833 460.828 193.162 461.5 192.333 461.5H68C67.1716 461.5 66.5 460.828 66.5 460V381.042C66.5 323.374 99.0723 274.595 147.399 250.173C153.127 247.278 153.908 239.411 149.236 235.282C128.889 217.298 116.875 190.7 116.875 162.75C116.875 109.27 160.646 65.5 214.125 65.5C267.605 65.5 311.375 109.27 311.375 162.75C311.375 190.652 299.4 217.237 280.31 235.239C275.8 239.492 276.803 247.207 282.433 250.033C297.301 257.495 310.32 267.936 322.311 280.628C322.826 281.173 322.818 282.098 322.166 282.662L304.47 297.999C303.884 298.507 302.904 298.518 302.243 297.858C278.51 274.168 247.157 260 214.125 260ZM214.125 92.0833C175.25 92.0833 143.458 123.875 143.458 162.75C143.458 201.625 175.25 233.417 214.125 233.417C253 233.417 284.792 201.625 284.792 162.75C284.792 123.875 253 92.0833 214.125 92.0833Z" fill="white" stroke="black" stroke-width="7"/>
<path d="M4 61.0977L4 4.90245H57.4315" stroke="black" stroke-width="6.44863" stroke-linecap="round"/>
<path d="M457.43 4H518.43V62" stroke="black" stroke-width="7" stroke-linecap="round"/>
<path d="M4 465.902L4 522.098H57.4315" stroke="black" stroke-width="6.44863" stroke-linecap="round"/>
<path d="M460.43 523H521.43V465" stroke="black" stroke-width="7" stroke-linecap="round"/>
</svg>
