<svg width="273" height="78" viewBox="0 0 273 78" fill="none" xmlns="http://www.w3.org/2000/svg">
<path d="M271.189 68.7914C271.189 69.7731 270.988 70.7452 270.599 71.652C270.209 72.5589 269.637 73.3828 268.917 74.0766C268.196 74.7704 267.341 75.3205 266.4 75.6955C265.459 76.0705 264.45 76.263 263.432 76.2619H9.56829C7.51072 76.264 5.53653 75.4782 4.0799 74.0772C2.62327 72.6763 1.80346 70.7749 1.80078 68.7914V9.21615C1.80346 7.23169 2.62294 5.32936 4.07928 3.92687C5.53563 2.52437 7.50979 1.73635 9.56829 1.73584H263.43C264.449 1.73584 265.458 1.92934 266.399 2.30528C267.34 2.68123 268.195 3.23225 268.916 3.92689C269.636 4.62153 270.207 5.44616 270.597 6.3537C270.987 7.26125 271.187 8.23391 271.187 9.21615L271.189 68.7914Z" fill="white"/>
<path d="M263.432 78H9.56826C7.03357 77.9995 4.6026 77.0296 2.80879 75.3033C1.01497 73.5769 0.00482283 71.235 0 68.7915L0 9.21824C0.00374971 6.7735 1.01323 4.43002 2.80699 2.70188C4.60075 0.973744 7.03231 0.00206345 9.56826 0L263.43 0C265.965 0.00309306 268.396 0.975104 270.19 2.70302C271.983 4.43094 272.993 6.77382 272.998 9.21824V68.7915C273.002 73.8707 268.702 78 263.432 78Z" fill="black"/>
<path d="M271.189 68.7914C271.189 69.7731 270.988 70.7452 270.599 71.652C270.209 72.5589 269.637 73.3828 268.917 74.0766C268.196 74.7704 267.341 75.3205 266.4 75.6955C265.459 76.0705 264.45 76.263 263.432 76.2619H9.56829C7.51072 76.264 5.53653 75.4782 4.0799 74.0772C2.62327 72.6763 1.80346 70.7749 1.80078 68.7914V9.21615C1.80346 7.23169 2.62294 5.32936 4.07928 3.92687C5.53563 2.52437 7.50979 1.73635 9.56829 1.73584H263.43C264.449 1.73584 265.458 1.92934 266.399 2.30528C267.34 2.68123 268.195 3.23225 268.916 3.92689C269.636 4.62153 270.207 5.44616 270.597 6.3537C270.987 7.26125 271.187 8.23391 271.187 9.21615L271.189 68.7914Z" fill="black"/>
<path d="M60.9586 38.5894C60.8999 32.3028 66.2981 29.2444 66.5449 29.102C63.4877 24.805 58.7491 24.2178 57.0839 24.171C53.1041 23.7673 49.2436 26.4668 47.2162 26.4668C45.1484 26.4668 42.0264 24.21 38.6616 24.2764C34.3317 24.3407 30.2811 26.7574 28.0595 30.5103C23.4746 38.1622 26.894 49.4071 31.2866 55.5922C33.484 58.6234 36.0516 62.0036 39.4123 61.8847C42.7002 61.7559 43.9283 59.8658 47.896 59.8658C51.8273 59.8658 52.9806 61.8847 56.4081 61.8086C59.9368 61.7559 62.1584 58.7658 64.2788 55.7093C66.8181 52.2393 67.8378 48.818 67.8783 48.6425C67.7974 48.6152 61.0274 46.1224 60.9586 38.5894ZM54.484 20.1022C56.2523 17.9703 57.4623 15.0698 57.1264 12.1265C54.5669 12.2357 51.366 13.8332 49.5228 15.9183C47.892 17.7557 46.4352 20.7673 46.8115 23.5995C49.6867 23.8063 52.6387 22.201 54.484 20.1022Z" fill="white"/>
<path d="M263.432 0H127.455L180.714 78H263.432C265.967 77.9979 268.398 77.0268 270.192 75.2995C271.985 73.5722 272.995 71.2297 273 68.7857V9.21824C272.996 6.77366 271.986 4.43048 270.192 2.70245C268.399 0.974424 265.967 0.00257845 263.432 0Z" fill="url(#paint0_linear_815_13747)"/>
<path d="M108.582 61.4494H103.987L101.47 53.8248H92.7208L90.3232 61.4494H85.8496L94.5195 35.4917H99.8732L108.582 61.4494ZM100.711 50.6259L98.4346 43.8478C98.1939 43.1553 97.7406 41.5247 97.077 38.9578H96.9961C96.729 40.0618 96.3021 41.6924 95.7173 43.8478L93.4795 50.6259H100.711ZM130.834 51.8606C130.834 55.0439 129.938 57.56 128.143 59.4072C126.536 61.0515 124.539 61.8727 122.158 61.8727C119.586 61.8727 117.737 60.9891 116.614 59.218V69.039H112.3V48.8841C112.3 46.8848 112.246 44.8347 112.141 42.7321H115.934L116.175 45.6988H116.256C117.695 43.4635 119.878 42.3459 122.807 42.3459C125.098 42.3459 127.01 43.2178 128.54 44.9635C130.067 46.7131 130.834 49.0108 130.834 51.8606ZM126.439 52.0127C126.439 50.1909 126.014 48.689 125.161 47.505C124.228 46.2742 122.975 45.6579 121.405 45.6579C120.341 45.6579 119.374 46.0012 118.51 46.678C117.644 47.3607 117.077 48.2521 116.812 49.3561C116.694 49.769 116.627 50.1939 116.612 50.622V53.7448C116.612 55.1043 117.045 56.2532 117.911 57.1933C118.777 58.1296 119.902 58.5997 121.286 58.5997C122.911 58.5997 124.175 57.9931 125.08 56.7896C125.986 55.5822 126.439 53.9906 126.439 52.0127ZM153.165 51.8606C153.165 55.0439 152.269 57.56 150.474 59.4072C148.866 61.0515 146.871 61.8727 144.487 61.8727C141.916 61.8727 140.066 60.9891 138.943 59.218V69.039H134.63V48.8841C134.63 46.8848 134.575 44.8347 134.47 42.7321H138.264L138.504 45.6988H138.585C140.022 43.4635 142.205 42.3459 145.137 42.3459C147.425 42.3459 149.337 43.2178 150.871 44.9635C152.396 46.7131 153.165 49.0108 153.165 51.8606ZM148.769 52.0127C148.769 50.1909 148.342 48.689 147.488 47.505C146.555 46.2742 145.307 45.6579 143.737 45.6579C142.672 45.6579 141.705 46.0012 140.837 46.678C139.971 47.3607 139.407 48.2521 139.142 49.3561C139.01 49.871 138.939 50.2904 138.939 50.622V53.7448C138.939 55.1043 139.374 56.2532 140.236 57.1933C141.102 58.1277 142.227 58.5997 143.615 58.5997C145.242 58.5997 146.507 57.9931 147.409 56.7896C148.315 55.5822 148.769 53.9906 148.769 52.0127ZM178.133 54.1681C178.133 56.378 177.332 58.1745 175.739 59.5613C173.987 61.0749 171.541 61.8337 168.405 61.8337C165.508 61.8337 163.185 61.2953 161.433 60.2167L162.43 56.7506C164.322 57.8312 166.4 58.3695 168.662 58.3695C170.289 58.3695 171.553 58.0145 172.456 57.3104C173.36 56.6043 173.817 55.6602 173.817 54.4821C173.817 53.4269 173.439 52.5433 172.696 51.8235C171.95 51.1057 170.716 50.4367 168.982 49.8223C164.267 48.1272 161.908 45.6481 161.908 42.3868C161.908 40.2568 162.742 38.5131 164.405 37.1496C166.068 35.7882 168.273 35.1074 171.017 35.1074C173.467 35.1074 175.509 35.519 177.129 36.3402L176.047 39.7302C174.521 38.9344 172.8 38.5365 170.873 38.5365C169.352 38.5365 168.158 38.8973 167.304 39.6151C166.586 40.2568 166.222 41.039 166.222 41.9675C166.222 42.9915 166.637 43.8419 167.462 44.509C168.178 45.1234 169.485 45.7925 171.375 46.5103C173.694 47.4114 175.398 48.4608 176.488 49.6662C177.587 50.8717 178.133 52.3755 178.133 54.1681ZM192.432 45.8529H187.677V54.9405C187.677 57.2519 188.515 58.4046 190.194 58.4046C190.965 58.4046 191.604 58.3422 192.11 58.2115L192.23 61.3694C191.38 61.6757 190.261 61.8298 188.875 61.8298C187.171 61.8298 185.84 61.3285 184.879 60.3259C183.922 59.3233 183.44 57.6439 183.44 55.2799V45.8451H180.608V42.7243H183.44V39.2972L187.677 38.0644V42.7243H192.432V45.8529ZM213.843 51.9366C213.843 54.8137 212.989 57.1758 211.285 59.0229C209.503 60.9247 207.131 61.8727 204.175 61.8727C201.322 61.8727 199.054 60.9618 197.363 59.1419C195.671 57.3182 194.825 55.0204 194.825 52.2487C194.825 49.3483 195.699 46.9725 197.442 45.1254C199.188 43.2763 201.539 42.3517 204.495 42.3517C207.344 42.3517 209.632 43.2646 211.364 45.0864C213.019 46.8535 213.843 49.1357 213.843 51.9366ZM209.371 52.0322C209.371 50.3177 208.987 48.847 208.216 47.6162C207.311 46.1299 206.016 45.3867 204.339 45.3867C202.611 45.3867 201.286 46.1299 200.383 47.6162C199.611 48.847 199.226 50.3431 199.226 52.1102C199.226 53.8267 199.611 55.3013 200.383 56.5282C201.316 58.0145 202.617 58.7577 204.303 58.7577C205.952 58.7577 207.245 57.9989 208.179 56.4911C208.972 55.2311 209.371 53.7506 209.371 52.0322ZM227.87 46.3893C227.422 46.3112 226.966 46.2727 226.511 46.2742C224.993 46.2742 223.82 46.8243 222.994 47.9322C222.278 48.9075 221.918 50.1402 221.918 51.6285V61.4494H217.604V48.6266C217.608 46.6617 217.566 44.6971 217.478 42.734H221.236L221.394 46.3152H221.513C221.97 45.0844 222.686 44.0916 223.67 43.3484C224.57 42.6991 225.664 42.3474 226.788 42.3459C227.186 42.3459 227.546 42.3732 227.866 42.4219L227.87 46.3893ZM247.163 51.2052C247.173 51.8374 247.121 52.4691 247.005 53.0914H234.064C234.112 54.9405 234.739 56.3566 235.941 57.3318C237.032 58.2018 238.442 58.6387 240.174 58.6387C242.09 58.6387 243.838 58.3461 245.41 57.7551L246.086 60.6399C244.249 61.4124 242.08 61.7966 239.577 61.7966C236.566 61.7966 234.203 60.9423 232.483 59.2375C230.768 57.5308 229.908 55.237 229.908 52.3638C229.908 49.5433 230.707 47.1929 232.307 45.3185C233.983 43.3172 236.247 42.3166 239.096 42.3166C241.894 42.3166 244.012 43.3172 245.451 45.3185C246.59 46.9043 247.163 48.8704 247.163 51.2052ZM243.049 50.1265C243.079 48.8919 242.796 47.8288 242.211 46.9296C241.465 45.771 240.316 45.1936 238.776 45.1936C237.366 45.1936 236.216 45.7573 235.342 46.8887C234.624 47.7879 234.197 48.8685 234.066 50.1227L243.049 50.1265Z" fill="white"/>
<path d="M91.4762 26.3151C90.2764 26.3151 89.2385 26.2585 88.3745 26.1629V13.6132C89.5829 13.4332 90.8039 13.3445 92.0266 13.3479C96.9736 13.3479 99.2519 15.6944 99.2519 19.5194C99.2519 23.9315 96.5608 26.3151 91.4762 26.3151ZM92.2006 14.9571C91.5329 14.9571 90.9644 14.9961 90.4929 15.0897V24.6298C90.7479 24.6688 91.2375 24.6864 91.9254 24.6864C95.1668 24.6864 97.012 22.9075 97.012 19.5759C97.012 16.6053 95.3428 14.9571 92.2006 14.9571ZM106.352 26.4106C103.564 26.4106 101.757 24.4035 101.757 21.6786C101.757 18.8386 103.602 16.814 106.509 16.814C109.257 16.814 111.104 18.7255 111.104 21.5284C111.104 24.4035 109.201 26.4106 106.352 26.4106ZM106.433 18.3081C104.901 18.3081 103.92 19.6891 103.92 21.6201C103.92 23.5141 104.921 24.8951 106.412 24.8951C107.904 24.8951 108.905 23.4185 108.905 21.5811C108.905 19.7086 107.924 18.3081 106.433 18.3081ZM127.004 17.0032L124.019 26.2019H122.075L120.839 22.2072C120.531 21.2301 120.275 20.2386 120.072 19.2366H120.031C119.876 20.2391 119.58 21.2437 119.266 22.2072L117.951 26.2019H115.987L113.178 17.0032H115.357L116.438 21.3763C116.693 22.4179 116.907 23.4009 117.085 24.3294H117.126C117.282 23.555 117.537 22.5876 117.911 21.3958L119.266 17.0051H120.994L122.291 21.3022C122.605 22.3438 122.86 23.3658 123.058 24.3314H123.115C123.252 23.3853 123.469 22.3808 123.762 21.3022L124.922 17.0051L127.004 17.0032ZM137.99 26.2019H135.87V20.9199C135.87 19.2931 135.222 18.4778 133.946 18.4778C132.689 18.4778 131.825 19.5194 131.825 20.7307V26.2019H129.705V19.6325C129.705 18.8191 129.685 17.9472 129.626 17.0012H131.491L131.591 18.4212H131.649C132.22 17.4382 133.377 16.814 134.674 16.814C136.677 16.814 137.992 18.2905 137.992 20.6936L137.99 26.2019ZM143.838 26.2019H141.715V12.7822H143.838V26.2019ZM151.569 26.4106C148.783 26.4106 146.974 24.4035 146.974 21.6786C146.974 18.8386 148.819 16.814 151.725 16.814C154.474 16.814 156.319 18.7255 156.319 21.5284C156.322 24.4035 154.416 26.4106 151.569 26.4106ZM151.648 18.3081C150.116 18.3081 149.135 19.6891 149.135 21.6201C149.135 23.5141 150.138 24.8951 151.625 24.8951C153.119 24.8951 154.118 23.4185 154.118 21.5811C154.12 19.7086 153.141 18.3081 151.648 18.3081ZM164.68 26.2019L164.526 25.1428H164.469C163.822 25.9952 162.877 26.4106 161.679 26.4106C159.97 26.4106 158.756 25.2559 158.756 23.7033C158.756 21.4329 160.797 20.2586 164.332 20.2586V20.0889C164.332 18.8777 163.666 18.271 162.351 18.271C161.41 18.271 160.585 18.4992 159.858 18.9537L159.427 17.6098C160.309 17.0793 161.41 16.814 162.703 16.814C165.196 16.814 166.454 18.0818 166.454 20.6195V24.0076C166.454 24.936 166.497 25.6558 166.592 26.2039L164.68 26.2019ZM164.388 21.6201C162.033 21.6201 160.852 22.1702 160.852 23.4751C160.852 24.4406 161.461 24.9126 162.306 24.9126C163.385 24.9126 164.388 24.1187 164.388 23.0401V21.6201ZM176.751 26.2019L176.652 24.7254H176.593C175.984 25.8411 174.96 26.4106 173.53 26.4106C171.229 26.4106 169.526 24.4601 169.526 21.7157C169.526 18.8386 171.292 16.812 173.704 16.812C174.981 16.812 175.885 17.2275 176.395 18.0623H176.437V12.7822H178.56V23.7228C178.56 24.6122 178.582 25.4451 178.639 26.2019H176.751ZM176.437 20.7892C176.437 19.5018 175.553 18.4037 174.204 18.4037C172.631 18.4037 171.67 19.7476 171.67 21.6396C171.67 23.4946 172.668 24.7644 174.161 24.7644C175.494 24.7644 176.437 23.6467 176.437 22.3223V20.7892ZM192.017 26.4106C189.231 26.4106 187.424 24.4035 187.424 21.6786C187.424 18.8386 189.269 16.814 192.175 16.814C194.924 16.814 196.77 18.7255 196.77 21.5284C196.772 24.4035 194.868 26.4106 192.017 26.4106ZM192.096 18.3081C190.566 18.3081 189.585 19.6891 189.585 21.6201C189.585 23.5141 190.586 24.8951 192.076 24.8951C193.569 24.8951 194.568 23.4185 194.568 21.5811C194.572 19.7086 193.591 18.3081 192.096 18.3081ZM208.173 26.2019H206.051V20.9199C206.051 19.2931 205.403 18.4778 204.126 18.4778C202.87 18.4778 202.008 19.5194 202.008 20.7307V26.2019H199.886V19.6325C199.886 18.8191 199.865 17.9472 199.807 17.0012H201.672L201.771 18.4212H201.83C202.398 17.4382 203.558 16.812 204.853 16.812C206.856 16.812 208.173 18.2886 208.173 20.6917V26.2019ZM222.439 18.5363H220.107V23.003C220.107 24.1402 220.515 24.7078 221.341 24.7078C221.715 24.7078 222.029 24.6688 222.282 24.6122L222.34 26.1649C221.93 26.317 221.379 26.3931 220.695 26.3931C219.024 26.3931 218.025 25.5036 218.025 23.1747V18.5363H216.633V17.0032H218.025V15.3179L220.107 14.7113V17.0012H222.439V18.5363ZM233.665 26.2019H231.546V20.9589C231.546 19.3126 230.901 18.4797 229.622 18.4797C228.524 18.4797 227.5 19.1995 227.5 20.6565V26.2019H225.381V12.7822H227.5V18.3081H227.542C228.21 17.3055 229.177 16.812 230.411 16.812C232.431 16.812 233.665 18.3257 233.665 20.7307V26.2019ZM245.165 22.0941H238.802C238.842 23.8359 240.038 24.819 241.809 24.819C242.749 24.819 243.615 24.6668 244.38 24.384L244.71 25.804C243.808 26.1824 242.745 26.3716 241.509 26.3716C238.525 26.3716 236.758 24.5537 236.758 21.7352C236.758 18.9147 238.567 16.7945 241.27 16.7945C243.709 16.7945 245.238 18.5363 245.238 21.1676C245.252 21.4781 245.227 21.7891 245.165 22.0941ZM243.221 20.637C243.221 19.217 242.478 18.2145 241.123 18.2145C239.905 18.2145 238.942 19.2366 238.804 20.637H243.221Z" fill="white"/>
<defs>
<linearGradient id="paint0_linear_815_13747" x1="200.225" y1="78.2071" x2="200.225" y2="-203.099" gradientUnits="userSpaceOnUse">
<stop stop-color="#1A1A1A" stop-opacity="0.1"/>
<stop offset="0.123" stop-color="#212121" stop-opacity="0.151"/>
<stop offset="0.308" stop-color="#353535" stop-opacity="0.227"/>
<stop offset="0.532" stop-color="#575757" stop-opacity="0.318"/>
<stop offset="0.783" stop-color="#858585" stop-opacity="0.421"/>
<stop offset="1" stop-color="#B3B3B3" stop-opacity="0.51"/>
</linearGradient>
</defs>
</svg>
