<svg width="270" height="284" viewBox="0 0 270 284" fill="none" xmlns="http://www.w3.org/2000/svg">
<g clip-path="url(#clip0_821_9635)">
<rect width="270" height="284" rx="4" fill="black"/>
<g filter="url(#filter0_f_821_9635)">
<path d="M233 142C233 196.124 189.124 240 135 240C80.8761 240 37 196.124 37 142C37 87.8761 80.8761 44 135 44C189.124 44 233 87.8761 233 142Z" fill="#D9D9D9" fill-opacity="0.9"/>
</g>
<g clip-path="url(#clip1_821_9635)">
<path fill-rule="evenodd" clip-rule="evenodd" d="M257.798 158.131C257.798 164.426 258.088 169.633 258.088 169.633H245.192L245.154 152.218C245.154 146.298 243.463 144.175 240.38 144.175C236.339 144.175 234.266 147.387 234.266 154.151L234.243 169.633H221.579C221.973 159.271 221.591 143.714 221.278 134.121H232.719C232.719 134.121 232.974 135.553 232.974 137.867L232.963 139.216C234.531 136.941 239.229 133.058 244.886 133.356C250.544 133.654 254.634 136.515 256.425 140.433C257.441 142.653 257.741 146.015 257.809 148.512L257.798 158.131ZM98.5991 165.135C96.6353 167.42 92.1992 170.666 87.1271 170.274C79.9833 169.719 74.3552 166.355 74.3552 155.244L74.3832 134.127H87.1271L87.1341 151.54C87.1341 157.463 88.6707 159.586 91.7551 159.586C95.7934 159.586 97.7447 155.704 97.7447 149.607L97.7559 134.128H110.308C109.913 144.492 110.297 160.047 110.609 169.639H99.1692C98.5361 168.543 98.5991 165.135 98.5991 165.135ZM206.29 165.167C206.29 168.332 206.537 169.648 206.537 169.648H217.479C217.479 169.648 217.175 163.567 217.17 151.749C217.17 151.586 217.227 144.313 216.322 142.248C215.419 140.179 213.541 135.327 205.478 133.642C197.418 131.955 188.864 135.177 187.591 136.173V144.919C187.591 144.919 193.136 141.751 197.425 141.751C200.669 141.751 205.241 141.978 205.485 146.98C205.485 146.98 203.794 146.917 201.349 146.917C193.478 146.917 183.61 148.502 183.432 158.586C183.295 166.476 189.902 170.146 195.699 169.974C195.701 169.969 202.36 170.343 206.29 165.167Z" fill="#CC2131"/>
<path fill-rule="evenodd" clip-rule="evenodd" d="M195.498 158.242C195.237 153.267 204.405 153.919 205.568 154.363C205.624 162.795 195.788 163.764 195.498 158.242Z" fill="#2D2D2D"/>
<path fill-rule="evenodd" clip-rule="evenodd" d="M168.309 152.243C168.309 146.316 166.329 144.254 163.651 144.254C159.61 144.254 157.534 147.403 157.534 154.176L157.556 169.632H145.015L144.99 123.751H157.622L157.66 137.717C159.769 135.752 163.572 133.15 168.188 133.393C173.84 133.69 181.073 136.435 181.073 149.248V169.63H168.311L168.309 152.243ZM141.222 145.658C136.664 141.804 125.632 142.202 125.632 151.431C125.632 161.715 137.584 161.431 142.106 157.926L142.434 168.001C136.016 171.5 112.836 172.695 112.836 151.624C112.836 130.54 135.691 131.62 142.074 135.646L141.222 145.658ZM19.2111 150.437L12.9428 169.63H28.4699L32.8836 154.821H42.4703L46.6991 169.63H75.064C75.064 169.63 67.2521 145.552 67.2493 145.558C65.8275 148.448 63.1003 152.729 57.3531 155.61L57.0071 154.459C59.139 153.394 65.1061 149.961 67.5056 141.639C67.7395 140.727 68.8097 136.034 68.9428 135.333C69.0758 134.632 69.4946 132.986 70.7945 132.021C72.3872 130.797 73.7249 131.859 77.1889 130.191C77.5629 130.045 77.5601 129.917 77.1875 129.773C76.228 129.369 74.4743 128.715 72.3199 128.724C70.9878 128.73 70.2384 128.401 69.0786 127.197C68.5085 126.606 67.203 123.593 62.1436 123.593C61.4152 123.593 60.6336 123.623 60.0159 123.752L56.762 113.695H31.1453L23.0869 138.471L11.9693 138.466C11.8442 139.641 12.0243 140.83 12.4904 141.906C12.9566 142.982 13.6914 143.905 14.6167 144.577C13.7226 145.221 13.0041 146.1 12.5324 147.126C12.0607 148.153 11.8521 149.291 11.9273 150.428L19.2111 150.437Z" fill="#CC2131"/>
<path fill-rule="evenodd" clip-rule="evenodd" d="M53.3162 155.835L56.8572 168.132H59.9753L56.1316 154.857C55.3907 155.199 54.3597 155.558 53.3162 155.835ZM65.1902 128.887L62.582 130.244C62.3061 130.383 62.1814 130.256 62.3047 129.961L63.5149 127.233C62.9357 127.037 62.3105 127.054 61.7419 127.282C61.1734 127.51 60.6955 127.934 60.3867 128.486C60.078 129.037 59.9567 129.682 60.043 130.316C60.1292 130.949 60.4178 131.533 60.8613 131.971C61.3048 132.409 61.8768 132.675 62.4832 132.726C63.0896 132.777 63.6944 132.609 64.1981 132.25C64.7018 131.891 65.0744 131.363 65.2547 130.752C65.435 130.14 65.4123 129.483 65.1902 128.887Z" fill="#242424"/>
<path fill-rule="evenodd" clip-rule="evenodd" d="M58.9107 123.375C58.983 123.36 59.0583 123.375 59.1203 123.417C59.1823 123.459 59.2262 123.525 59.2427 123.6C59.2558 123.677 59.24 123.755 59.1986 123.819C59.1572 123.883 59.0935 123.927 59.0213 123.942C54.7659 125.022 53.5991 128.793 53.7518 131.191C53.7756 131.558 53.8288 132.159 53.9129 132.423C47.2117 135.779 41.4057 139.613 34.7396 147.911L51.3971 147.905C50.397 148.536 49.2918 149.485 48.0662 150.587L49.6434 156.429L52.9982 168.112L49.8087 168.089L45.0224 151.597H25.653C26.3198 149.94 27.4502 148.325 28.4167 147.361L16.0566 147.37C16.2121 145.894 17.3565 144.62 19.0808 144.62C19.1354 144.62 19.1788 144.574 19.1788 144.516C19.1788 144.459 19.1354 144.413 19.0808 144.413C17.4167 144.413 16.2821 143.282 16.0678 141.72H37.1937C41.2614 137.723 47.3826 133.918 51.2543 132.074C50.9629 127.836 53.2741 123.932 58.9107 123.375Z" fill="#252525"/>
<path fill-rule="evenodd" clip-rule="evenodd" d="M38.1966 137.021L43.6833 118.386L47.3518 130.988C47.3518 130.988 41.2054 134.43 38.1966 137.021Z" fill="#252525"/>
</g>
</g>
<defs>
<filter id="filter0_f_821_9635" x="-263" y="-256" width="796" height="796" filterUnits="userSpaceOnUse" color-interpolation-filters="sRGB">
<feFlood flood-opacity="0" result="BackgroundImageFix"/>
<feBlend mode="normal" in="SourceGraphic" in2="BackgroundImageFix" result="shape"/>
<feGaussianBlur stdDeviation="150" result="effect1_foregroundBlur_821_9635"/>
</filter>
<clipPath id="clip0_821_9635">
<rect width="270" height="284" rx="4" fill="white"/>
</clipPath>
<clipPath id="clip1_821_9635">
<rect width="270" height="284" fill="white"/>
</clipPath>
</defs>
</svg>
