<svg width="456" height="60" viewBox="0 0 456 60" fill="none" xmlns="http://www.w3.org/2000/svg">
<rect width="456" height="60" rx="10" fill="#ABA7A7"/>
<g clip-path="url(#clip0_903_11084)">
<path d="M53.8945 24.6948V35.27" stroke="white" stroke-width="2" stroke-miterlimit="10" stroke-linecap="round" stroke-linejoin="round"/>
<path d="M49.8418 24.6948V35.27" stroke="white" stroke-width="2" stroke-miterlimit="10" stroke-linecap="round" stroke-linejoin="round"/>
<path d="M45.7871 24.6948V35.27" stroke="white" stroke-width="2" stroke-miterlimit="10" stroke-linecap="round" stroke-linejoin="round"/>
<path d="M43.3535 24.6948V35.27" stroke="white" stroke-width="2" stroke-miterlimit="10" stroke-linecap="round" stroke-linejoin="round"/>
<path d="M56.3281 24.6948V35.27" stroke="white" stroke-width="2" stroke-miterlimit="10" stroke-linecap="round" stroke-linejoin="round"/>
<path d="M60.3809 24.6948V35.27" stroke="white" stroke-width="2" stroke-miterlimit="10" stroke-linecap="round" stroke-linejoin="round"/>
<path d="M62.8164 24.6948V35.27" stroke="white" stroke-width="2" stroke-miterlimit="10" stroke-linecap="round" stroke-linejoin="round"/>
<path d="M38.9824 25.5752V18.5251C38.9824 16.5863 40.4421 15 42.2261 15H49.5245" stroke="white" stroke-width="2" stroke-miterlimit="10" stroke-linecap="round" stroke-linejoin="round"/>
<path d="M49.5245 44.9629H42.2261C40.4421 44.9629 38.9824 43.3766 38.9824 41.4378V34.3877" stroke="white" stroke-width="2" stroke-miterlimit="10" stroke-linecap="round" stroke-linejoin="round"/>
<path d="M66.5518 34.3877V41.4378C66.5518 43.3766 65.0921 44.9629 63.3081 44.9629H56.0098" stroke="white" stroke-width="2" stroke-miterlimit="10" stroke-linecap="round" stroke-linejoin="round"/>
<path d="M56.0098 15H63.3081C65.0921 15 66.5518 16.5863 66.5518 18.5251V25.5752" stroke="white" stroke-width="2" stroke-miterlimit="10" stroke-linecap="round" stroke-linejoin="round"/>
<path d="M36.6758 30.9067H69.3269" stroke="#E87B38" stroke-width="2" stroke-miterlimit="10" stroke-linecap="round" stroke-linejoin="round"/>
</g>
<path d="M118.912 24.88V36H117.088V28.384L113.696 36H112.432L109.024 28.384V36H107.2V24.88H109.168L113.072 33.6L116.96 24.88H118.912ZM129.293 27.184V36H127.469V34.96C127.181 35.3227 126.803 35.6107 126.333 35.824C125.875 36.0267 125.384 36.128 124.861 36.128C124.168 36.128 123.544 35.984 122.989 35.696C122.445 35.408 122.013 34.9813 121.693 34.416C121.384 33.8507 121.229 33.168 121.229 32.368V27.184H123.037V32.096C123.037 32.8853 123.235 33.4933 123.629 33.92C124.024 34.336 124.563 34.544 125.245 34.544C125.928 34.544 126.467 34.336 126.861 33.92C127.267 33.4933 127.469 32.8853 127.469 32.096V27.184H129.293ZM131.092 31.552C131.092 30.6667 131.273 29.8827 131.636 29.2C132.009 28.5173 132.511 27.9893 133.14 27.616C133.78 27.232 134.489 27.04 135.268 27.04C135.844 27.04 136.409 27.168 136.964 27.424C137.529 27.6693 137.977 28 138.308 28.416V24.16H140.148V36H138.308V34.672C138.009 35.0987 137.593 35.4507 137.06 35.728C136.537 36.0053 135.935 36.144 135.252 36.144C134.484 36.144 133.78 35.952 133.14 35.568C132.511 35.1733 132.009 34.6293 131.636 33.936C131.273 33.232 131.092 32.4373 131.092 31.552ZM138.308 31.584C138.308 30.976 138.18 30.448 137.924 30C137.679 29.552 137.353 29.2107 136.948 28.976C136.543 28.7413 136.105 28.624 135.636 28.624C135.167 28.624 134.729 28.7413 134.324 28.976C133.919 29.2 133.588 29.536 133.332 29.984C133.087 30.4213 132.964 30.944 132.964 31.552C132.964 32.16 133.087 32.6933 133.332 33.152C133.588 33.6107 133.919 33.9627 134.324 34.208C134.74 34.4427 135.177 34.56 135.636 34.56C136.105 34.56 136.543 34.4427 136.948 34.208C137.353 33.9733 137.679 33.632 137.924 33.184C138.18 32.7253 138.308 32.192 138.308 31.584ZM141.936 31.552C141.936 30.6667 142.117 29.8827 142.48 29.2C142.853 28.5173 143.354 27.9893 143.984 27.616C144.624 27.232 145.328 27.04 146.096 27.04C146.789 27.04 147.392 27.1787 147.904 27.456C148.426 27.7227 148.842 28.0587 149.152 28.464V27.184H150.992V36H149.152V34.688C148.842 35.104 148.421 35.4507 147.888 35.728C147.354 36.0053 146.746 36.144 146.064 36.144C145.306 36.144 144.613 35.952 143.984 35.568C143.354 35.1733 142.853 34.6293 142.48 33.936C142.117 33.232 141.936 32.4373 141.936 31.552ZM149.152 31.584C149.152 30.976 149.024 30.448 148.768 30C148.522 29.552 148.197 29.2107 147.792 28.976C147.386 28.7413 146.949 28.624 146.48 28.624C146.01 28.624 145.573 28.7413 145.168 28.976C144.762 29.2 144.432 29.536 144.176 29.984C143.93 30.4213 143.808 30.944 143.808 31.552C143.808 32.16 143.93 32.6933 144.176 33.152C144.432 33.6107 144.762 33.9627 145.168 34.208C145.584 34.4427 146.021 34.56 146.48 34.56C146.949 34.56 147.386 34.4427 147.792 34.208C148.197 33.9733 148.522 33.632 148.768 33.184C149.024 32.7253 149.152 32.192 149.152 31.584ZM155.212 28.464C155.478 28.016 155.83 27.6693 156.268 27.424C156.716 27.168 157.244 27.04 157.852 27.04V28.928H157.388C156.673 28.928 156.129 29.1093 155.756 29.472C155.393 29.8347 155.212 30.464 155.212 31.36V36H153.388V27.184H155.212V28.464ZM165.508 28.48C165.818 28.0747 166.239 27.7333 166.772 27.456C167.306 27.1787 167.908 27.04 168.58 27.04C169.348 27.04 170.047 27.232 170.676 27.616C171.316 27.9893 171.818 28.5173 172.18 29.2C172.543 29.8827 172.724 30.6667 172.724 31.552C172.724 32.4373 172.543 33.232 172.18 33.936C171.818 34.6293 171.316 35.1733 170.676 35.568C170.047 35.952 169.348 36.144 168.58 36.144C167.908 36.144 167.311 36.0107 166.788 35.744C166.266 35.4667 165.839 35.1253 165.508 34.72V40.192H163.684V27.184H165.508V28.48ZM170.868 31.552C170.868 30.944 170.74 30.4213 170.484 29.984C170.239 29.536 169.908 29.2 169.492 28.976C169.087 28.7413 168.65 28.624 168.18 28.624C167.722 28.624 167.284 28.7413 166.868 28.976C166.463 29.2107 166.132 29.552 165.876 30C165.631 30.448 165.508 30.976 165.508 31.584C165.508 32.192 165.631 32.7253 165.876 33.184C166.132 33.632 166.463 33.9733 166.868 34.208C167.284 34.4427 167.722 34.56 168.18 34.56C168.65 34.56 169.087 34.4427 169.492 34.208C169.908 33.9627 170.239 33.6107 170.484 33.152C170.74 32.6933 170.868 32.16 170.868 31.552ZM173.92 31.552C173.92 30.6667 174.101 29.8827 174.464 29.2C174.837 28.5173 175.339 27.9893 175.968 27.616C176.608 27.232 177.312 27.04 178.08 27.04C178.773 27.04 179.376 27.1787 179.888 27.456C180.411 27.7227 180.827 28.0587 181.136 28.464V27.184H182.976V36H181.136V34.688C180.827 35.104 180.405 35.4507 179.872 35.728C179.339 36.0053 178.731 36.144 178.048 36.144C177.291 36.144 176.597 35.952 175.968 35.568C175.339 35.1733 174.837 34.6293 174.464 33.936C174.101 33.232 173.92 32.4373 173.92 31.552ZM181.136 31.584C181.136 30.976 181.008 30.448 180.752 30C180.507 29.552 180.181 29.2107 179.776 28.976C179.371 28.7413 178.933 28.624 178.464 28.624C177.995 28.624 177.557 28.7413 177.152 28.976C176.747 29.2 176.416 29.536 176.16 29.984C175.915 30.4213 175.792 30.944 175.792 31.552C175.792 32.16 175.915 32.6933 176.16 33.152C176.416 33.6107 176.747 33.9627 177.152 34.208C177.568 34.4427 178.005 34.56 178.464 34.56C178.933 34.56 179.371 34.4427 179.776 34.208C180.181 33.9733 180.507 33.632 180.752 33.184C181.008 32.7253 181.136 32.192 181.136 31.584ZM187.196 28.464C187.463 28.016 187.815 27.6693 188.252 27.424C188.7 27.168 189.228 27.04 189.836 27.04V28.928H189.372C188.657 28.928 188.113 29.1093 187.74 29.472C187.377 29.8347 187.196 30.464 187.196 31.36V36H185.372V27.184H187.196V28.464ZM190.905 31.552C190.905 30.6667 191.086 29.8827 191.449 29.2C191.822 28.5173 192.323 27.9893 192.953 27.616C193.593 27.232 194.297 27.04 195.065 27.04C195.758 27.04 196.361 27.1787 196.873 27.456C197.395 27.7227 197.811 28.0587 198.121 28.464V27.184H199.961V36H198.121V34.688C197.811 35.104 197.39 35.4507 196.857 35.728C196.323 36.0053 195.715 36.144 195.033 36.144C194.275 36.144 193.582 35.952 192.953 35.568C192.323 35.1733 191.822 34.6293 191.449 33.936C191.086 33.232 190.905 32.4373 190.905 31.552ZM198.121 31.584C198.121 30.976 197.993 30.448 197.737 30C197.491 29.552 197.166 29.2107 196.761 28.976C196.355 28.7413 195.918 28.624 195.449 28.624C194.979 28.624 194.542 28.7413 194.137 28.976C193.731 29.2 193.401 29.536 193.145 29.984C192.899 30.4213 192.777 30.944 192.777 31.552C192.777 32.16 192.899 32.6933 193.145 33.152C193.401 33.6107 193.731 33.9627 194.137 34.208C194.553 34.4427 194.99 34.56 195.449 34.56C195.918 34.56 196.355 34.4427 196.761 34.208C197.166 33.9733 197.491 33.632 197.737 33.184C197.993 32.7253 198.121 32.192 198.121 31.584ZM210.177 36.112C209.43 36.112 208.758 35.984 208.161 35.728C207.563 35.4613 207.094 35.088 206.753 34.608C206.411 34.128 206.241 33.568 206.241 32.928H208.193C208.235 33.408 208.422 33.8027 208.753 34.112C209.094 34.4213 209.569 34.576 210.177 34.576C210.806 34.576 211.297 34.4267 211.649 34.128C212.001 33.8187 212.177 33.424 212.177 32.944C212.177 32.5707 212.065 32.2667 211.841 32.032C211.627 31.7973 211.355 31.616 211.025 31.488C210.705 31.36 210.257 31.2213 209.681 31.072C208.955 30.88 208.363 30.688 207.905 30.496C207.457 30.2933 207.073 29.984 206.753 29.568C206.433 29.152 206.273 28.5973 206.273 27.904C206.273 27.264 206.433 26.704 206.753 26.224C207.073 25.744 207.521 25.376 208.097 25.12C208.673 24.864 209.339 24.736 210.097 24.736C211.174 24.736 212.054 25.008 212.737 25.552C213.43 26.0853 213.814 26.8213 213.889 27.76H211.873C211.841 27.3547 211.649 27.008 211.297 26.72C210.945 26.432 210.481 26.288 209.905 26.288C209.382 26.288 208.955 26.4213 208.625 26.688C208.294 26.9547 208.129 27.3387 208.129 27.84C208.129 28.1813 208.23 28.464 208.433 28.688C208.646 28.9013 208.913 29.072 209.233 29.2C209.553 29.328 209.99 29.4667 210.545 29.616C211.281 29.8187 211.878 30.0213 212.337 30.224C212.806 30.4267 213.201 30.7413 213.521 31.168C213.851 31.584 214.017 32.144 214.017 32.848C214.017 33.4133 213.862 33.9467 213.553 34.448C213.254 34.9493 212.811 35.3547 212.225 35.664C211.649 35.9627 210.966 36.112 210.177 36.112ZM215.561 31.584C215.561 30.6773 215.742 29.8827 216.105 29.2C216.478 28.5067 216.99 27.9733 217.641 27.6C218.291 27.2267 219.038 27.04 219.881 27.04C220.947 27.04 221.827 27.296 222.521 27.808C223.225 28.3093 223.699 29.0293 223.945 29.968H221.977C221.817 29.5307 221.561 29.1893 221.209 28.944C220.857 28.6987 220.414 28.576 219.881 28.576C219.134 28.576 218.537 28.8427 218.089 29.376C217.651 29.8987 217.433 30.6347 217.433 31.584C217.433 32.5333 217.651 33.2747 218.089 33.808C218.537 34.3413 219.134 34.608 219.881 34.608C220.937 34.608 221.635 34.144 221.977 33.216H223.945C223.689 34.112 223.209 34.8267 222.505 35.36C221.801 35.8827 220.926 36.144 219.881 36.144C219.038 36.144 218.291 35.9573 217.641 35.584C216.99 35.2 216.478 34.6667 216.105 33.984C215.742 33.2907 215.561 32.4907 215.561 31.584ZM225.155 31.552C225.155 30.6667 225.336 29.8827 225.699 29.2C226.072 28.5173 226.573 27.9893 227.203 27.616C227.843 27.232 228.547 27.04 229.315 27.04C230.008 27.04 230.611 27.1787 231.123 27.456C231.645 27.7227 232.061 28.0587 232.371 28.464V27.184H234.211V36H232.371V34.688C232.061 35.104 231.64 35.4507 231.107 35.728C230.573 36.0053 229.965 36.144 229.283 36.144C228.525 36.144 227.832 35.952 227.203 35.568C226.573 35.1733 226.072 34.6293 225.699 33.936C225.336 33.232 225.155 32.4373 225.155 31.552ZM232.371 31.584C232.371 30.976 232.243 30.448 231.987 30C231.741 29.552 231.416 29.2107 231.011 28.976C230.605 28.7413 230.168 28.624 229.699 28.624C229.229 28.624 228.792 28.7413 228.387 28.976C227.981 29.2 227.651 29.536 227.395 29.984C227.149 30.4213 227.027 30.944 227.027 31.552C227.027 32.16 227.149 32.6933 227.395 33.152C227.651 33.6107 227.981 33.9627 228.387 34.208C228.803 34.4427 229.24 34.56 229.699 34.56C230.168 34.56 230.605 34.4427 231.011 34.208C231.416 33.9733 231.741 33.632 231.987 33.184C232.243 32.7253 232.371 32.192 232.371 31.584ZM241.054 27.04C241.748 27.04 242.366 27.184 242.91 27.472C243.465 27.76 243.897 28.1867 244.206 28.752C244.516 29.3173 244.67 30 244.67 30.8V36H242.862V31.072C242.862 30.2827 242.665 29.68 242.27 29.264C241.876 28.8373 241.337 28.624 240.654 28.624C239.972 28.624 239.428 28.8373 239.022 29.264C238.628 29.68 238.43 30.2827 238.43 31.072V36H236.606V27.184H238.43V28.192C238.729 27.8293 239.108 27.5467 239.566 27.344C240.036 27.1413 240.532 27.04 241.054 27.04ZM260.737 24.88L256.561 36H254.449L250.257 24.88H252.209L255.505 34.128L258.817 24.88H260.737ZM263.191 26.016C262.86 26.016 262.583 25.904 262.359 25.68C262.135 25.456 262.023 25.1787 262.023 24.848C262.023 24.5173 262.135 24.24 262.359 24.016C262.583 23.792 262.86 23.68 263.191 23.68C263.511 23.68 263.783 23.792 264.007 24.016C264.231 24.24 264.343 24.5173 264.343 24.848C264.343 25.1787 264.231 25.456 264.007 25.68C263.783 25.904 263.511 26.016 263.191 26.016ZM264.087 27.184V36H262.263V27.184H264.087ZM265.873 31.552C265.873 30.6667 266.055 29.8827 266.417 29.2C266.791 28.5173 267.292 27.9893 267.921 27.616C268.561 27.232 269.265 27.04 270.033 27.04C270.727 27.04 271.329 27.1787 271.841 27.456C272.364 27.7227 272.78 28.0587 273.089 28.464V27.184H274.929V36H273.089V34.688C272.78 35.104 272.359 35.4507 271.825 35.728C271.292 36.0053 270.684 36.144 270.001 36.144C269.244 36.144 268.551 35.952 267.921 35.568C267.292 35.1733 266.791 34.6293 266.417 33.936C266.055 33.232 265.873 32.4373 265.873 31.552ZM273.089 31.584C273.089 30.976 272.961 30.448 272.705 30C272.46 29.552 272.135 29.2107 271.729 28.976C271.324 28.7413 270.887 28.624 270.417 28.624C269.948 28.624 269.511 28.7413 269.105 28.976C268.7 29.2 268.369 29.536 268.113 29.984C267.868 30.4213 267.745 30.944 267.745 31.552C267.745 32.16 267.868 32.6933 268.113 33.152C268.369 33.6107 268.7 33.9627 269.105 34.208C269.521 34.4427 269.959 34.56 270.417 34.56C270.887 34.56 271.324 34.4427 271.729 34.208C272.135 33.9733 272.46 33.632 272.705 33.184C272.961 32.7253 273.089 32.192 273.089 31.584ZM280.873 30.416C280.873 29.328 281.124 28.352 281.625 27.488C282.137 26.624 282.825 25.952 283.689 25.472C284.564 24.9813 285.519 24.736 286.553 24.736C287.737 24.736 288.788 25.0293 289.705 25.616C290.633 26.192 291.305 27.0133 291.721 28.08H289.529C289.241 27.4933 288.841 27.056 288.329 26.768C287.817 26.48 287.225 26.336 286.553 26.336C285.817 26.336 285.161 26.5013 284.585 26.832C284.009 27.1627 283.556 27.6373 283.225 28.256C282.905 28.8747 282.745 29.5947 282.745 30.416C282.745 31.2373 282.905 31.9573 283.225 32.576C283.556 33.1947 284.009 33.6747 284.585 34.016C285.161 34.3467 285.817 34.512 286.553 34.512C287.225 34.512 287.817 34.368 288.329 34.08C288.841 33.792 289.241 33.3547 289.529 32.768H291.721C291.305 33.8347 290.633 34.656 289.705 35.232C288.788 35.808 287.737 36.096 286.553 36.096C285.508 36.096 284.553 35.856 283.689 35.376C282.825 34.8853 282.137 34.208 281.625 33.344C281.124 32.48 280.873 31.504 280.873 30.416ZM297.68 36.144C296.848 36.144 296.096 35.9573 295.424 35.584C294.752 35.2 294.224 34.6667 293.84 33.984C293.456 33.2907 293.264 32.4907 293.264 31.584C293.264 30.688 293.462 29.8933 293.856 29.2C294.251 28.5067 294.79 27.9733 295.472 27.6C296.155 27.2267 296.918 27.04 297.76 27.04C298.603 27.04 299.366 27.2267 300.048 27.6C300.731 27.9733 301.27 28.5067 301.664 29.2C302.059 29.8933 302.256 30.688 302.256 31.584C302.256 32.48 302.054 33.2747 301.648 33.968C301.243 34.6613 300.688 35.2 299.984 35.584C299.291 35.9573 298.523 36.144 297.68 36.144ZM297.68 34.56C298.15 34.56 298.587 34.448 298.992 34.224C299.408 34 299.744 33.664 300 33.216C300.256 32.768 300.384 32.224 300.384 31.584C300.384 30.944 300.262 30.4053 300.016 29.968C299.771 29.52 299.446 29.184 299.04 28.96C298.635 28.736 298.198 28.624 297.728 28.624C297.259 28.624 296.822 28.736 296.416 28.96C296.022 29.184 295.707 29.52 295.472 29.968C295.238 30.4053 295.12 30.944 295.12 31.584C295.12 32.5333 295.36 33.2693 295.84 33.792C296.331 34.304 296.944 34.56 297.68 34.56ZM299.408 24.672L295.872 26.416V25.072L299.408 23.12V24.672ZM303.451 31.552C303.451 30.6667 303.633 29.8827 303.995 29.2C304.369 28.5173 304.87 27.9893 305.499 27.616C306.139 27.232 306.849 27.04 307.627 27.04C308.203 27.04 308.769 27.168 309.323 27.424C309.889 27.6693 310.337 28 310.667 28.416V24.16H312.507V36H310.667V34.672C310.369 35.0987 309.953 35.4507 309.419 35.728C308.897 36.0053 308.294 36.144 307.611 36.144C306.843 36.144 306.139 35.952 305.499 35.568C304.87 35.1733 304.369 34.6293 303.995 33.936C303.633 33.232 303.451 32.4373 303.451 31.552ZM310.667 31.584C310.667 30.976 310.539 30.448 310.283 30C310.038 29.552 309.713 29.2107 309.307 28.976C308.902 28.7413 308.465 28.624 307.995 28.624C307.526 28.624 307.089 28.7413 306.683 28.976C306.278 29.2 305.947 29.536 305.691 29.984C305.446 30.4213 305.323 30.944 305.323 31.552C305.323 32.16 305.446 32.6933 305.691 33.152C305.947 33.6107 306.278 33.9627 306.683 34.208C307.099 34.4427 307.537 34.56 307.995 34.56C308.465 34.56 308.902 34.4427 309.307 34.208C309.713 33.9733 310.038 33.632 310.283 33.184C310.539 32.7253 310.667 32.192 310.667 31.584ZM315.831 26.016C315.5 26.016 315.223 25.904 314.999 25.68C314.775 25.456 314.663 25.1787 314.663 24.848C314.663 24.5173 314.775 24.24 314.999 24.016C315.223 23.792 315.5 23.68 315.831 23.68C316.151 23.68 316.423 23.792 316.647 24.016C316.871 24.24 316.983 24.5173 316.983 24.848C316.983 25.1787 316.871 25.456 316.647 25.68C316.423 25.904 316.151 26.016 315.831 26.016ZM316.727 27.184V36H314.903V27.184H316.727ZM322.674 27.04C323.357 27.04 323.959 27.1787 324.482 27.456C325.015 27.7227 325.431 28.0587 325.73 28.464V27.184H327.57V36.144C327.57 36.9547 327.399 37.6747 327.058 38.304C326.717 38.944 326.221 39.4453 325.57 39.808C324.93 40.1707 324.162 40.352 323.266 40.352C322.071 40.352 321.079 40.0693 320.29 39.504C319.501 38.9493 319.053 38.192 318.946 37.232H320.754C320.893 37.6907 321.186 38.0587 321.634 38.336C322.093 38.624 322.637 38.768 323.266 38.768C324.002 38.768 324.594 38.544 325.042 38.096C325.501 37.648 325.73 36.9973 325.73 36.144V34.672C325.421 35.088 324.999 35.44 324.466 35.728C323.943 36.0053 323.346 36.144 322.674 36.144C321.906 36.144 321.202 35.952 320.562 35.568C319.933 35.1733 319.431 34.6293 319.058 33.936C318.695 33.232 318.514 32.4373 318.514 31.552C318.514 30.6667 318.695 29.8827 319.058 29.2C319.431 28.5173 319.933 27.9893 320.562 27.616C321.202 27.232 321.906 27.04 322.674 27.04ZM325.73 31.584C325.73 30.976 325.602 30.448 325.346 30C325.101 29.552 324.775 29.2107 324.37 28.976C323.965 28.7413 323.527 28.624 323.058 28.624C322.589 28.624 322.151 28.7413 321.746 28.976C321.341 29.2 321.01 29.536 320.754 29.984C320.509 30.4213 320.386 30.944 320.386 31.552C320.386 32.16 320.509 32.6933 320.754 33.152C321.01 33.6107 321.341 33.9627 321.746 34.208C322.162 34.4427 322.599 34.56 323.058 34.56C323.527 34.56 323.965 34.4427 324.37 34.208C324.775 33.9733 325.101 33.632 325.346 33.184C325.602 32.7253 325.73 32.192 325.73 31.584ZM333.79 36.144C332.958 36.144 332.206 35.9573 331.534 35.584C330.862 35.2 330.334 34.6667 329.95 33.984C329.566 33.2907 329.374 32.4907 329.374 31.584C329.374 30.688 329.571 29.8933 329.966 29.2C330.36 28.5067 330.899 27.9733 331.582 27.6C332.264 27.2267 333.027 27.04 333.87 27.04C334.712 27.04 335.475 27.2267 336.158 27.6C336.84 27.9733 337.379 28.5067 337.774 29.2C338.168 29.8933 338.366 30.688 338.366 31.584C338.366 32.48 338.163 33.2747 337.758 33.968C337.352 34.6613 336.798 35.2 336.094 35.584C335.4 35.9573 334.632 36.144 333.79 36.144ZM333.79 34.56C334.259 34.56 334.696 34.448 335.102 34.224C335.518 34 335.854 33.664 336.11 33.216C336.366 32.768 336.494 32.224 336.494 31.584C336.494 30.944 336.371 30.4053 336.126 29.968C335.88 29.52 335.555 29.184 335.15 28.96C334.744 28.736 334.307 28.624 333.838 28.624C333.368 28.624 332.931 28.736 332.526 28.96C332.131 29.184 331.816 29.52 331.582 29.968C331.347 30.4053 331.23 30.944 331.23 31.584C331.23 32.5333 331.47 33.2693 331.95 33.792C332.44 34.304 333.054 34.56 333.79 34.56ZM343.717 31.552C343.717 30.6667 343.898 29.8827 344.261 29.2C344.634 28.5173 345.136 27.9893 345.765 27.616C346.405 27.232 347.114 27.04 347.893 27.04C348.469 27.04 349.034 27.168 349.589 27.424C350.154 27.6693 350.602 28 350.933 28.416V24.16H352.773V36H350.933V34.672C350.634 35.0987 350.218 35.4507 349.685 35.728C349.162 36.0053 348.56 36.144 347.877 36.144C347.109 36.144 346.405 35.952 345.765 35.568C345.136 35.1733 344.634 34.6293 344.261 33.936C343.898 33.232 343.717 32.4373 343.717 31.552ZM350.933 31.584C350.933 30.976 350.805 30.448 350.549 30C350.304 29.552 349.978 29.2107 349.573 28.976C349.168 28.7413 348.73 28.624 348.261 28.624C347.792 28.624 347.354 28.7413 346.949 28.976C346.544 29.2 346.213 29.536 345.957 29.984C345.712 30.4213 345.589 30.944 345.589 31.552C345.589 32.16 345.712 32.6933 345.957 33.152C346.213 33.6107 346.544 33.9627 346.949 34.208C347.365 34.4427 347.802 34.56 348.261 34.56C348.73 34.56 349.168 34.4427 349.573 34.208C349.978 33.9733 350.304 33.632 350.549 33.184C350.805 32.7253 350.933 32.192 350.933 31.584ZM363.249 31.376C363.249 31.7067 363.227 32.0053 363.185 32.272H356.449C356.502 32.976 356.763 33.5413 357.233 33.968C357.702 34.3947 358.278 34.608 358.961 34.608C359.942 34.608 360.635 34.1973 361.041 33.376H363.009C362.742 34.1867 362.257 34.8533 361.553 35.376C360.859 35.888 359.995 36.144 358.961 36.144C358.118 36.144 357.361 35.9573 356.689 35.584C356.027 35.2 355.505 34.6667 355.121 33.984C354.747 33.2907 354.561 32.4907 354.561 31.584C354.561 30.6773 354.742 29.8827 355.105 29.2C355.478 28.5067 355.995 27.9733 356.657 27.6C357.329 27.2267 358.097 27.04 358.961 27.04C359.793 27.04 360.534 27.2213 361.185 27.584C361.835 27.9467 362.342 28.4587 362.705 29.12C363.067 29.7707 363.249 30.5227 363.249 31.376ZM361.345 30.8C361.334 30.128 361.094 29.5893 360.625 29.184C360.155 28.7787 359.574 28.576 358.881 28.576C358.251 28.576 357.713 28.7787 357.265 29.184C356.817 29.5787 356.55 30.1173 356.465 30.8H361.345ZM375.152 30.288C375.749 30.3947 376.256 30.7093 376.672 31.232C377.088 31.7547 377.296 32.3467 377.296 33.008C377.296 33.5733 377.147 34.0853 376.848 34.544C376.56 34.992 376.139 35.3493 375.584 35.616C375.029 35.872 374.384 36 373.648 36H369.2V24.88H373.44C374.197 24.88 374.848 25.008 375.392 25.264C375.936 25.52 376.347 25.8667 376.624 26.304C376.901 26.7307 377.04 27.2107 377.04 27.744C377.04 28.384 376.869 28.9173 376.528 29.344C376.187 29.7707 375.728 30.0853 375.152 30.288ZM371.024 29.552H373.28C373.877 29.552 374.341 29.4187 374.672 29.152C375.013 28.8747 375.184 28.48 375.184 27.968C375.184 27.4667 375.013 27.0773 374.672 26.8C374.341 26.512 373.877 26.368 373.28 26.368H371.024V29.552ZM373.488 34.512C374.107 34.512 374.592 34.3627 374.944 34.064C375.296 33.7653 375.472 33.3493 375.472 32.816C375.472 32.272 375.285 31.84 374.912 31.52C374.539 31.2 374.043 31.04 373.424 31.04H371.024V34.512H373.488ZM378.67 31.552C378.67 30.6667 378.851 29.8827 379.214 29.2C379.587 28.5173 380.089 27.9893 380.718 27.616C381.358 27.232 382.062 27.04 382.83 27.04C383.523 27.04 384.126 27.1787 384.638 27.456C385.161 27.7227 385.577 28.0587 385.886 28.464V27.184H387.726V36H385.886V34.688C385.577 35.104 385.155 35.4507 384.622 35.728C384.089 36.0053 383.481 36.144 382.798 36.144C382.041 36.144 381.347 35.952 380.718 35.568C380.089 35.1733 379.587 34.6293 379.214 33.936C378.851 33.232 378.67 32.4373 378.67 31.552ZM385.886 31.584C385.886 30.976 385.758 30.448 385.502 30C385.257 29.552 384.931 29.2107 384.526 28.976C384.121 28.7413 383.683 28.624 383.214 28.624C382.745 28.624 382.307 28.7413 381.902 28.976C381.497 29.2 381.166 29.536 380.91 29.984C380.665 30.4213 380.542 30.944 380.542 31.552C380.542 32.16 380.665 32.6933 380.91 33.152C381.166 33.6107 381.497 33.9627 381.902 34.208C382.318 34.4427 382.755 34.56 383.214 34.56C383.683 34.56 384.121 34.4427 384.526 34.208C384.931 33.9733 385.257 33.632 385.502 33.184C385.758 32.7253 385.886 32.192 385.886 31.584ZM391.946 28.464C392.213 28.016 392.565 27.6693 393.002 27.424C393.45 27.168 393.978 27.04 394.586 27.04V28.928H394.122C393.407 28.928 392.863 29.1093 392.49 29.472C392.127 29.8347 391.946 30.464 391.946 31.36V36H390.122V27.184H391.946V28.464ZM398.087 28.464C398.353 28.016 398.705 27.6693 399.143 27.424C399.591 27.168 400.119 27.04 400.727 27.04V28.928H400.263C399.548 28.928 399.004 29.1093 398.631 29.472C398.268 29.8347 398.087 30.464 398.087 31.36V36H396.263V27.184H398.087V28.464ZM401.795 31.552C401.795 30.6667 401.976 29.8827 402.339 29.2C402.712 28.5173 403.214 27.9893 403.843 27.616C404.483 27.232 405.187 27.04 405.955 27.04C406.648 27.04 407.251 27.1787 407.763 27.456C408.286 27.7227 408.702 28.0587 409.011 28.464V27.184H410.851V36H409.011V34.688C408.702 35.104 408.28 35.4507 407.747 35.728C407.214 36.0053 406.606 36.144 405.923 36.144C405.166 36.144 404.472 35.952 403.843 35.568C403.214 35.1733 402.712 34.6293 402.339 33.936C401.976 33.232 401.795 32.4373 401.795 31.552ZM409.011 31.584C409.011 30.976 408.883 30.448 408.627 30C408.382 29.552 408.056 29.2107 407.651 28.976C407.246 28.7413 406.808 28.624 406.339 28.624C405.87 28.624 405.432 28.7413 405.027 28.976C404.622 29.2 404.291 29.536 404.035 29.984C403.79 30.4213 403.667 30.944 403.667 31.552C403.667 32.16 403.79 32.6933 404.035 33.152C404.291 33.6107 404.622 33.9627 405.027 34.208C405.443 34.4427 405.88 34.56 406.339 34.56C406.808 34.56 407.246 34.4427 407.651 34.208C408.056 33.9733 408.382 33.632 408.627 33.184C408.883 32.7253 409.011 32.192 409.011 31.584ZM416.447 36.144C415.754 36.144 415.13 36.0213 414.575 35.776C414.031 35.52 413.599 35.1787 413.279 34.752C412.959 34.3147 412.788 33.8293 412.767 33.296H414.655C414.687 33.6693 414.863 33.984 415.183 34.24C415.514 34.4853 415.924 34.608 416.415 34.608C416.927 34.608 417.322 34.512 417.599 34.32C417.887 34.1173 418.031 33.8613 418.031 33.552C418.031 33.2213 417.871 32.976 417.551 32.816C417.242 32.656 416.746 32.48 416.063 32.288C415.402 32.1067 414.863 31.9307 414.447 31.76C414.031 31.5893 413.668 31.328 413.359 30.976C413.06 30.624 412.911 30.16 412.911 29.584C412.911 29.1147 413.05 28.688 413.327 28.304C413.604 27.9093 413.999 27.6 414.511 27.376C415.034 27.152 415.631 27.04 416.303 27.04C417.306 27.04 418.111 27.296 418.719 27.808C419.338 28.3093 419.668 28.9973 419.711 29.872H417.887C417.855 29.4773 417.695 29.1627 417.407 28.928C417.119 28.6933 416.73 28.576 416.239 28.576C415.759 28.576 415.391 28.6667 415.135 28.848C414.879 29.0293 414.751 29.2693 414.751 29.568C414.751 29.8027 414.836 30 415.007 30.16C415.178 30.32 415.386 30.448 415.631 30.544C415.876 30.6293 416.239 30.7413 416.719 30.88C417.359 31.0507 417.882 31.2267 418.287 31.408C418.703 31.5787 419.06 31.8347 419.359 32.176C419.658 32.5173 419.812 32.9707 419.823 33.536C419.823 34.0373 419.684 34.4853 419.407 34.88C419.13 35.2747 418.735 35.584 418.223 35.808C417.722 36.032 417.13 36.144 416.447 36.144Z" fill="#FAFAFA"/>
<defs>
<clipPath id="clip0_903_11084">
<rect width="36" height="36" fill="white" transform="translate(35 12)"/>
</clipPath>
</defs>
</svg>
