<svg width="348" height="60" viewBox="0 0 348 60" fill="none" xmlns="http://www.w3.org/2000/svg">
<rect width="348" height="60" rx="10" fill="#ABA7A7"/>
<path d="M44 24L51.5 36" stroke="white" stroke-width="2" stroke-linecap="round"/>
<path d="M61.584 42.75C63.8221 38.8735 65.0004 34.4762 65.0004 30C65.0004 25.5238 63.8221 21.1265 61.584 17.25" stroke="white" stroke-width="2" stroke-linecap="round"/>
<path d="M56.5879 39C58.1677 36.2637 58.9994 33.1596 58.9994 30C58.9994 26.8403 58.1677 23.7363 56.5879 21" stroke="white" stroke-width="2" stroke-linecap="round"/>
<path d="M51.3926 36C52.4457 34.1757 53.0003 32.1064 53.0003 30C53.0003 27.8935 52.4457 25.8242 51.3926 24" stroke="white" stroke-width="2" stroke-linecap="round"/>
<path d="M44.1077 36C43.0545 34.1757 42.5 32.1064 42.5 30C42.5 27.8935 43.0545 25.8242 44.1077 24" stroke="white" stroke-width="2" stroke-linecap="round"/>
<path d="M118.912 24.88V36H117.088V28.384L113.696 36H112.432L109.024 28.384V36H107.2V24.88H109.168L113.072 33.6L116.96 24.88H118.912ZM129.293 27.184V36H127.469V34.96C127.181 35.3227 126.803 35.6107 126.333 35.824C125.875 36.0267 125.384 36.128 124.861 36.128C124.168 36.128 123.544 35.984 122.989 35.696C122.445 35.408 122.013 34.9813 121.693 34.416C121.384 33.8507 121.229 33.168 121.229 32.368V27.184H123.037V32.096C123.037 32.8853 123.235 33.4933 123.629 33.92C124.024 34.336 124.563 34.544 125.245 34.544C125.928 34.544 126.467 34.336 126.861 33.92C127.267 33.4933 127.469 32.8853 127.469 32.096V27.184H129.293ZM131.092 31.552C131.092 30.6667 131.273 29.8827 131.636 29.2C132.009 28.5173 132.511 27.9893 133.14 27.616C133.78 27.232 134.489 27.04 135.268 27.04C135.844 27.04 136.409 27.168 136.964 27.424C137.529 27.6693 137.977 28 138.308 28.416V24.16H140.148V36H138.308V34.672C138.009 35.0987 137.593 35.4507 137.06 35.728C136.537 36.0053 135.935 36.144 135.252 36.144C134.484 36.144 133.78 35.952 133.14 35.568C132.511 35.1733 132.009 34.6293 131.636 33.936C131.273 33.232 131.092 32.4373 131.092 31.552ZM138.308 31.584C138.308 30.976 138.18 30.448 137.924 30C137.679 29.552 137.353 29.2107 136.948 28.976C136.543 28.7413 136.105 28.624 135.636 28.624C135.167 28.624 134.729 28.7413 134.324 28.976C133.919 29.2 133.588 29.536 133.332 29.984C133.087 30.4213 132.964 30.944 132.964 31.552C132.964 32.16 133.087 32.6933 133.332 33.152C133.588 33.6107 133.919 33.9627 134.324 34.208C134.74 34.4427 135.177 34.56 135.636 34.56C136.105 34.56 136.543 34.4427 136.948 34.208C137.353 33.9733 137.679 33.632 137.924 33.184C138.18 32.7253 138.308 32.192 138.308 31.584ZM141.936 31.552C141.936 30.6667 142.117 29.8827 142.48 29.2C142.853 28.5173 143.354 27.9893 143.984 27.616C144.624 27.232 145.328 27.04 146.096 27.04C146.789 27.04 147.392 27.1787 147.904 27.456C148.426 27.7227 148.842 28.0587 149.152 28.464V27.184H150.992V36H149.152V34.688C148.842 35.104 148.421 35.4507 147.888 35.728C147.354 36.0053 146.746 36.144 146.064 36.144C145.306 36.144 144.613 35.952 143.984 35.568C143.354 35.1733 142.853 34.6293 142.48 33.936C142.117 33.232 141.936 32.4373 141.936 31.552ZM149.152 31.584C149.152 30.976 149.024 30.448 148.768 30C148.522 29.552 148.197 29.2107 147.792 28.976C147.386 28.7413 146.949 28.624 146.48 28.624C146.01 28.624 145.573 28.7413 145.168 28.976C144.762 29.2 144.432 29.536 144.176 29.984C143.93 30.4213 143.808 30.944 143.808 31.552C143.808 32.16 143.93 32.6933 144.176 33.152C144.432 33.6107 144.762 33.9627 145.168 34.208C145.584 34.4427 146.021 34.56 146.48 34.56C146.949 34.56 147.386 34.4427 147.792 34.208C148.197 33.9733 148.522 33.632 148.768 33.184C149.024 32.7253 149.152 32.192 149.152 31.584ZM155.212 28.464C155.478 28.016 155.83 27.6693 156.268 27.424C156.716 27.168 157.244 27.04 157.852 27.04V28.928H157.388C156.673 28.928 156.129 29.1093 155.756 29.472C155.393 29.8347 155.212 30.464 155.212 31.36V36H153.388V27.184H155.212V28.464ZM165.508 28.48C165.818 28.0747 166.239 27.7333 166.772 27.456C167.306 27.1787 167.908 27.04 168.58 27.04C169.348 27.04 170.047 27.232 170.676 27.616C171.316 27.9893 171.818 28.5173 172.18 29.2C172.543 29.8827 172.724 30.6667 172.724 31.552C172.724 32.4373 172.543 33.232 172.18 33.936C171.818 34.6293 171.316 35.1733 170.676 35.568C170.047 35.952 169.348 36.144 168.58 36.144C167.908 36.144 167.311 36.0107 166.788 35.744C166.266 35.4667 165.839 35.1253 165.508 34.72V40.192H163.684V27.184H165.508V28.48ZM170.868 31.552C170.868 30.944 170.74 30.4213 170.484 29.984C170.239 29.536 169.908 29.2 169.492 28.976C169.087 28.7413 168.65 28.624 168.18 28.624C167.722 28.624 167.284 28.7413 166.868 28.976C166.463 29.2107 166.132 29.552 165.876 30C165.631 30.448 165.508 30.976 165.508 31.584C165.508 32.192 165.631 32.7253 165.876 33.184C166.132 33.632 166.463 33.9733 166.868 34.208C167.284 34.4427 167.722 34.56 168.18 34.56C168.65 34.56 169.087 34.4427 169.492 34.208C169.908 33.9627 170.239 33.6107 170.484 33.152C170.74 32.6933 170.868 32.16 170.868 31.552ZM173.92 31.552C173.92 30.6667 174.101 29.8827 174.464 29.2C174.837 28.5173 175.339 27.9893 175.968 27.616C176.608 27.232 177.312 27.04 178.08 27.04C178.773 27.04 179.376 27.1787 179.888 27.456C180.411 27.7227 180.827 28.0587 181.136 28.464V27.184H182.976V36H181.136V34.688C180.827 35.104 180.405 35.4507 179.872 35.728C179.339 36.0053 178.731 36.144 178.048 36.144C177.291 36.144 176.597 35.952 175.968 35.568C175.339 35.1733 174.837 34.6293 174.464 33.936C174.101 33.232 173.92 32.4373 173.92 31.552ZM181.136 31.584C181.136 30.976 181.008 30.448 180.752 30C180.507 29.552 180.181 29.2107 179.776 28.976C179.371 28.7413 178.933 28.624 178.464 28.624C177.995 28.624 177.557 28.7413 177.152 28.976C176.747 29.2 176.416 29.536 176.16 29.984C175.915 30.4213 175.792 30.944 175.792 31.552C175.792 32.16 175.915 32.6933 176.16 33.152C176.416 33.6107 176.747 33.9627 177.152 34.208C177.568 34.4427 178.005 34.56 178.464 34.56C178.933 34.56 179.371 34.4427 179.776 34.208C180.181 33.9733 180.507 33.632 180.752 33.184C181.008 32.7253 181.136 32.192 181.136 31.584ZM187.196 28.464C187.463 28.016 187.815 27.6693 188.252 27.424C188.7 27.168 189.228 27.04 189.836 27.04V28.928H189.372C188.657 28.928 188.113 29.1093 187.74 29.472C187.377 29.8347 187.196 30.464 187.196 31.36V36H185.372V27.184H187.196V28.464ZM190.905 31.552C190.905 30.6667 191.086 29.8827 191.449 29.2C191.822 28.5173 192.323 27.9893 192.953 27.616C193.593 27.232 194.297 27.04 195.065 27.04C195.758 27.04 196.361 27.1787 196.873 27.456C197.395 27.7227 197.811 28.0587 198.121 28.464V27.184H199.961V36H198.121V34.688C197.811 35.104 197.39 35.4507 196.857 35.728C196.323 36.0053 195.715 36.144 195.033 36.144C194.275 36.144 193.582 35.952 192.953 35.568C192.323 35.1733 191.822 34.6293 191.449 33.936C191.086 33.232 190.905 32.4373 190.905 31.552ZM198.121 31.584C198.121 30.976 197.993 30.448 197.737 30C197.491 29.552 197.166 29.2107 196.761 28.976C196.355 28.7413 195.918 28.624 195.449 28.624C194.979 28.624 194.542 28.7413 194.137 28.976C193.731 29.2 193.401 29.536 193.145 29.984C192.899 30.4213 192.777 30.944 192.777 31.552C192.777 32.16 192.899 32.6933 193.145 33.152C193.401 33.6107 193.731 33.9627 194.137 34.208C194.553 34.4427 194.99 34.56 195.449 34.56C195.918 34.56 196.355 34.4427 196.761 34.208C197.166 33.9733 197.491 33.632 197.737 33.184C197.993 32.7253 198.121 32.192 198.121 31.584ZM210.177 36.112C209.43 36.112 208.758 35.984 208.161 35.728C207.563 35.4613 207.094 35.088 206.753 34.608C206.411 34.128 206.241 33.568 206.241 32.928H208.193C208.235 33.408 208.422 33.8027 208.753 34.112C209.094 34.4213 209.569 34.576 210.177 34.576C210.806 34.576 211.297 34.4267 211.649 34.128C212.001 33.8187 212.177 33.424 212.177 32.944C212.177 32.5707 212.065 32.2667 211.841 32.032C211.627 31.7973 211.355 31.616 211.025 31.488C210.705 31.36 210.257 31.2213 209.681 31.072C208.955 30.88 208.363 30.688 207.905 30.496C207.457 30.2933 207.073 29.984 206.753 29.568C206.433 29.152 206.273 28.5973 206.273 27.904C206.273 27.264 206.433 26.704 206.753 26.224C207.073 25.744 207.521 25.376 208.097 25.12C208.673 24.864 209.339 24.736 210.097 24.736C211.174 24.736 212.054 25.008 212.737 25.552C213.43 26.0853 213.814 26.8213 213.889 27.76H211.873C211.841 27.3547 211.649 27.008 211.297 26.72C210.945 26.432 210.481 26.288 209.905 26.288C209.382 26.288 208.955 26.4213 208.625 26.688C208.294 26.9547 208.129 27.3387 208.129 27.84C208.129 28.1813 208.23 28.464 208.433 28.688C208.646 28.9013 208.913 29.072 209.233 29.2C209.553 29.328 209.99 29.4667 210.545 29.616C211.281 29.8187 211.878 30.0213 212.337 30.224C212.806 30.4267 213.201 30.7413 213.521 31.168C213.851 31.584 214.017 32.144 214.017 32.848C214.017 33.4133 213.862 33.9467 213.553 34.448C213.254 34.9493 212.811 35.3547 212.225 35.664C211.649 35.9627 210.966 36.112 210.177 36.112ZM215.561 31.584C215.561 30.6773 215.742 29.8827 216.105 29.2C216.478 28.5067 216.99 27.9733 217.641 27.6C218.291 27.2267 219.038 27.04 219.881 27.04C220.947 27.04 221.827 27.296 222.521 27.808C223.225 28.3093 223.699 29.0293 223.945 29.968H221.977C221.817 29.5307 221.561 29.1893 221.209 28.944C220.857 28.6987 220.414 28.576 219.881 28.576C219.134 28.576 218.537 28.8427 218.089 29.376C217.651 29.8987 217.433 30.6347 217.433 31.584C217.433 32.5333 217.651 33.2747 218.089 33.808C218.537 34.3413 219.134 34.608 219.881 34.608C220.937 34.608 221.635 34.144 221.977 33.216H223.945C223.689 34.112 223.209 34.8267 222.505 35.36C221.801 35.8827 220.926 36.144 219.881 36.144C219.038 36.144 218.291 35.9573 217.641 35.584C216.99 35.2 216.478 34.6667 216.105 33.984C215.742 33.2907 215.561 32.4907 215.561 31.584ZM225.155 31.552C225.155 30.6667 225.336 29.8827 225.699 29.2C226.072 28.5173 226.573 27.9893 227.203 27.616C227.843 27.232 228.547 27.04 229.315 27.04C230.008 27.04 230.611 27.1787 231.123 27.456C231.645 27.7227 232.061 28.0587 232.371 28.464V27.184H234.211V36H232.371V34.688C232.061 35.104 231.64 35.4507 231.107 35.728C230.573 36.0053 229.965 36.144 229.283 36.144C228.525 36.144 227.832 35.952 227.203 35.568C226.573 35.1733 226.072 34.6293 225.699 33.936C225.336 33.232 225.155 32.4373 225.155 31.552ZM232.371 31.584C232.371 30.976 232.243 30.448 231.987 30C231.741 29.552 231.416 29.2107 231.011 28.976C230.605 28.7413 230.168 28.624 229.699 28.624C229.229 28.624 228.792 28.7413 228.387 28.976C227.981 29.2 227.651 29.536 227.395 29.984C227.149 30.4213 227.027 30.944 227.027 31.552C227.027 32.16 227.149 32.6933 227.395 33.152C227.651 33.6107 227.981 33.9627 228.387 34.208C228.803 34.4427 229.24 34.56 229.699 34.56C230.168 34.56 230.605 34.4427 231.011 34.208C231.416 33.9733 231.741 33.632 231.987 33.184C232.243 32.7253 232.371 32.192 232.371 31.584ZM241.054 27.04C241.748 27.04 242.366 27.184 242.91 27.472C243.465 27.76 243.897 28.1867 244.206 28.752C244.516 29.3173 244.67 30 244.67 30.8V36H242.862V31.072C242.862 30.2827 242.665 29.68 242.27 29.264C241.876 28.8373 241.337 28.624 240.654 28.624C239.972 28.624 239.428 28.8373 239.022 29.264C238.628 29.68 238.43 30.2827 238.43 31.072V36H236.606V27.184H238.43V28.192C238.729 27.8293 239.108 27.5467 239.566 27.344C240.036 27.1413 240.532 27.04 241.054 27.04ZM260.737 24.88L256.561 36H254.449L250.257 24.88H252.209L255.505 34.128L258.817 24.88H260.737ZM263.191 26.016C262.86 26.016 262.583 25.904 262.359 25.68C262.135 25.456 262.023 25.1787 262.023 24.848C262.023 24.5173 262.135 24.24 262.359 24.016C262.583 23.792 262.86 23.68 263.191 23.68C263.511 23.68 263.783 23.792 264.007 24.016C264.231 24.24 264.343 24.5173 264.343 24.848C264.343 25.1787 264.231 25.456 264.007 25.68C263.783 25.904 263.511 26.016 263.191 26.016ZM264.087 27.184V36H262.263V27.184H264.087ZM265.873 31.552C265.873 30.6667 266.055 29.8827 266.417 29.2C266.791 28.5173 267.292 27.9893 267.921 27.616C268.561 27.232 269.265 27.04 270.033 27.04C270.727 27.04 271.329 27.1787 271.841 27.456C272.364 27.7227 272.78 28.0587 273.089 28.464V27.184H274.929V36H273.089V34.688C272.78 35.104 272.359 35.4507 271.825 35.728C271.292 36.0053 270.684 36.144 270.001 36.144C269.244 36.144 268.551 35.952 267.921 35.568C267.292 35.1733 266.791 34.6293 266.417 33.936C266.055 33.232 265.873 32.4373 265.873 31.552ZM273.089 31.584C273.089 30.976 272.961 30.448 272.705 30C272.46 29.552 272.135 29.2107 271.729 28.976C271.324 28.7413 270.887 28.624 270.417 28.624C269.948 28.624 269.511 28.7413 269.105 28.976C268.7 29.2 268.369 29.536 268.113 29.984C267.868 30.4213 267.745 30.944 267.745 31.552C267.745 32.16 267.868 32.6933 268.113 33.152C268.369 33.6107 268.7 33.9627 269.105 34.208C269.521 34.4427 269.959 34.56 270.417 34.56C270.887 34.56 271.324 34.4427 271.729 34.208C272.135 33.9733 272.46 33.632 272.705 33.184C272.961 32.7253 273.089 32.192 273.089 31.584ZM290.617 36H288.793L283.305 27.696V36H281.481V24.864H283.305L288.793 33.152V24.864H290.617V36ZM299.557 24.88V26.368H294.837V29.648H298.517V31.136H294.837V36H293.013V24.88H299.557ZM300.639 30.416C300.639 29.328 300.89 28.352 301.391 27.488C301.903 26.624 302.591 25.952 303.455 25.472C304.33 24.9813 305.284 24.736 306.319 24.736C307.503 24.736 308.554 25.0293 309.471 25.616C310.399 26.192 311.071 27.0133 311.487 28.08H309.295C309.007 27.4933 308.607 27.056 308.095 26.768C307.583 26.48 306.991 26.336 306.319 26.336C305.583 26.336 304.927 26.5013 304.351 26.832C303.775 27.1627 303.322 27.6373 302.991 28.256C302.671 28.8747 302.511 29.5947 302.511 30.416C302.511 31.2373 302.671 31.9573 302.991 32.576C303.322 33.1947 303.775 33.6747 304.351 34.016C304.927 34.3467 305.583 34.512 306.319 34.512C306.991 34.512 307.583 34.368 308.095 34.08C308.607 33.792 309.007 33.3547 309.295 32.768H311.487C311.071 33.8347 310.399 34.656 309.471 35.232C308.554 35.808 307.503 36.096 306.319 36.096C305.274 36.096 304.319 35.856 303.455 35.376C302.591 34.8853 301.903 34.208 301.391 33.344C300.89 32.48 300.639 31.504 300.639 30.416Z" fill="#FAFAFA"/>
</svg>
