<svg width="198" height="173" viewBox="0 0 198 173" fill="none" xmlns="http://www.w3.org/2000/svg">
<g filter="url(#filter0_d_262_5235)">
<rect x="13.5" y="12.5" width="171" height="146" rx="4.5" stroke="black" stroke-opacity="0.3" shape-rendering="crispEdges"/>
<path d="M65.688 122.416C65.688 121.328 65.9333 120.352 66.424 119.488C66.9147 118.613 67.5813 117.931 68.424 117.44C69.2773 116.949 70.2213 116.704 71.256 116.704C72.472 116.704 73.5333 116.997 74.44 117.584C75.3467 118.171 76.008 119.003 76.424 120.08H74.68C74.3707 119.408 73.9227 118.891 73.336 118.528C72.76 118.165 72.0667 117.984 71.256 117.984C70.4773 117.984 69.7787 118.165 69.16 118.528C68.5413 118.891 68.056 119.408 67.704 120.08C67.352 120.741 67.176 121.52 67.176 122.416C67.176 123.301 67.352 124.08 67.704 124.752C68.056 125.413 68.5413 125.925 69.16 126.288C69.7787 126.651 70.4773 126.832 71.256 126.832C72.0667 126.832 72.76 126.656 73.336 126.304C73.9227 125.941 74.3707 125.424 74.68 124.752H76.424C76.008 125.819 75.3467 126.645 74.44 127.232C73.5333 127.808 72.472 128.096 71.256 128.096C70.2213 128.096 69.2773 127.856 68.424 127.376C67.5813 126.885 66.9147 126.208 66.424 125.344C65.9333 124.48 65.688 123.504 65.688 122.416ZM78.0474 123.584C78.0474 122.688 78.2287 121.904 78.5914 121.232C78.954 120.549 79.45 120.021 80.0794 119.648C80.7194 119.275 81.4287 119.088 82.2074 119.088C82.9754 119.088 83.642 119.253 84.2074 119.584C84.7727 119.915 85.194 120.331 85.4714 120.832V119.232H86.9434V128H85.4714V126.368C85.1834 126.88 84.7514 127.307 84.1754 127.648C83.61 127.979 82.9487 128.144 82.1914 128.144C81.4127 128.144 80.7087 127.952 80.0794 127.568C79.45 127.184 78.954 126.645 78.5914 125.952C78.2287 125.259 78.0474 124.469 78.0474 123.584ZM85.4714 123.6C85.4714 122.939 85.338 122.363 85.0714 121.872C84.8047 121.381 84.442 121.008 83.9834 120.752C83.5354 120.485 83.0394 120.352 82.4954 120.352C81.9514 120.352 81.4554 120.48 81.0074 120.736C80.5594 120.992 80.202 121.365 79.9354 121.856C79.6687 122.347 79.5354 122.923 79.5354 123.584C79.5354 124.256 79.6687 124.843 79.9354 125.344C80.202 125.835 80.5594 126.213 81.0074 126.48C81.4554 126.736 81.9514 126.864 82.4954 126.864C83.0394 126.864 83.5354 126.736 83.9834 126.48C84.442 126.213 84.8047 125.835 85.0714 125.344C85.338 124.843 85.4714 124.261 85.4714 123.6ZM99.9479 119.072C100.631 119.072 101.239 119.216 101.772 119.504C102.305 119.781 102.727 120.203 103.036 120.768C103.345 121.333 103.5 122.021 103.5 122.832V128H102.06V123.04C102.06 122.165 101.841 121.499 101.404 121.04C100.977 120.571 100.396 120.336 99.6599 120.336C98.9025 120.336 98.2999 120.581 97.8519 121.072C97.4039 121.552 97.1799 122.251 97.1799 123.168V128H95.7399V123.04C95.7399 122.165 95.5212 121.499 95.0839 121.04C94.6572 120.571 94.0759 120.336 93.3399 120.336C92.5825 120.336 91.9799 120.581 91.5319 121.072C91.0839 121.552 90.8599 122.251 90.8599 123.168V128H89.4039V119.232H90.8599V120.496C91.1479 120.037 91.5319 119.685 92.0119 119.44C92.5025 119.195 93.0412 119.072 93.6279 119.072C94.3639 119.072 95.0145 119.237 95.5799 119.568C96.1452 119.899 96.5665 120.384 96.8439 121.024C97.0892 120.405 97.4945 119.925 98.0599 119.584C98.6252 119.243 99.2545 119.072 99.9479 119.072ZM113.888 123.28C113.888 123.557 113.872 123.851 113.84 124.16H106.832C106.886 125.024 107.179 125.701 107.712 126.192C108.256 126.672 108.912 126.912 109.68 126.912C110.31 126.912 110.832 126.768 111.248 126.48C111.675 126.181 111.974 125.787 112.144 125.296H113.712C113.478 126.139 113.008 126.827 112.304 127.36C111.6 127.883 110.726 128.144 109.68 128.144C108.848 128.144 108.102 127.957 107.44 127.584C106.79 127.211 106.278 126.683 105.904 126C105.531 125.307 105.344 124.507 105.344 123.6C105.344 122.693 105.526 121.899 105.888 121.216C106.251 120.533 106.758 120.011 107.408 119.648C108.07 119.275 108.827 119.088 109.68 119.088C110.512 119.088 111.248 119.269 111.888 119.632C112.528 119.995 113.019 120.496 113.36 121.136C113.712 121.765 113.888 122.48 113.888 123.28ZM112.384 122.976C112.384 122.421 112.262 121.947 112.016 121.552C111.771 121.147 111.435 120.843 111.008 120.64C110.592 120.427 110.128 120.32 109.616 120.32C108.88 120.32 108.251 120.555 107.728 121.024C107.216 121.493 106.923 122.144 106.848 122.976H112.384ZM117.266 120.656C117.522 120.155 117.885 119.765 118.354 119.488C118.834 119.211 119.415 119.072 120.098 119.072V120.576H119.714C118.082 120.576 117.266 121.461 117.266 123.232V128H115.81V119.232H117.266V120.656ZM121.235 123.584C121.235 122.688 121.416 121.904 121.779 121.232C122.142 120.549 122.638 120.021 123.267 119.648C123.907 119.275 124.616 119.088 125.395 119.088C126.163 119.088 126.83 119.253 127.395 119.584C127.96 119.915 128.382 120.331 128.659 120.832V119.232H130.131V128H128.659V126.368C128.371 126.88 127.939 127.307 127.363 127.648C126.798 127.979 126.136 128.144 125.379 128.144C124.6 128.144 123.896 127.952 123.267 127.568C122.638 127.184 122.142 126.645 121.779 125.952C121.416 125.259 121.235 124.469 121.235 123.584ZM128.659 123.6C128.659 122.939 128.526 122.363 128.259 121.872C127.992 121.381 127.63 121.008 127.171 120.752C126.723 120.485 126.227 120.352 125.683 120.352C125.139 120.352 124.643 120.48 124.195 120.736C123.747 120.992 123.39 121.365 123.123 121.856C122.856 122.347 122.723 122.923 122.723 123.584C122.723 124.256 122.856 124.843 123.123 125.344C123.39 125.835 123.747 126.213 124.195 126.48C124.643 126.736 125.139 126.864 125.683 126.864C126.227 126.864 126.723 126.736 127.171 126.48C127.63 126.213 127.992 125.835 128.259 125.344C128.526 124.843 128.659 124.261 128.659 123.6Z" fill="black"/>
<g clip-path="url(#clip0_262_5235)">
<path d="M82.6667 54.3333H85C86.2377 54.3333 87.4247 53.8416 88.2998 52.9664C89.175 52.0912 89.6667 50.9043 89.6667 49.6666C89.6667 49.0477 89.9125 48.4543 90.3501 48.0167C90.7877 47.5791 91.3812 47.3333 92 47.3333H106C106.619 47.3333 107.212 47.5791 107.65 48.0167C108.087 48.4543 108.333 49.0477 108.333 49.6666C108.333 50.9043 108.825 52.0912 109.7 52.9664C110.575 53.8416 111.762 54.3333 113 54.3333H115.333C116.571 54.3333 117.758 54.8249 118.633 55.7001C119.508 56.5753 120 57.7622 120 58.9999V79.9999C120 81.2376 119.508 82.4246 118.633 83.2997C117.758 84.1749 116.571 84.6666 115.333 84.6666H82.6667C81.429 84.6666 80.242 84.1749 79.3668 83.2997C78.4917 82.4246 78 81.2376 78 79.9999V58.9999C78 57.7622 78.4917 56.5753 79.3668 55.7001C80.242 54.8249 81.429 54.3333 82.6667 54.3333" stroke="black" stroke-width="2" stroke-linecap="round" stroke-linejoin="round"/>
<path d="M99 75.3333C102.866 75.3333 106 72.1992 106 68.3333C106 64.4673 102.866 61.3333 99 61.3333C95.134 61.3333 92 64.4673 92 68.3333C92 72.1992 95.134 75.3333 99 75.3333Z" stroke="black" stroke-width="2" stroke-linecap="round" stroke-linejoin="round"/>
</g>
</g>
<defs>
<filter id="filter0_d_262_5235" x="0" y="0" width="198" height="173" filterUnits="userSpaceOnUse" color-interpolation-filters="sRGB">
<feFlood flood-opacity="0" result="BackgroundImageFix"/>
<feColorMatrix in="SourceAlpha" type="matrix" values="0 0 0 0 0 0 0 0 0 0 0 0 0 0 0 0 0 0 127 0" result="hardAlpha"/>
<feOffset dy="1"/>
<feGaussianBlur stdDeviation="6.5"/>
<feComposite in2="hardAlpha" operator="out"/>
<feColorMatrix type="matrix" values="0 0 0 0 0 0 0 0 0 0 0 0 0 0 0 0 0 0 0.05 0"/>
<feBlend mode="normal" in2="BackgroundImageFix" result="effect1_dropShadow_262_5235"/>
<feBlend mode="normal" in="SourceGraphic" in2="effect1_dropShadow_262_5235" result="shape"/>
</filter>
<clipPath id="clip0_262_5235">
<rect width="56" height="56" fill="white" transform="translate(71 38)"/>
</clipPath>
</defs>
</svg>
