<svg width="170" height="145" viewBox="0 0 170 145" fill="none" xmlns="http://www.w3.org/2000/svg">
<rect x="0.5" y="0.5" width="169" height="144" rx="3.5" stroke="black" stroke-opacity="0.3"/>
<path d="M25.1568 109.416C25.1568 108.328 25.4021 107.352 25.8928 106.488C26.3834 105.613 27.0501 104.931 27.8928 104.44C28.7461 103.949 29.6901 103.704 30.7248 103.704C31.9408 103.704 33.0021 103.997 33.9088 104.584C34.8154 105.171 35.4768 106.003 35.8928 107.08H34.1488C33.8394 106.408 33.3914 105.891 32.8048 105.528C32.2288 105.165 31.5354 104.984 30.7248 104.984C29.9461 104.984 29.2474 105.165 28.6288 105.528C28.0101 105.891 27.5248 106.408 27.1728 107.08C26.8208 107.741 26.6448 108.52 26.6448 109.416C26.6448 110.301 26.8208 111.08 27.1728 111.752C27.5248 112.413 28.0101 112.925 28.6288 113.288C29.2474 113.651 29.9461 113.832 30.7248 113.832C31.5354 113.832 32.2288 113.656 32.8048 113.304C33.3914 112.941 33.8394 112.424 34.1488 111.752H35.8928C35.4768 112.819 34.8154 113.645 33.9088 114.232C33.0021 114.808 31.9408 115.096 30.7248 115.096C29.6901 115.096 28.7461 114.856 27.8928 114.376C27.0501 113.885 26.3834 113.208 25.8928 112.344C25.4021 111.48 25.1568 110.504 25.1568 109.416ZM41.8841 115.144C41.0628 115.144 40.3161 114.957 39.6441 114.584C38.9828 114.211 38.4601 113.683 38.0761 113C37.7028 112.307 37.5161 111.507 37.5161 110.6C37.5161 109.704 37.7081 108.915 38.0921 108.232C38.4868 107.539 39.0201 107.011 39.6921 106.648C40.3641 106.275 41.1161 106.088 41.9481 106.088C42.7801 106.088 43.5321 106.275 44.2041 106.648C44.8761 107.011 45.4041 107.533 45.7881 108.216C46.1828 108.899 46.3801 109.693 46.3801 110.6C46.3801 111.507 46.1775 112.307 45.7721 113C45.3775 113.683 44.8388 114.211 44.1561 114.584C43.4735 114.957 42.7161 115.144 41.8841 115.144ZM41.8841 113.864C42.4068 113.864 42.8975 113.741 43.3561 113.496C43.8148 113.251 44.1828 112.883 44.4601 112.392C44.7481 111.901 44.8921 111.304 44.8921 110.6C44.8921 109.896 44.7535 109.299 44.4761 108.808C44.1988 108.317 43.8361 107.955 43.3881 107.72C42.9401 107.475 42.4548 107.352 41.9321 107.352C41.3988 107.352 40.9081 107.475 40.4601 107.72C40.0228 107.955 39.6708 108.317 39.4041 108.808C39.1375 109.299 39.0041 109.896 39.0041 110.6C39.0041 111.315 39.1321 111.917 39.3881 112.408C39.6548 112.899 40.0068 113.267 40.4441 113.512C40.8815 113.747 41.3615 113.864 41.8841 113.864ZM58.8385 106.072C59.5212 106.072 60.1292 106.216 60.6625 106.504C61.1958 106.781 61.6172 107.203 61.9265 107.768C62.2358 108.333 62.3905 109.021 62.3905 109.832V115H60.9505V110.04C60.9505 109.165 60.7318 108.499 60.2945 108.04C59.8678 107.571 59.2865 107.336 58.5505 107.336C57.7932 107.336 57.1905 107.581 56.7425 108.072C56.2945 108.552 56.0705 109.251 56.0705 110.168V115H54.6305V110.04C54.6305 109.165 54.4118 108.499 53.9745 108.04C53.5478 107.571 52.9665 107.336 52.2305 107.336C51.4732 107.336 50.8705 107.581 50.4225 108.072C49.9745 108.552 49.7505 109.251 49.7505 110.168V115H48.2945V106.232H49.7505V107.496C50.0385 107.037 50.4225 106.685 50.9025 106.44C51.3932 106.195 51.9318 106.072 52.5185 106.072C53.2545 106.072 53.9052 106.237 54.4705 106.568C55.0358 106.899 55.4572 107.384 55.7345 108.024C55.9798 107.405 56.3852 106.925 56.9505 106.584C57.5158 106.243 58.1452 106.072 58.8385 106.072ZM66.2349 107.848C66.5229 107.347 66.9495 106.931 67.5149 106.6C68.0909 106.259 68.7575 106.088 69.5149 106.088C70.2935 106.088 70.9975 106.275 71.6269 106.648C72.2669 107.021 72.7682 107.549 73.1309 108.232C73.4935 108.904 73.6749 109.688 73.6749 110.584C73.6749 111.469 73.4935 112.259 73.1309 112.952C72.7682 113.645 72.2669 114.184 71.6269 114.568C70.9975 114.952 70.2935 115.144 69.5149 115.144C68.7682 115.144 68.1069 114.979 67.5309 114.648C66.9655 114.307 66.5335 113.885 66.2349 113.384V119.16H64.7789V106.232H66.2349V107.848ZM72.1869 110.584C72.1869 109.923 72.0535 109.347 71.7869 108.856C71.5202 108.365 71.1575 107.992 70.6989 107.736C70.2509 107.48 69.7549 107.352 69.2109 107.352C68.6775 107.352 68.1815 107.485 67.7229 107.752C67.2749 108.008 66.9122 108.387 66.6349 108.888C66.3682 109.379 66.2349 109.949 66.2349 110.6C66.2349 111.261 66.3682 111.843 66.6349 112.344C66.9122 112.835 67.2749 113.213 67.7229 113.48C68.1815 113.736 68.6775 113.864 69.2109 113.864C69.7549 113.864 70.2509 113.736 70.6989 113.48C71.1575 113.213 71.5202 112.835 71.7869 112.344C72.0535 111.843 72.1869 111.256 72.1869 110.584ZM83.3674 106.232V115H81.9114V113.704C81.634 114.152 81.2447 114.504 80.7434 114.76C80.2527 115.005 79.7087 115.128 79.1114 115.128C78.4287 115.128 77.8154 114.989 77.2714 114.712C76.7274 114.424 76.2954 113.997 75.9754 113.432C75.666 112.867 75.5114 112.179 75.5114 111.368V106.232H76.9514V111.176C76.9514 112.04 77.17 112.707 77.6074 113.176C78.0447 113.635 78.642 113.864 79.3994 113.864C80.178 113.864 80.7914 113.624 81.2394 113.144C81.6874 112.664 81.9114 111.965 81.9114 111.048V106.232H83.3674ZM87.6018 107.432V112.6C87.6018 113.027 87.6924 113.331 87.8738 113.512C88.0551 113.683 88.3698 113.768 88.8177 113.768H89.8898V115H88.5778C87.7671 115 87.1591 114.813 86.7538 114.44C86.3484 114.067 86.1458 113.453 86.1458 112.6V107.432H85.0098V106.232H86.1458V104.024H87.6018V106.232H89.8898V107.432H87.6018ZM91.1099 110.584C91.1099 109.688 91.2912 108.904 91.6539 108.232C92.0165 107.549 92.5125 107.021 93.1419 106.648C93.7819 106.275 94.4912 106.088 95.2699 106.088C96.0379 106.088 96.7045 106.253 97.2699 106.584C97.8352 106.915 98.2565 107.331 98.5339 107.832V106.232H100.006V115H98.5339V113.368C98.2459 113.88 97.8139 114.307 97.2379 114.648C96.6725 114.979 96.0112 115.144 95.2539 115.144C94.4752 115.144 93.7712 114.952 93.1419 114.568C92.5125 114.184 92.0165 113.645 91.6539 112.952C91.2912 112.259 91.1099 111.469 91.1099 110.584ZM98.5339 110.6C98.5339 109.939 98.4005 109.363 98.1339 108.872C97.8672 108.381 97.5045 108.008 97.0459 107.752C96.5979 107.485 96.1019 107.352 95.5579 107.352C95.0139 107.352 94.5179 107.48 94.0699 107.736C93.6219 107.992 93.2645 108.365 92.9979 108.856C92.7312 109.347 92.5979 109.923 92.5979 110.584C92.5979 111.256 92.7312 111.843 92.9979 112.344C93.2645 112.835 93.6219 113.213 94.0699 113.48C94.5179 113.736 95.0139 113.864 95.5579 113.864C96.1019 113.864 96.5979 113.736 97.0459 113.48C97.5045 113.213 97.8672 112.835 98.1339 112.344C98.4005 111.843 98.5339 111.261 98.5339 110.6ZM101.922 110.584C101.922 109.688 102.104 108.904 102.466 108.232C102.829 107.549 103.325 107.021 103.954 106.648C104.594 106.275 105.309 106.088 106.098 106.088C106.781 106.088 107.416 106.248 108.002 106.568C108.589 106.877 109.037 107.288 109.346 107.8V103.16H110.818V115H109.346V113.352C109.058 113.875 108.632 114.307 108.066 114.648C107.501 114.979 106.84 115.144 106.082 115.144C105.304 115.144 104.594 114.952 103.954 114.568C103.325 114.184 102.829 113.645 102.466 112.952C102.104 112.259 101.922 111.469 101.922 110.584ZM109.346 110.6C109.346 109.939 109.213 109.363 108.946 108.872C108.68 108.381 108.317 108.008 107.858 107.752C107.41 107.485 106.914 107.352 106.37 107.352C105.826 107.352 105.33 107.48 104.882 107.736C104.434 107.992 104.077 108.365 103.81 108.856C103.544 109.347 103.41 109.923 103.41 110.584C103.41 111.256 103.544 111.843 103.81 112.344C104.077 112.835 104.434 113.213 104.882 113.48C105.33 113.736 105.826 113.864 106.37 113.864C106.914 113.864 107.41 113.736 107.858 113.48C108.317 113.213 108.68 112.835 108.946 112.344C109.213 111.843 109.346 111.261 109.346 110.6ZM117.103 115.144C116.282 115.144 115.535 114.957 114.863 114.584C114.202 114.211 113.679 113.683 113.295 113C112.922 112.307 112.735 111.507 112.735 110.6C112.735 109.704 112.927 108.915 113.311 108.232C113.706 107.539 114.239 107.011 114.911 106.648C115.583 106.275 116.335 106.088 117.167 106.088C117.999 106.088 118.751 106.275 119.423 106.648C120.095 107.011 120.623 107.533 121.007 108.216C121.402 108.899 121.599 109.693 121.599 110.6C121.599 111.507 121.396 112.307 120.991 113C120.596 113.683 120.058 114.211 119.375 114.584C118.692 114.957 117.935 115.144 117.103 115.144ZM117.103 113.864C117.626 113.864 118.116 113.741 118.575 113.496C119.034 113.251 119.402 112.883 119.679 112.392C119.967 111.901 120.111 111.304 120.111 110.6C120.111 109.896 119.972 109.299 119.695 108.808C119.418 108.317 119.055 107.955 118.607 107.72C118.159 107.475 117.674 107.352 117.151 107.352C116.618 107.352 116.127 107.475 115.679 107.72C115.242 107.955 114.89 108.317 114.623 108.808C114.356 109.299 114.223 109.896 114.223 110.6C114.223 111.315 114.351 111.917 114.607 112.408C114.874 112.899 115.226 113.267 115.663 113.512C116.1 113.747 116.58 113.864 117.103 113.864ZM124.969 107.656C125.225 107.155 125.588 106.765 126.057 106.488C126.537 106.211 127.119 106.072 127.801 106.072V107.576H127.417C125.785 107.576 124.969 108.461 124.969 110.232V115H123.513V106.232H124.969V107.656ZM137.482 110.28C137.482 110.557 137.466 110.851 137.434 111.16H130.426C130.479 112.024 130.773 112.701 131.306 113.192C131.85 113.672 132.506 113.912 133.274 113.912C133.903 113.912 134.426 113.768 134.842 113.48C135.269 113.181 135.567 112.787 135.738 112.296H137.306C137.071 113.139 136.602 113.827 135.898 114.36C135.194 114.883 134.319 115.144 133.274 115.144C132.442 115.144 131.695 114.957 131.034 114.584C130.383 114.211 129.871 113.683 129.498 113C129.125 112.307 128.938 111.507 128.938 110.6C128.938 109.693 129.119 108.899 129.482 108.216C129.845 107.533 130.351 107.011 131.002 106.648C131.663 106.275 132.421 106.088 133.274 106.088C134.106 106.088 134.842 106.269 135.482 106.632C136.122 106.995 136.613 107.496 136.954 108.136C137.306 108.765 137.482 109.48 137.482 110.28ZM135.978 109.976C135.978 109.421 135.855 108.947 135.61 108.552C135.365 108.147 135.029 107.843 134.602 107.64C134.186 107.427 133.722 107.32 133.21 107.32C132.474 107.32 131.845 107.555 131.322 108.024C130.81 108.493 130.517 109.144 130.442 109.976H135.978ZM142.508 115.144C141.836 115.144 141.233 115.032 140.7 114.808C140.167 114.573 139.745 114.253 139.436 113.848C139.127 113.432 138.956 112.957 138.924 112.424H140.428C140.471 112.861 140.673 113.219 141.036 113.496C141.409 113.773 141.895 113.912 142.492 113.912C143.047 113.912 143.484 113.789 143.804 113.544C144.124 113.299 144.284 112.989 144.284 112.616C144.284 112.232 144.113 111.949 143.772 111.768C143.431 111.576 142.903 111.389 142.188 111.208C141.537 111.037 141.004 110.867 140.588 110.696C140.183 110.515 139.831 110.253 139.532 109.912C139.244 109.56 139.1 109.101 139.1 108.536C139.1 108.088 139.233 107.677 139.5 107.304C139.767 106.931 140.145 106.637 140.636 106.424C141.127 106.2 141.687 106.088 142.316 106.088C143.287 106.088 144.071 106.333 144.668 106.824C145.265 107.315 145.585 107.987 145.628 108.84H144.172C144.14 108.381 143.953 108.013 143.612 107.736C143.281 107.459 142.833 107.32 142.268 107.32C141.745 107.32 141.329 107.432 141.02 107.656C140.711 107.88 140.556 108.173 140.556 108.536C140.556 108.824 140.647 109.064 140.828 109.256C141.02 109.437 141.255 109.587 141.532 109.704C141.82 109.811 142.215 109.933 142.716 110.072C143.345 110.243 143.857 110.413 144.252 110.584C144.647 110.744 144.983 110.989 145.26 111.32C145.548 111.651 145.697 112.083 145.708 112.616C145.708 113.096 145.575 113.528 145.308 113.912C145.041 114.296 144.663 114.6 144.172 114.824C143.692 115.037 143.137 115.144 142.508 115.144Z" fill="black"/>
<g clip-path="url(#clip0_85_1654)">
<path d="M104.667 34.3333H67.3333C66.0447 34.3333 65 35.3779 65 36.6666V59.9999C65 61.2886 66.0447 62.3333 67.3333 62.3333H104.667C105.955 62.3333 107 61.2886 107 59.9999V36.6666C107 35.3779 105.955 34.3333 104.667 34.3333Z" stroke="black" stroke-width="2" stroke-linecap="round" stroke-linejoin="round"/>
<path d="M74.333 71.6667H97.6663" stroke="black" stroke-width="2" stroke-linecap="round" stroke-linejoin="round"/>
<path d="M79 62.3333V71.6666" stroke="black" stroke-width="2" stroke-linecap="round" stroke-linejoin="round"/>
<path d="M93 62.3333V71.6666" stroke="black" stroke-width="2" stroke-linecap="round" stroke-linejoin="round"/>
<path d="M66 57H106" stroke="black" stroke-width="2" stroke-linecap="round"/>
</g>
<defs>
<clipPath id="clip0_85_1654">
<rect width="56" height="56" fill="white" transform="translate(58 25)"/>
</clipPath>
</defs>
</svg>
