<svg width="240" height="123" viewBox="0 0 240 123" fill="none" xmlns="http://www.w3.org/2000/svg">
<path fill-rule="evenodd" clip-rule="evenodd" d="M119.432 0C137.609 0 152.344 14.7329 152.344 32.9074C152.344 51.0819 137.609 65.8148 119.432 65.8148C101.254 65.8148 86.5194 51.0819 86.5194 32.9074C86.5194 14.7329 101.254 0 119.432 0ZM119.432 6.63742C133.946 6.63742 145.714 18.3949 145.714 32.9074C145.714 47.4199 133.946 59.1858 119.432 59.1858C104.917 59.1858 93.1493 47.4199 93.1493 32.9074C93.1493 18.3949 104.917 6.63742 119.432 6.63742ZM126.341 39.4261C128.215 37.4341 131.352 37.3408 133.353 39.2142C135.345 41.0961 135.438 44.2325 133.565 46.2246C131.742 48.1658 129.538 49.7002 127.104 50.7513C124.663 51.8109 122.034 52.3704 119.381 52.3704C114.006 52.3704 109.139 50.1918 105.621 46.6739C102.102 43.1475 99.9234 38.2817 99.9234 32.9074C99.9234 27.533 102.102 22.6673 105.621 19.1494C109.139 15.6314 114.006 13.4529 119.381 13.4529C121.89 13.4529 124.383 13.953 126.731 14.9109C129.063 15.8688 131.199 17.259 133.014 19.0307C134.964 20.9549 134.989 24.0914 133.065 26.0411C131.148 27.9908 128.012 28.0162 126.062 26.1004C125.154 25.2188 124.12 24.5322 123.001 24.0744C121.899 23.6252 120.669 23.3878 119.381 23.3878C116.753 23.3878 114.37 24.4559 112.649 26.1767C110.928 27.8975 109.86 30.2795 109.86 32.9074C109.86 35.5437 110.928 37.9172 112.649 39.6465C114.37 41.3673 116.753 42.427 119.381 42.427C120.737 42.427 122.026 42.1642 123.179 41.664C124.349 41.1639 125.426 40.401 126.341 39.4261ZM119.432 29.2538C121.449 29.2538 123.086 30.8899 123.086 32.9074C123.086 34.9249 121.449 36.5694 119.432 36.5694C117.414 36.5694 115.778 34.9249 115.778 32.9074C115.778 30.8899 117.414 29.2538 119.432 29.2538Z" fill="#E31E24"/>
<path d="M17.8635 114.099C19.3472 112.777 21.6278 112.913 22.9504 114.396C24.2645 115.879 24.1373 118.151 22.6537 119.474C21.4074 120.584 19.9746 121.44 18.4485 122.025C16.9055 122.61 15.2692 122.924 13.6075 122.924C9.84315 122.924 6.44341 121.398 3.98474 118.94C1.51759 116.473 0 113.074 0 109.318C0 105.563 1.51759 102.155 3.98474 99.697C6.44341 97.2303 9.84315 95.7129 13.6075 95.7129C15.2861 95.7129 16.9479 96.035 18.5248 96.6454C20.0763 97.2472 21.5261 98.1458 22.7808 99.2986C24.2476 100.63 24.3493 102.901 23.0097 104.359C21.6702 105.826 19.4065 105.919 17.9398 104.588C17.3548 104.046 16.6766 103.63 15.9305 103.342C15.2183 103.062 14.4298 102.918 13.6075 102.918C11.8355 102.918 10.2331 103.63 9.08012 104.792C7.91861 105.945 7.20644 107.547 7.20644 109.318C7.20644 111.082 7.91861 112.684 9.08012 113.845C10.2331 114.998 11.8355 115.718 13.6075 115.718C14.3959 115.718 15.1674 115.574 15.8796 115.303C16.6087 115.023 17.2785 114.616 17.8635 114.099ZM40.3222 95.7129C44.078 95.7129 47.4862 97.2303 49.9449 99.697C52.412 102.155 53.9296 105.563 53.9296 109.318C53.9296 113.074 52.412 116.473 49.9449 118.94C47.4862 121.398 44.078 122.924 40.3222 122.924C36.5663 122.924 33.1666 121.398 30.6994 118.94C28.2408 116.473 26.7147 113.074 26.7147 109.318C26.7147 105.563 28.2408 102.155 30.6994 99.697C33.1666 97.2303 36.5663 95.7129 40.3222 95.7129ZM44.8495 104.792C43.6965 103.63 42.0941 102.918 40.3222 102.918C38.5587 102.918 36.9563 103.63 35.7948 104.792C34.6418 105.945 33.9212 107.547 33.9212 109.318C33.9212 111.082 34.6418 112.684 35.7948 113.845C36.9563 114.998 38.5587 115.718 40.3222 115.718C42.0941 115.718 43.6965 114.998 44.8495 113.845C46.011 112.684 46.7232 111.082 46.7232 109.318C46.7232 107.547 46.011 105.945 44.8495 104.792ZM56.6257 108.259V107.64C56.6257 107.403 56.6511 107.174 56.6935 106.945C56.9987 104.003 58.3213 101.367 60.2967 99.3834C62.5689 97.1116 65.7058 95.7129 69.1649 95.7129C72.624 95.7129 75.7609 97.1116 78.0331 99.3834C80.2967 101.655 81.7041 104.783 81.7041 108.242V119.397C81.7041 121.381 80.0848 123 78.1009 123C76.1085 123 74.4977 121.381 74.4977 119.397V108.242C74.4977 106.775 73.8957 105.444 72.9377 104.478C71.9712 103.512 70.6401 102.918 69.1649 102.918C67.6897 102.918 66.3586 103.512 65.3921 104.478C64.4341 105.436 63.8406 106.758 63.8321 108.216V119.397C63.8321 121.381 62.2213 123 60.2289 123C58.245 123 56.6257 121.381 56.6257 119.397V108.259ZM84.7732 102.918C82.7808 102.918 81.17 101.299 81.17 99.3156C81.17 97.3235 82.7808 95.7129 84.7732 95.7129H100.229C102.221 95.7129 103.832 97.3235 103.832 99.3156C103.832 101.299 102.221 102.918 100.229 102.918H96.1V119.397C96.1 121.381 94.4892 123 92.4968 123C90.5129 123 88.8936 121.381 88.8936 119.397V102.918H84.7732ZM107.045 99.3156C107.045 97.3235 108.656 95.7129 110.649 95.7129C112.641 95.7129 114.252 97.3235 114.252 99.3156V119.397C114.252 121.381 112.641 123 110.649 123C108.656 123 107.045 121.381 107.045 119.397V99.3156ZM118.601 108.259V107.64C118.601 107.403 118.627 107.174 118.669 106.945C118.974 104.003 120.297 101.367 122.272 99.3834C124.544 97.1116 127.681 95.7129 131.14 95.7129C134.599 95.7129 137.736 97.1116 140.008 99.3834C142.272 101.655 143.68 104.783 143.68 108.242V119.397C143.68 121.381 142.069 123 140.076 123C138.084 123 136.473 121.381 136.473 119.397V108.242C136.473 106.775 135.871 105.444 134.913 104.478C133.947 103.512 132.616 102.918 131.14 102.918C129.665 102.918 128.334 103.512 127.368 104.478C126.409 105.436 125.816 106.758 125.808 108.216V119.397C125.808 121.381 124.197 123 122.204 123C120.22 123 118.601 121.381 118.601 119.397V108.259ZM170.208 108.259V107.64C170.208 107.403 170.233 107.174 170.276 106.945C170.581 104.003 171.903 101.367 173.879 99.3834C176.151 97.1116 179.288 95.7129 182.747 95.7129C186.206 95.7129 189.343 97.1116 191.615 99.3834C193.879 101.655 195.286 104.783 195.286 108.242V119.397C195.286 121.381 193.667 123 191.683 123C189.691 123 188.08 121.381 188.08 119.397V108.242C188.08 106.775 187.478 105.444 186.52 104.478C185.553 103.512 184.222 102.918 182.747 102.918C181.272 102.918 179.941 103.512 178.974 104.478C178.016 105.436 177.423 106.758 177.414 108.216V119.397C177.414 121.381 175.803 123 173.811 123C171.827 123 170.208 121.381 170.208 119.397V108.259ZM154.54 105.173C154.777 105.419 155.108 105.563 155.473 105.563H163.171C165.163 105.563 166.774 107.174 166.774 109.166C166.774 111.158 165.163 112.768 163.171 112.768H155.473C155.108 112.768 154.777 112.921 154.54 113.158C154.294 113.396 154.15 113.726 154.15 114.091C154.15 114.455 154.294 114.786 154.54 115.032C154.777 115.269 155.108 115.413 155.473 115.413V115.422L155.583 115.413H163.171C165.163 115.413 166.774 117.032 166.774 119.016C166.774 121.008 165.163 122.619 163.171 122.619H155.473C153.116 122.619 150.988 121.669 149.445 120.126C147.893 118.584 146.944 116.447 146.944 114.091C146.944 112.26 147.52 110.556 148.512 109.166C147.52 107.776 146.944 106.072 146.944 104.241C146.944 101.884 147.893 99.7564 149.445 98.2051C150.988 96.6623 153.116 95.7129 155.473 95.7129H163.171C165.163 95.7129 166.774 97.3235 166.774 99.3156C166.774 101.299 165.163 102.918 163.171 102.918H155.473C155.108 102.918 154.777 103.062 154.54 103.3C154.294 103.546 154.15 103.876 154.15 104.241C154.15 104.605 154.294 104.936 154.54 105.173ZM199.517 102.918C197.524 102.918 195.914 101.299 195.914 99.3156C195.914 97.3235 197.524 95.7129 199.517 95.7129H214.972C216.965 95.7129 218.576 97.3235 218.576 99.3156C218.576 101.299 216.965 102.918 214.972 102.918H210.844V119.397C210.844 121.381 209.233 123 207.24 123C205.256 123 203.637 121.381 203.637 119.397V102.918H199.517ZM227.766 105.173C228.003 105.419 228.334 105.563 228.699 105.563H236.397C238.389 105.563 240 107.174 240 109.166C240 111.158 238.389 112.768 236.397 112.768H228.699C228.334 112.768 228.003 112.921 227.766 113.158C227.529 113.396 227.376 113.726 227.376 114.091C227.376 114.455 227.529 114.786 227.766 115.032C228.003 115.269 228.334 115.413 228.699 115.413V115.422L228.817 115.413H236.397C238.389 115.413 240 117.032 240 119.016C240 121.008 238.389 122.619 236.397 122.619H228.699C226.342 122.619 224.214 121.669 222.671 120.126C221.128 118.584 220.17 116.447 220.17 114.091C220.17 112.26 220.746 110.556 221.738 109.166C220.746 107.776 220.17 106.072 220.17 104.241C220.17 101.884 221.128 99.7564 222.671 98.2051C224.214 96.6623 226.342 95.7129 228.699 95.7129H236.397C238.389 95.7129 240 97.3235 240 99.3156C240 101.299 238.389 102.918 236.397 102.918H228.699C228.334 102.918 228.003 103.062 227.766 103.3C227.529 103.546 227.376 103.876 227.376 104.241C227.376 104.605 227.529 104.936 227.766 105.173Z" fill="#E31E24"/>
</svg>
