<svg width="1115" height="472" viewBox="0 0 1115 472" fill="none" xmlns="http://www.w3.org/2000/svg">
<path d="M184.016 416.323C184.002 413.838 186.005 411.812 188.49 411.797L358.037 410.813C360.522 410.799 362.548 412.801 362.563 415.287C362.577 417.772 360.574 419.798 358.089 419.813L188.542 420.797C186.057 420.812 184.031 418.809 184.016 416.323Z" fill="#E87B38"/>
<rect y="388" width="340" height="53" rx="19" fill="#E87B38"/>
<path d="M433.506 405.107C433.498 402.622 435.506 400.6 437.991 400.592L607.539 400.012C610.024 400.004 612.046 402.012 612.055 404.497C612.063 406.982 610.055 409.004 607.57 409.012L438.022 409.592C435.536 409.6 433.515 407.592 433.506 405.107Z" fill="#E87B38"/>
<path d="M642 79.5C642 77.0147 644.015 75 646.5 75H1020.5C1022.99 75 1025 77.0147 1025 79.5C1025 81.9853 1022.99 84 1020.5 84H646.5C644.015 84 642 81.9853 642 79.5Z" fill="#E87B38"/>
<path d="M998.043 168H910.957C899.941 168.013 891.015 176.269 891 186.458V347.542C891.015 357.731 899.941 365.987 910.957 366H998.043C1009.06 365.987 1017.99 357.731 1018 347.542V186.458C1017.99 176.269 1009.06 168.013 998.043 168ZM1007.11 347.542C1007.11 352.174 1003.05 355.925 998.043 355.932H910.957C905.95 355.925 901.893 352.174 901.886 347.542V186.458C901.893 181.826 905.95 178.075 910.957 178.068H998.043C1003.05 178.075 1007.11 181.826 1007.11 186.458V347.542ZM969.014 332.441H939.986C936.981 332.441 934.543 334.696 934.543 337.475C934.543 340.253 936.981 342.508 939.986 342.508H969.014C972.019 342.508 974.457 340.253 974.457 337.475C974.457 334.696 972.019 332.441 969.014 332.441Z" fill="black"/>
<path d="M995.667 216H913.333C909.837 216 907 219.209 907 223.164V283.836C907 287.791 909.837 291 913.333 291H995.667C999.163 291 1002 287.791 1002 283.836V223.164C1002 219.209 999.163 216 995.667 216ZM922.833 280.254H916.5V226.746H922.833V280.254ZM929.167 273.312H926V226.746H929.167V273.312ZM938.667 273.312H935.5V226.746H938.667V273.312ZM948.167 273.312H941.833V226.746H948.167V273.312ZM954.5 273.312H951.333V226.746H954.5V273.312ZM967.167 273.312H960.833V226.746H967.167V273.312ZM973.5 273.312H970.333V226.746H973.5V273.312ZM983 273.312H979.833V226.746H983V273.312ZM992.5 280.254H986.167V226.746H992.5V280.254Z" fill="black"/>
<g clip-path="url(#clip0_925_8307)">
<path d="M615.246 38.6211C612.078 38.6211 608.981 37.6986 606.346 35.9702C603.712 34.2418 601.659 31.7851 600.446 28.9109C599.234 26.0366 598.917 22.8739 599.535 19.8226C600.153 16.7713 601.679 13.9685 603.919 11.7687C606.159 9.56881 609.014 8.07069 612.121 7.46375C615.228 6.85681 618.449 7.16831 621.376 8.35887C624.304 9.54942 626.805 11.5655 628.566 14.1523C630.326 16.7391 631.265 19.7803 631.265 22.8913C631.265 27.0631 629.578 31.0641 626.573 34.014C623.569 36.9639 619.495 38.6211 615.246 38.6211ZM615.246 15.0264C613.662 15.0264 612.113 15.4877 610.796 16.3519C609.479 17.2161 608.452 18.4444 607.846 19.8815C607.24 21.3187 607.081 22.9 607.39 24.4257C607.7 25.9513 608.462 27.3527 609.583 28.4526C610.703 29.5526 612.13 30.3016 613.684 30.6051C615.237 30.9086 616.848 30.7528 618.311 30.1575C619.775 29.5623 621.026 28.5542 621.906 27.2608C622.786 25.9674 623.256 24.4468 623.256 22.8913C623.256 20.8054 622.412 18.8049 620.91 17.33C619.408 15.855 617.37 15.0264 615.246 15.0264ZM607.237 129.068V74.0132C607.237 72.9702 606.815 71.97 606.064 71.2325C605.313 70.495 604.294 70.0807 603.232 70.0807C602.17 70.0807 601.151 70.495 600.4 71.2325C599.649 71.97 599.227 72.9702 599.227 74.0132V129.068C599.227 130.11 599.649 131.111 600.4 131.848C601.151 132.586 602.17 133 603.232 133C604.294 133 605.313 132.586 606.064 131.848C606.815 131.111 607.237 130.11 607.237 129.068ZM631.265 129.068V74.0132C631.265 72.9702 630.843 71.97 630.092 71.2325C629.341 70.495 628.323 70.0807 627.261 70.0807C626.198 70.0807 625.18 70.495 624.429 71.2325C623.678 71.97 623.256 72.9702 623.256 74.0132V129.068C623.256 130.11 623.678 131.111 624.429 131.848C625.18 132.586 626.198 133 627.261 133C628.323 133 629.341 132.586 630.092 131.848C630.843 131.111 631.265 130.11 631.265 129.068ZM647.285 97.6079V58.2834C647.285 55.1545 646.019 52.1538 643.766 49.9414C641.513 47.729 638.457 46.486 635.27 46.486H595.222C592.036 46.486 588.98 47.729 586.727 49.9414C584.474 52.1538 583.208 55.1545 583.208 58.2834V97.6079C583.208 98.6509 583.63 99.6511 584.381 100.389C585.132 101.126 586.15 101.54 587.213 101.54C588.275 101.54 589.293 101.126 590.044 100.389C590.795 99.6511 591.217 98.6509 591.217 97.6079V58.2834C591.217 57.2404 591.639 56.2402 592.39 55.5027C593.141 54.7652 594.16 54.3509 595.222 54.3509H635.27C636.332 54.3509 637.351 54.7652 638.102 55.5027C638.853 56.2402 639.275 57.2404 639.275 58.2834V97.6079C639.275 98.6509 639.697 99.6511 640.448 100.389C641.199 101.126 642.218 101.54 643.28 101.54C644.342 101.54 645.361 101.126 646.112 100.389C646.863 99.6511 647.285 98.6509 647.285 97.6079Z" fill="black" stroke="black" stroke-width="2"/>
</g>
<path d="M383.937 383.016C380.656 383.016 377.447 381.985 374.718 380.053C371.99 378.122 369.863 375.376 368.607 372.164C367.351 368.952 367.022 365.418 367.663 362.008C368.303 358.598 369.883 355.466 372.204 353.008C374.525 350.55 377.481 348.875 380.7 348.197C383.919 347.519 387.256 347.867 390.288 349.197C393.32 350.528 395.911 352.781 397.735 355.672C399.558 358.562 400.531 361.961 400.531 365.438C400.526 370.098 398.776 374.566 395.666 377.861C392.555 381.157 388.337 383.01 383.937 383.016ZM383.937 359.578C382.844 359.578 381.774 359.922 380.864 360.566C379.955 361.209 379.246 362.125 378.827 363.195C378.409 364.266 378.299 365.444 378.513 366.581C378.726 367.717 379.253 368.761 380.026 369.581C380.8 370.4 381.785 370.958 382.858 371.184C383.931 371.41 385.044 371.294 386.054 370.851C387.065 370.407 387.929 369.656 388.537 368.693C389.144 367.729 389.469 366.596 389.469 365.438C389.467 363.884 388.884 362.395 387.847 361.296C386.81 360.198 385.404 359.58 383.937 359.578ZM354.437 414.266C354.438 415.82 355.02 417.31 356.058 418.409C357.095 419.508 358.502 420.125 359.969 420.125C377.117 420.125 385.554 410.523 392.335 402.808C392.544 402.57 392.748 402.339 392.955 402.104L396.654 411.115L380.723 423.17C380.006 423.712 379.422 424.427 379.019 425.256C378.616 426.086 378.406 427.005 378.406 427.938V455.281C378.406 456.835 378.989 458.326 380.026 459.424C381.064 460.523 382.471 461.141 383.937 461.141C385.404 461.141 386.811 460.523 387.849 459.424C388.886 458.326 389.469 456.835 389.469 455.281V430.953L401.164 422.104L415.74 457.618C416.325 459.043 417.42 460.163 418.785 460.733C420.15 461.303 421.673 461.274 423.018 460.655C424.363 460.035 425.421 458.875 425.959 457.429C426.497 455.983 426.47 454.37 425.885 452.945L408.575 410.771L408.562 410.738L402.227 395.302C405.958 394.832 410.635 396.282 416.22 399.67C421.134 402.741 425.694 406.408 429.808 410.596C430.845 411.694 432.252 412.31 433.718 412.31C435.184 412.309 436.59 411.692 437.627 410.593C438.664 409.495 439.247 408.006 439.247 406.452C439.248 404.899 438.666 403.409 437.63 402.31C432.823 397.388 427.481 393.088 421.717 389.5C405.093 379.416 394.969 383.79 389.404 389.234C387.592 391.006 385.887 392.947 384.238 394.823C378.099 401.808 372.301 408.406 359.969 408.406C358.502 408.406 357.095 409.024 356.058 410.122C355.02 411.221 354.438 412.712 354.437 414.266Z" fill="black"/>
<path d="M1048.97 385.519C1048.97 388.004 1046.96 390.02 1044.47 390.022L864.472 390.175C861.987 390.177 859.97 388.164 859.968 385.679C859.966 383.193 861.979 381.177 864.464 381.175L1044.46 381.022C1046.95 381.02 1048.97 383.033 1048.97 385.519Z" fill="#E87B38"/>
<rect width="11.6236" height="71.314" rx="5.81179" transform="matrix(0.00106775 -0.999999 0.999999 0.00144672 1018.37 374.583)" fill="#111111"/>
<rect x="1029.01" y="435.036" width="11" height="72" rx="5.5" transform="rotate(179.952 1029.01 435.036)" fill="#111111"/>
<rect x="1091.96" y="374.982" width="11" height="140" rx="5.5" transform="rotate(179.952 1091.96 374.982)" fill="#111111"/>
<rect x="1029.01" y="435.036" width="222" height="12" rx="6" transform="rotate(179.952 1029.01 435.036)" fill="#111111"/>
<path d="M1071.74 111.803L1071.98 403C1071.99 407.418 1068.41 411.003 1063.99 411.006L1063.74 111.81L1071.74 111.803Z" fill="#444444"/>
<path d="M1067.99 411.003L736.858 411.283L736.851 402.283L1067.98 402.003L1067.99 411.003Z" fill="#444444"/>
<path d="M1044.42 333.023C1046.91 333.021 1048.93 335.034 1048.93 337.519L1048.97 385.519C1048.97 388.004 1046.96 390.021 1044.47 390.023C1041.99 390.025 1039.97 388.012 1039.97 385.527L1039.93 337.527C1039.93 335.041 1041.94 333.025 1044.42 333.023Z" fill="#E87B38"/>
<path d="M1108.93 337.468C1108.93 339.953 1106.92 341.969 1104.43 341.972L1045.43 342.022C1042.95 342.024 1040.93 340.011 1040.93 337.525C1040.93 335.04 1042.94 333.024 1045.42 333.022L1104.42 332.972C1106.91 332.969 1108.93 334.982 1108.93 337.468Z" fill="#E87B38"/>
<path d="M1051.95 46.0359C1051.95 43.0364 1049.68 40.6048 1046.87 40.6048C1044.07 40.6048 1041.79 43.0364 1041.79 46.0359H1051.95ZM1083.21 46.0359C1083.21 43.0364 1080.94 40.6048 1078.13 40.6048C1075.33 40.6048 1073.05 43.0364 1073.05 46.0359H1083.21ZM1041.79 45.9426C1041.75 48.9416 1043.98 51.4145 1046.79 51.4661C1049.59 51.5177 1051.91 49.1282 1051.95 46.1291L1041.79 45.9426ZM1052.02 41.9146C1052.07 38.9156 1049.83 36.4427 1047.03 36.3911C1044.22 36.3396 1041.91 38.729 1041.86 41.7281L1052.02 41.9146ZM1051.8 47.3571C1052.49 44.4477 1050.83 41.4976 1048.11 40.768C1045.39 40.0383 1042.63 41.8053 1041.95 44.7147L1051.8 47.3571ZM1045.81 50.569L1050.73 51.9411L1050.74 51.8902L1045.81 50.569ZM1024.75 55.5849C1022.44 53.8757 1019.28 54.4883 1017.68 56.953C1016.08 59.4179 1016.65 62.8018 1018.96 64.5108L1024.75 55.5849ZM1026.93 60.1037C1026.96 57.1043 1024.71 54.6479 1021.91 54.6172C1019.1 54.5864 1016.8 56.9928 1016.77 59.9922L1026.93 60.1037ZM1021.48 98.9124L1026.56 98.9776L1026.56 98.9682L1021.48 98.9124ZM1048.95 119C1051.76 119 1054.03 116.568 1054.03 113.569C1054.03 110.57 1051.76 108.138 1048.95 108.138V119ZM1018.95 64.5014C1021.25 66.2183 1024.41 65.6158 1026.02 63.1559C1027.63 60.6968 1027.06 57.3107 1024.76 55.5943L1018.95 64.5014ZM1015.61 41.8214L1010.85 39.9303C1010.79 40.0928 1010.75 40.2581 1010.7 40.4257L1015.61 41.8214ZM1021.27 25.5428L1026.03 27.4338C1026.08 27.2929 1026.13 27.1499 1026.16 27.0051L1021.27 25.5428ZM1028.78 19.431V14H1028.77L1028.78 19.431ZM1096.22 19.431L1096.23 14H1096.22V19.431ZM1103.73 25.5428L1098.84 27.0052C1098.87 27.1496 1098.92 27.2924 1098.97 27.4331L1103.73 25.5428ZM1109.39 41.8286L1114.3 40.4335C1114.26 40.266 1114.21 40.1008 1114.15 39.9383L1109.39 41.8286ZM1100.24 55.5961C1097.94 57.3143 1097.38 60.6997 1098.99 63.1588C1100.6 65.6173 1103.76 66.2176 1106.06 64.4999L1100.24 55.5961ZM1043.87 113.569C1043.87 116.568 1046.15 119 1048.95 119C1051.76 119 1054.03 116.568 1054.03 113.569H1043.87ZM1070.97 113.569C1070.97 116.568 1073.25 119 1076.05 119C1078.86 119 1081.13 116.568 1081.13 113.569H1070.97ZM1048.95 108.138C1046.15 108.138 1043.87 110.57 1043.87 113.569C1043.87 116.568 1046.15 119 1048.95 119V108.138ZM1076.05 119C1078.86 119 1081.13 116.568 1081.13 113.569C1081.13 110.57 1078.86 108.138 1076.05 108.138V119ZM1073.05 46.1012C1073.09 49.1004 1075.39 51.5026 1078.19 51.4665C1081 51.4304 1083.25 48.9698 1083.21 45.9705L1073.05 46.1012ZM1083.17 41.7561C1083.13 38.7568 1080.83 36.3546 1078.02 36.3907C1075.22 36.4268 1072.97 38.8875 1073.01 41.8867L1083.17 41.7561ZM1083.08 44.7087C1082.4 41.8002 1079.63 40.0365 1076.91 40.7695C1074.19 41.5025 1072.54 44.4545 1073.23 47.363L1083.08 44.7087ZM1079.22 50.5472L1074.29 51.8744L1074.3 51.9175L1079.22 50.5472ZM1106.04 64.5159C1108.35 62.8112 1108.93 59.4288 1107.33 56.9609C1105.74 54.493 1102.57 53.8747 1100.26 55.5796L1106.04 64.5159ZM1108.23 59.9951C1108.21 56.9957 1105.91 54.5881 1103.1 54.6172C1100.3 54.6462 1098.05 57.1014 1098.07 60.1008L1108.23 59.9951ZM1103.51 98.9124L1098.42 98.9653V98.9776L1103.51 98.9124ZM1076.05 108.138C1073.25 108.138 1070.97 110.57 1070.97 113.569C1070.97 116.568 1073.25 119 1076.05 119V108.138ZM1041.79 46.0359C1041.79 58.2615 1051.07 68.1728 1062.5 68.1728V57.3107C1056.68 57.3107 1051.95 52.2628 1051.95 46.0359H1041.79ZM1062.5 68.1728C1073.94 68.1728 1083.21 58.2615 1083.21 46.0359H1073.05C1073.05 52.2628 1068.33 57.3107 1062.5 57.3107V68.1728ZM1051.95 46.1291L1052.02 41.9146L1041.86 41.7281L1041.79 45.9426L1051.95 46.1291ZM1041.95 44.7147L1040.88 49.2478L1050.74 51.8902L1051.8 47.3571L1041.95 44.7147ZM1040.89 49.1969C1040.03 52.7437 1037.6 55.6148 1034.38 56.8871L1037.91 67.0735C1044.24 64.5694 1049.02 58.9205 1050.73 51.9411L1040.89 49.1969ZM1034.38 56.8871C1031.16 58.1601 1027.57 57.6735 1024.75 55.5849L1018.96 64.5108C1024.5 68.621 1031.58 69.5783 1037.91 67.0735L1034.38 56.8871ZM1016.77 59.9922L1016.4 98.8567L1026.56 98.9682L1026.93 60.1037L1016.77 59.9922ZM1016.4 98.8472C1016.34 104.17 1018.28 109.297 1021.78 113.083L1029.01 105.448C1027.42 103.727 1026.54 101.397 1026.56 98.9776L1016.4 98.8472ZM1021.78 113.083C1025.28 116.87 1030.05 119.001 1035.03 119L1035.03 108.138C1032.77 108.138 1030.6 107.17 1029.01 105.448L1021.78 113.083ZM1035.03 119H1048.95V108.138H1035.03L1035.03 119ZM1024.76 55.5943C1021.06 52.8302 1019.36 47.8847 1020.52 43.2171L1010.7 40.4257C1008.44 49.5048 1011.74 59.1247 1018.95 64.5014L1024.76 55.5943ZM1020.38 43.7125L1026.03 27.4338L1016.51 23.6517L1010.85 39.9303L1020.38 43.7125ZM1026.16 27.0051C1026.5 25.7412 1027.57 24.8658 1028.8 24.8621L1028.77 14C1022.99 14.0179 1017.93 18.135 1016.38 24.0804L1026.16 27.0051ZM1028.78 24.8621H1096.22V14H1028.78V24.8621ZM1096.2 24.8621C1097.43 24.8658 1098.5 25.7412 1098.84 27.0052L1108.62 24.0804C1107.07 18.135 1102.01 14.0179 1096.23 14L1096.2 24.8621ZM1098.97 27.4331L1104.62 43.719L1114.15 39.9383L1108.49 23.6524L1098.97 27.4331ZM1104.48 43.2237C1105.64 47.8887 1103.94 52.8313 1100.24 55.5961L1106.06 64.4999C1113.26 59.1218 1116.55 49.5077 1114.3 40.4335L1104.48 43.2237ZM1054.03 113.569V91.8448H1043.87V113.569H1054.03ZM1054.03 91.8448C1054.03 90.8448 1054.79 90.0345 1055.73 90.0345V79.1724C1049.18 79.1724 1043.87 84.846 1043.87 91.8448H1054.03ZM1055.73 90.0345H1069.28V79.1724H1055.73V90.0345ZM1069.28 90.0345C1070.21 90.0345 1070.97 90.8448 1070.97 91.8448H1081.13C1081.13 84.846 1075.83 79.1724 1069.28 79.1724V90.0345ZM1070.97 91.8448V113.569H1081.13V91.8448H1070.97ZM1048.95 119H1076.05V108.138H1048.95V119ZM1083.21 45.9705L1083.17 41.7561L1073.01 41.8867L1073.05 46.1012L1083.21 45.9705ZM1073.23 47.363L1074.29 51.8744L1084.14 49.2201L1083.08 44.7087L1073.23 47.363ZM1074.3 51.9175C1076 58.8922 1080.78 64.5405 1087.1 67.0496L1090.64 56.8675C1087.43 55.5921 1085 52.7215 1084.13 49.177L1074.3 51.9175ZM1087.1 67.0496C1093.42 69.5595 1100.49 68.6138 1106.04 64.5159L1100.26 55.5796C1097.45 57.6619 1093.85 58.1427 1090.64 56.8675L1087.1 67.0496ZM1098.07 60.1008L1098.42 98.9653L1108.59 98.8596L1108.23 59.9951L1098.07 60.1008ZM1098.42 98.9776C1098.45 101.397 1097.57 103.727 1095.98 105.448L1103.21 113.083C1106.71 109.297 1108.65 104.17 1108.59 98.8472L1098.42 98.9776ZM1095.98 105.448C1094.39 107.17 1092.22 108.138 1089.96 108.138L1089.96 119C1094.94 119.001 1099.71 116.87 1103.21 113.083L1095.98 105.448ZM1089.96 108.138H1076.05V119H1089.96L1089.96 108.138Z" fill="black"/>
<path d="M674.197 440.535H711.392C710.827 441.037 710.261 441.476 709.696 441.978L682.867 462.058C674.008 468.647 659.557 468.647 650.635 462.058L623.744 441.978C617.838 437.586 613 427.859 613 420.517V374.019C613 366.363 618.843 357.892 626.006 355.193L657.295 343.459C662.447 341.514 670.992 341.514 676.144 343.459L707.371 355.193C713.34 357.452 718.429 363.727 720 370.128H674.134C672.752 370.128 671.495 370.191 670.301 370.191C658.678 370.881 655.662 375.085 655.662 388.326V422.399C655.725 436.832 659.432 440.535 674.197 440.535Z" stroke="black" stroke-width="10" stroke-linecap="round" stroke-linejoin="round"/>
<path d="M656 399H738" stroke="#292D32" stroke-width="10" stroke-miterlimit="10" stroke-linecap="round" stroke-linejoin="round"/>
<path d="M671 425H680" stroke="#292D32" stroke-width="10" stroke-miterlimit="10" stroke-linecap="round" stroke-linejoin="round"/>
<path d="M693 425H713" stroke="#292D32" stroke-width="10" stroke-miterlimit="10" stroke-linecap="round" stroke-linejoin="round"/>
<path d="M738 388.88V422.981C737.876 436.621 734.086 440 719.736 440H674.264C659.665 440 656 436.375 656 422.182V388.818C656 375.915 658.982 371.799 670.474 371.061C671.655 371.061 672.897 371 674.264 371H719.736C734.335 371.061 738 374.625 738 388.88Z" stroke="#292D32" stroke-width="10" stroke-linecap="round" stroke-linejoin="round"/>
<path d="M75.1944 421.112C74.4157 421.112 73.7117 420.979 73.0824 420.712C72.4637 420.445 71.973 420.061 71.6104 419.56C71.2477 419.059 71.061 418.467 71.0504 417.784H73.4504C73.4824 418.243 73.6424 418.605 73.9304 418.872C74.229 419.139 74.6344 419.272 75.1464 419.272C75.669 419.272 76.0797 419.149 76.3784 418.904C76.677 418.648 76.8264 418.317 76.8264 417.912C76.8264 417.581 76.725 417.309 76.5224 417.096C76.3197 416.883 76.0637 416.717 75.7544 416.6C75.4557 416.472 75.0397 416.333 74.5064 416.184C73.781 415.971 73.189 415.763 72.7304 415.56C72.2824 415.347 71.893 415.032 71.5624 414.616C71.2424 414.189 71.0824 413.624 71.0824 412.92C71.0824 412.259 71.2477 411.683 71.5784 411.192C71.909 410.701 72.373 410.328 72.9704 410.072C73.5677 409.805 74.2504 409.672 75.0184 409.672C76.1704 409.672 77.1037 409.955 77.8184 410.52C78.5437 411.075 78.9437 411.853 79.0184 412.856H76.5544C76.533 412.472 76.3677 412.157 76.0584 411.912C75.7597 411.656 75.3597 411.528 74.8584 411.528C74.421 411.528 74.069 411.64 73.8024 411.864C73.5464 412.088 73.4184 412.413 73.4184 412.84C73.4184 413.139 73.5144 413.389 73.7064 413.592C73.909 413.784 74.1544 413.944 74.4424 414.072C74.741 414.189 75.157 414.328 75.6904 414.488C76.4157 414.701 77.0077 414.915 77.4664 415.128C77.925 415.341 78.3197 415.661 78.6504 416.088C78.981 416.515 79.1464 417.075 79.1464 417.768C79.1464 418.365 78.9917 418.92 78.6824 419.432C78.373 419.944 77.9197 420.355 77.3224 420.664C76.725 420.963 76.0157 421.112 75.1944 421.112ZM89.3284 416.376C89.3284 416.696 89.307 416.984 89.2644 417.24H82.7844C82.8377 417.88 83.0617 418.381 83.4564 418.744C83.851 419.107 84.3364 419.288 84.9124 419.288C85.7444 419.288 86.3364 418.931 86.6884 418.216H89.1044C88.8484 419.069 88.3577 419.773 87.6324 420.328C86.907 420.872 86.0164 421.144 84.9604 421.144C84.107 421.144 83.339 420.957 82.6564 420.584C81.9844 420.2 81.4564 419.661 81.0724 418.968C80.699 418.275 80.5124 417.475 80.5124 416.568C80.5124 415.651 80.699 414.845 81.0724 414.152C81.4457 413.459 81.9684 412.925 82.6404 412.552C83.3124 412.179 84.0857 411.992 84.9604 411.992C85.803 411.992 86.555 412.173 87.2164 412.536C87.8884 412.899 88.4057 413.416 88.7684 414.088C89.1417 414.749 89.3284 415.512 89.3284 416.376ZM87.0084 415.736C86.9977 415.16 86.7897 414.701 86.3844 414.36C85.979 414.008 85.483 413.832 84.8964 413.832C84.3417 413.832 83.8724 414.003 83.4884 414.344C83.115 414.675 82.8857 415.139 82.8004 415.736H87.0084ZM101.971 412.008C103.059 412.008 103.934 412.344 104.595 413.016C105.267 413.677 105.603 414.605 105.603 415.8V421H103.363V416.104C103.363 415.411 103.187 414.883 102.835 414.52C102.483 414.147 102.003 413.96 101.395 413.96C100.787 413.96 100.302 414.147 99.9394 414.52C99.5874 414.883 99.4114 415.411 99.4114 416.104V421H97.1714V416.104C97.1714 415.411 96.9954 414.883 96.6434 414.52C96.2914 414.147 95.8114 413.96 95.2034 413.96C94.5847 413.96 94.094 414.147 93.7314 414.52C93.3794 414.883 93.2034 415.411 93.2034 416.104V421H90.9634V412.136H93.2034V413.208C93.4914 412.835 93.8594 412.541 94.3074 412.328C94.766 412.115 95.2674 412.008 95.8114 412.008C96.5047 412.008 97.1234 412.157 97.6674 412.456C98.2114 412.744 98.6327 413.16 98.9314 413.704C99.2194 413.192 99.6354 412.781 100.179 412.472C100.734 412.163 101.331 412.008 101.971 412.008ZM115.606 413.976H114.054V421H111.782V413.976H110.774V412.136H111.782V411.688C111.782 410.6 112.091 409.8 112.71 409.288C113.328 408.776 114.262 408.536 115.51 408.568V410.456C114.966 410.445 114.587 410.536 114.374 410.728C114.16 410.92 114.054 411.267 114.054 411.768V412.136H115.606V413.976ZM118.193 411.08C117.798 411.08 117.468 410.957 117.201 410.712C116.945 410.456 116.817 410.141 116.817 409.768C116.817 409.395 116.945 409.085 117.201 408.84C117.468 408.584 117.798 408.456 118.193 408.456C118.588 408.456 118.913 408.584 119.169 408.84C119.436 409.085 119.569 409.395 119.569 409.768C119.569 410.141 119.436 410.456 119.169 410.712C118.913 410.957 118.588 411.08 118.193 411.08ZM119.297 412.136V421H117.057V412.136H119.297ZM123.75 409.16V421H121.51V409.16H123.75ZM125.387 416.536C125.387 415.64 125.563 414.845 125.915 414.152C126.278 413.459 126.763 412.925 127.371 412.552C127.99 412.179 128.678 411.992 129.435 411.992C130.097 411.992 130.673 412.125 131.163 412.392C131.665 412.659 132.065 412.995 132.363 413.4V412.136H134.619V421H132.363V419.704C132.075 420.12 131.675 420.467 131.163 420.744C130.662 421.011 130.081 421.144 129.419 421.144C128.673 421.144 127.99 420.952 127.371 420.568C126.763 420.184 126.278 419.645 125.915 418.952C125.563 418.248 125.387 417.443 125.387 416.536ZM132.363 416.568C132.363 416.024 132.257 415.56 132.043 415.176C131.83 414.781 131.542 414.483 131.179 414.28C130.817 414.067 130.427 413.96 130.011 413.96C129.595 413.96 129.211 414.061 128.859 414.264C128.507 414.467 128.219 414.765 127.995 415.16C127.782 415.544 127.675 416.003 127.675 416.536C127.675 417.069 127.782 417.539 127.995 417.944C128.219 418.339 128.507 418.643 128.859 418.856C129.222 419.069 129.606 419.176 130.011 419.176C130.427 419.176 130.817 419.075 131.179 418.872C131.542 418.659 131.83 418.36 132.043 417.976C132.257 417.581 132.363 417.112 132.363 416.568ZM140.199 421.144C139.474 421.144 138.823 421.016 138.247 420.76C137.671 420.493 137.212 420.136 136.871 419.688C136.54 419.24 136.359 418.744 136.327 418.2H138.583C138.626 418.541 138.791 418.824 139.079 419.048C139.378 419.272 139.746 419.384 140.183 419.384C140.61 419.384 140.94 419.299 141.175 419.128C141.42 418.957 141.543 418.739 141.543 418.472C141.543 418.184 141.394 417.971 141.095 417.832C140.807 417.683 140.343 417.523 139.703 417.352C139.042 417.192 138.498 417.027 138.071 416.856C137.655 416.685 137.292 416.424 136.983 416.072C136.684 415.72 136.535 415.245 136.535 414.648C136.535 414.157 136.674 413.709 136.951 413.304C137.239 412.899 137.644 412.579 138.167 412.344C138.7 412.109 139.324 411.992 140.039 411.992C141.095 411.992 141.938 412.259 142.567 412.792C143.196 413.315 143.543 414.024 143.607 414.92H141.463C141.431 414.568 141.282 414.291 141.015 414.088C140.759 413.875 140.412 413.768 139.975 413.768C139.57 413.768 139.255 413.843 139.031 413.992C138.818 414.141 138.711 414.349 138.711 414.616C138.711 414.915 138.86 415.144 139.159 415.304C139.458 415.453 139.922 415.608 140.551 415.768C141.191 415.928 141.719 416.093 142.135 416.264C142.551 416.435 142.908 416.701 143.207 417.064C143.516 417.416 143.676 417.885 143.687 418.472C143.687 418.984 143.543 419.443 143.255 419.848C142.978 420.253 142.572 420.573 142.039 420.808C141.516 421.032 140.903 421.144 140.199 421.144ZM148.762 416.536C148.762 415.64 148.938 414.845 149.29 414.152C149.653 413.459 150.144 412.925 150.762 412.552C151.381 412.179 152.069 411.992 152.826 411.992C153.402 411.992 153.952 412.12 154.474 412.376C154.997 412.621 155.413 412.952 155.722 413.368V409.16H157.994V421H155.722V419.688C155.445 420.125 155.056 420.477 154.554 420.744C154.053 421.011 153.472 421.144 152.81 421.144C152.064 421.144 151.381 420.952 150.762 420.568C150.144 420.184 149.653 419.645 149.29 418.952C148.938 418.248 148.762 417.443 148.762 416.536ZM155.738 416.568C155.738 416.024 155.632 415.56 155.418 415.176C155.205 414.781 154.917 414.483 154.554 414.28C154.192 414.067 153.802 413.96 153.386 413.96C152.97 413.96 152.586 414.061 152.234 414.264C151.882 414.467 151.594 414.765 151.37 415.16C151.157 415.544 151.05 416.003 151.05 416.536C151.05 417.069 151.157 417.539 151.37 417.944C151.594 418.339 151.882 418.643 152.234 418.856C152.597 419.069 152.981 419.176 153.386 419.176C153.802 419.176 154.192 419.075 154.554 418.872C154.917 418.659 155.205 418.36 155.418 417.976C155.632 417.581 155.738 417.112 155.738 416.568ZM168.422 416.376C168.422 416.696 168.401 416.984 168.358 417.24H161.878C161.931 417.88 162.155 418.381 162.55 418.744C162.945 419.107 163.43 419.288 164.006 419.288C164.838 419.288 165.43 418.931 165.782 418.216H168.198C167.942 419.069 167.451 419.773 166.726 420.328C166.001 420.872 165.11 421.144 164.054 421.144C163.201 421.144 162.433 420.957 161.75 420.584C161.078 420.2 160.55 419.661 160.166 418.968C159.793 418.275 159.606 417.475 159.606 416.568C159.606 415.651 159.793 414.845 160.166 414.152C160.539 413.459 161.062 412.925 161.734 412.552C162.406 412.179 163.179 411.992 164.054 411.992C164.897 411.992 165.649 412.173 166.31 412.536C166.982 412.899 167.499 413.416 167.862 414.088C168.235 414.749 168.422 415.512 168.422 416.376ZM166.102 415.736C166.091 415.16 165.883 414.701 165.478 414.36C165.073 414.008 164.577 413.832 163.99 413.832C163.435 413.832 162.966 414.003 162.582 414.344C162.209 414.675 161.979 415.139 161.894 415.736H166.102ZM176.11 413.416C176.398 413.011 176.792 412.675 177.294 412.408C177.806 412.131 178.387 411.992 179.038 411.992C179.795 411.992 180.478 412.179 181.086 412.552C181.704 412.925 182.19 413.459 182.542 414.152C182.904 414.835 183.086 415.629 183.086 416.536C183.086 417.443 182.904 418.248 182.542 418.952C182.19 419.645 181.704 420.184 181.086 420.568C180.478 420.952 179.795 421.144 179.038 421.144C178.387 421.144 177.811 421.011 177.31 420.744C176.819 420.477 176.419 420.141 176.11 419.736V425.224H173.87V412.136H176.11V413.416ZM180.798 416.536C180.798 416.003 180.686 415.544 180.462 415.16C180.248 414.765 179.96 414.467 179.598 414.264C179.246 414.061 178.862 413.96 178.446 413.96C178.04 413.96 177.656 414.067 177.294 414.28C176.942 414.483 176.654 414.781 176.43 415.176C176.216 415.571 176.11 416.035 176.11 416.568C176.11 417.101 176.216 417.565 176.43 417.96C176.654 418.355 176.942 418.659 177.294 418.872C177.656 419.075 178.04 419.176 178.446 419.176C178.862 419.176 179.246 419.069 179.598 418.856C179.96 418.643 180.248 418.339 180.462 417.944C180.686 417.549 180.798 417.08 180.798 416.536ZM184.137 416.536C184.137 415.64 184.313 414.845 184.665 414.152C185.028 413.459 185.513 412.925 186.121 412.552C186.74 412.179 187.428 411.992 188.185 411.992C188.847 411.992 189.423 412.125 189.913 412.392C190.415 412.659 190.815 412.995 191.113 413.4V412.136H193.369V421H191.113V419.704C190.825 420.12 190.425 420.467 189.913 420.744C189.412 421.011 188.831 421.144 188.169 421.144C187.423 421.144 186.74 420.952 186.121 420.568C185.513 420.184 185.028 419.645 184.665 418.952C184.313 418.248 184.137 417.443 184.137 416.536ZM191.113 416.568C191.113 416.024 191.007 415.56 190.793 415.176C190.58 414.781 190.292 414.483 189.929 414.28C189.567 414.067 189.177 413.96 188.761 413.96C188.345 413.96 187.961 414.061 187.609 414.264C187.257 414.467 186.969 414.765 186.745 415.16C186.532 415.544 186.425 416.003 186.425 416.536C186.425 417.069 186.532 417.539 186.745 417.944C186.969 418.339 187.257 418.643 187.609 418.856C187.972 419.069 188.356 419.176 188.761 419.176C189.177 419.176 189.567 419.075 189.929 418.872C190.292 418.659 190.58 418.36 190.793 417.976C191.007 417.581 191.113 417.112 191.113 416.568ZM199.029 411.992C199.69 411.992 200.272 412.125 200.773 412.392C201.274 412.648 201.669 412.984 201.957 413.4V412.136H204.213V421.064C204.213 421.885 204.048 422.616 203.717 423.256C203.386 423.907 202.89 424.419 202.229 424.792C201.568 425.176 200.768 425.368 199.829 425.368C198.57 425.368 197.536 425.075 196.725 424.488C195.925 423.901 195.472 423.101 195.365 422.088H197.589C197.706 422.493 197.957 422.813 198.341 423.048C198.736 423.293 199.21 423.416 199.765 423.416C200.416 423.416 200.944 423.219 201.349 422.824C201.754 422.44 201.957 421.853 201.957 421.064V419.688C201.669 420.104 201.269 420.451 200.757 420.728C200.256 421.005 199.68 421.144 199.029 421.144C198.282 421.144 197.6 420.952 196.981 420.568C196.362 420.184 195.872 419.645 195.509 418.952C195.157 418.248 194.981 417.443 194.981 416.536C194.981 415.64 195.157 414.845 195.509 414.152C195.872 413.459 196.357 412.925 196.965 412.552C197.584 412.179 198.272 411.992 199.029 411.992ZM201.957 416.568C201.957 416.024 201.85 415.56 201.637 415.176C201.424 414.781 201.136 414.483 200.773 414.28C200.41 414.067 200.021 413.96 199.605 413.96C199.189 413.96 198.805 414.061 198.453 414.264C198.101 414.467 197.813 414.765 197.589 415.16C197.376 415.544 197.269 416.003 197.269 416.536C197.269 417.069 197.376 417.539 197.589 417.944C197.813 418.339 198.101 418.643 198.453 418.856C198.816 419.069 199.2 419.176 199.605 419.176C200.021 419.176 200.41 419.075 200.773 418.872C201.136 418.659 201.424 418.36 201.637 417.976C201.85 417.581 201.957 417.112 201.957 416.568ZM205.825 416.536C205.825 415.64 206.001 414.845 206.353 414.152C206.716 413.459 207.201 412.925 207.809 412.552C208.428 412.179 209.116 411.992 209.873 411.992C210.534 411.992 211.11 412.125 211.601 412.392C212.102 412.659 212.502 412.995 212.801 413.4V412.136H215.057V421H212.801V419.704C212.513 420.12 212.113 420.467 211.601 420.744C211.1 421.011 210.518 421.144 209.857 421.144C209.11 421.144 208.428 420.952 207.809 420.568C207.201 420.184 206.716 419.645 206.353 418.952C206.001 418.248 205.825 417.443 205.825 416.536ZM212.801 416.568C212.801 416.024 212.694 415.56 212.481 415.176C212.268 414.781 211.98 414.483 211.617 414.28C211.254 414.067 210.865 413.96 210.449 413.96C210.033 413.96 209.649 414.061 209.297 414.264C208.945 414.467 208.657 414.765 208.433 415.16C208.22 415.544 208.113 416.003 208.113 416.536C208.113 417.069 208.22 417.539 208.433 417.944C208.657 418.339 208.945 418.643 209.297 418.856C209.66 419.069 210.044 419.176 210.449 419.176C210.865 419.176 211.254 419.075 211.617 418.872C211.98 418.659 212.268 418.36 212.481 417.976C212.694 417.581 212.801 417.112 212.801 416.568ZM228.253 412.008C229.341 412.008 230.215 412.344 230.877 413.016C231.549 413.677 231.885 414.605 231.885 415.8V421H229.645V416.104C229.645 415.411 229.469 414.883 229.117 414.52C228.765 414.147 228.285 413.96 227.677 413.96C227.069 413.96 226.583 414.147 226.221 414.52C225.869 414.883 225.693 415.411 225.693 416.104V421H223.453V416.104C223.453 415.411 223.277 414.883 222.925 414.52C222.573 414.147 222.093 413.96 221.485 413.96C220.866 413.96 220.375 414.147 220.013 414.52C219.661 414.883 219.485 415.411 219.485 416.104V421H217.245V412.136H219.485V413.208C219.773 412.835 220.141 412.541 220.589 412.328C221.047 412.115 221.549 412.008 222.093 412.008C222.786 412.008 223.405 412.157 223.949 412.456C224.493 412.744 224.914 413.16 225.213 413.704C225.501 413.192 225.917 412.781 226.461 412.472C227.015 412.163 227.613 412.008 228.253 412.008ZM242.25 416.376C242.25 416.696 242.229 416.984 242.186 417.24H235.706C235.76 417.88 235.984 418.381 236.378 418.744C236.773 419.107 237.258 419.288 237.834 419.288C238.666 419.288 239.258 418.931 239.61 418.216H242.026C241.77 419.069 241.28 419.773 240.554 420.328C239.829 420.872 238.938 421.144 237.882 421.144C237.029 421.144 236.261 420.957 235.578 420.584C234.906 420.2 234.378 419.661 233.994 418.968C233.621 418.275 233.434 417.475 233.434 416.568C233.434 415.651 233.621 414.845 233.994 414.152C234.368 413.459 234.89 412.925 235.562 412.552C236.234 412.179 237.008 411.992 237.882 411.992C238.725 411.992 239.477 412.173 240.138 412.536C240.81 412.899 241.328 413.416 241.69 414.088C242.064 414.749 242.25 415.512 242.25 416.376ZM239.93 415.736C239.92 415.16 239.712 414.701 239.306 414.36C238.901 414.008 238.405 413.832 237.818 413.832C237.264 413.832 236.794 414.003 236.41 414.344C236.037 414.675 235.808 415.139 235.722 415.736H239.93ZM248.797 412.008C249.853 412.008 250.707 412.344 251.357 413.016C252.008 413.677 252.333 414.605 252.333 415.8V421H250.093V416.104C250.093 415.4 249.917 414.861 249.565 414.488C249.213 414.104 248.733 413.912 248.125 413.912C247.507 413.912 247.016 414.104 246.653 414.488C246.301 414.861 246.125 415.4 246.125 416.104V421H243.885V412.136H246.125V413.24C246.424 412.856 246.803 412.557 247.261 412.344C247.731 412.12 248.243 412.008 248.797 412.008ZM257.071 413.976V418.264C257.071 418.563 257.141 418.781 257.279 418.92C257.429 419.048 257.674 419.112 258.015 419.112H259.055V421H257.647C255.759 421 254.815 420.083 254.815 418.248V413.976H253.759V412.136H254.815V409.944H257.071V412.136H259.055V413.976H257.071ZM264.603 421.144C263.749 421.144 262.981 420.957 262.299 420.584C261.616 420.2 261.077 419.661 260.683 418.968C260.299 418.275 260.107 417.475 260.107 416.568C260.107 415.661 260.304 414.861 260.699 414.168C261.104 413.475 261.653 412.941 262.347 412.568C263.04 412.184 263.813 411.992 264.667 411.992C265.52 411.992 266.293 412.184 266.987 412.568C267.68 412.941 268.224 413.475 268.619 414.168C269.024 414.861 269.227 415.661 269.227 416.568C269.227 417.475 269.019 418.275 268.602 418.968C268.197 419.661 267.643 420.2 266.939 420.584C266.245 420.957 265.467 421.144 264.603 421.144ZM264.603 419.192C265.008 419.192 265.387 419.096 265.739 418.904C266.101 418.701 266.389 418.403 266.603 418.008C266.816 417.613 266.923 417.133 266.923 416.568C266.923 415.725 266.699 415.08 266.251 414.632C265.813 414.173 265.275 413.944 264.635 413.944C263.995 413.944 263.456 414.173 263.019 414.632C262.592 415.08 262.379 415.725 262.379 416.568C262.379 417.411 262.587 418.061 263.003 418.52C263.429 418.968 263.963 419.192 264.603 419.192Z" fill="black"/>
<defs>
<clipPath id="clip0_925_8307">
<rect width="119" height="133" fill="white" transform="translate(553)"/>
</clipPath>
</defs>
</svg>
