<svg width="24" height="24" viewBox="0 0 24 24" fill="none" xmlns="http://www.w3.org/2000/svg">
<path d="M16 8L7 17" stroke="black" stroke-miterlimit="5" stroke-linecap="round" stroke-linejoin="round"/>
<path d="M16.224 2.8813L20.9319 7.589M18.7632 1H19.0287C19.5591 1 20.0678 1.21071 20.4429 1.58579L22.4142 3.55709C22.7893 3.93216 23 4.44087 23 4.9713V5.23679C23 5.76704 22.7894 6.27559 22.4146 6.65063L7.202 21.8713C6.88067 22.1928 6.45941 22.3952 6.00762 22.4453L3.48312 22.7249C2.20978 22.866 1.13401 21.7902 1.27507 20.5169L1.55474 17.9922C1.60478 17.5404 1.80724 17.1192 2.12874 16.7978L17.3494 1.58541C17.7244 1.21057 18.233 1 18.7632 1Z" stroke="black" stroke-linecap="round" stroke-linejoin="round"/>
</svg>
