<svg width="234" height="240" viewBox="0 0 234 240" fill="none" xmlns="http://www.w3.org/2000/svg">
<g clip-path="url(#clip0_821_9516)">
<path fill-rule="evenodd" clip-rule="evenodd" d="M0 0H234V240H0V0Z" fill="white"/>
<path fill-rule="evenodd" clip-rule="evenodd" d="M193.387 229.412L223.676 41.656L40.6146 10.5884L10.3236 198.345L193.387 229.412Z" fill="white"/>
<path fill-rule="evenodd" clip-rule="evenodd" d="M39.1372 81.6098L44.2055 81.6111V110.592H54.018V81.6285H72.4862V110.599H82.2841V92.0599C82.2841 85.8419 85.8908 81.6248 94.6193 81.6248C103.525 81.6248 106.812 86.1009 106.812 92.2766V110.586H116.63C116.63 110.586 116.61 95.1166 116.63 87.8652C116.647 81.428 112.291 74.326 97.6688 74.326C86.0316 74.326 83.2359 78.6701 82.3472 80.2203V75.1316H54.0739L54.0763 74.204C54.0763 68.047 57.1719 65.1471 63.0645 65.1471C69.8458 65.1471 71.64 68.2923 72.5529 71.0327H82.3642C81.4598 65.2592 78.346 59.0798 63.0075 59.0798C46.0544 59.0798 44.2638 66.6413 44.2638 74.1766L44.2614 75.1664H40.1594V75.0544L48.6911 22.1602L212.395 49.9408L206.771 84.7985C203.527 78.2506 196.48 74.4381 185.822 74.4381C170.6 74.4381 162.719 81.6235 162.719 93.0996C162.719 104.865 171.663 111.476 185.512 111.476C193.333 111.476 199.358 109.756 203.301 106.298L185.308 217.841L21.605 190.059L39.1068 81.6048L39.1372 81.6098ZM204.596 98.329L206.448 86.7844H206.453H196.611C194.2 83.5036 190.382 80.9387 185.804 80.925C178.48 80.9039 172.531 86.5964 172.515 93.1257C172.495 99.6563 178.204 104.967 185.53 104.987C190.411 105 194.687 102.643 196.996 99.1657H204.457L204.596 98.329Z" fill="#D9AD2E"/>
<path fill-rule="evenodd" clip-rule="evenodd" d="M120.36 86.2231C120.36 79.5631 125.636 74.1108 139.871 74.1108C149.754 74.1108 160.924 75.0745 160.924 88.2477V110.597H151.088V105.607C148.79 108.117 145.687 110.846 135.876 110.818C127.075 110.793 118.783 108.847 118.806 100.115C118.826 92.938 121.787 91.7626 136.58 90.398C147.603 89.382 151.138 89.4031 151.148 85.6292C151.157 81.9301 147.72 79.7748 140.938 79.7549C132.858 79.7312 130.901 82.9685 130.242 86.2219L120.36 86.2231ZM151.127 94.3237C151.13 93.4547 150.93 93.5468 150.172 93.9701C148.56 94.8704 143.421 95.5601 139.597 95.8453C135.562 96.1466 129.425 96.3346 129.41 100.923C129.403 103.661 132.572 105.963 138.055 105.979C149.167 106.01 151.114 98.9119 151.127 94.3237Z" fill="white"/>
</g>
<defs>
<clipPath id="clip0_821_9516">
<rect width="234" height="240" fill="white"/>
</clipPath>
</defs>
</svg>
