<svg width="170" height="145" viewBox="0 0 170 145" fill="none" xmlns="http://www.w3.org/2000/svg">
<g filter="url(#filter0_d_1155_8374)">
<rect x="0.5" y="0.5" width="169" height="144" rx="3.5" stroke="black" stroke-opacity="0.3" shape-rendering="crispEdges"/>
<path d="M52.0516 103.848V105.032H47.2036V108.792H51.1396V109.976H47.2036V115H45.7476V103.848H52.0516ZM57.6341 115.144C56.8128 115.144 56.0661 114.957 55.3941 114.584C54.7328 114.211 54.2101 113.683 53.8261 113C53.4528 112.307 53.2661 111.507 53.2661 110.6C53.2661 109.704 53.4581 108.915 53.8421 108.232C54.2368 107.539 54.7701 107.011 55.4421 106.648C56.1141 106.275 56.8661 106.088 57.6981 106.088C58.5301 106.088 59.2821 106.275 59.9541 106.648C60.6261 107.011 61.1541 107.533 61.5381 108.216C61.9328 108.899 62.1301 109.693 62.1301 110.6C62.1301 111.507 61.9275 112.307 61.5221 113C61.1275 113.683 60.5888 114.211 59.9061 114.584C59.2235 114.957 58.4661 115.144 57.6341 115.144ZM57.6341 113.864C58.1568 113.864 58.6475 113.741 59.1061 113.496C59.5648 113.251 59.9328 112.883 60.2101 112.392C60.4981 111.901 60.6421 111.304 60.6421 110.6C60.6421 109.896 60.5035 109.299 60.2261 108.808C59.9488 108.317 59.5861 107.955 59.1381 107.72C58.6901 107.475 58.2048 107.352 57.6821 107.352C57.1488 107.352 56.6581 107.475 56.2101 107.72C55.7728 107.955 55.4208 108.317 55.1541 108.808C54.8875 109.299 54.7541 109.896 54.7541 110.6C54.7541 111.315 54.8821 111.917 55.1381 112.408C55.4048 112.899 55.7568 113.267 56.1941 113.512C56.6315 113.747 57.1115 113.864 57.6341 113.864ZM65.8205 107.432V112.6C65.8205 113.027 65.9112 113.331 66.0925 113.512C66.2738 113.683 66.5885 113.768 67.0365 113.768H68.1085V115H66.7965C65.9858 115 65.3778 114.813 64.9725 114.44C64.5672 114.067 64.3645 113.453 64.3645 112.6V107.432H63.2285V106.232H64.3645V104.024H65.8205V106.232H68.1085V107.432H65.8205ZM73.6966 115.144C72.8753 115.144 72.1286 114.957 71.4566 114.584C70.7953 114.211 70.2726 113.683 69.8886 113C69.5153 112.307 69.3286 111.507 69.3286 110.6C69.3286 109.704 69.5206 108.915 69.9046 108.232C70.2993 107.539 70.8326 107.011 71.5046 106.648C72.1766 106.275 72.9286 106.088 73.7606 106.088C74.5926 106.088 75.3446 106.275 76.0166 106.648C76.6886 107.011 77.2166 107.533 77.6006 108.216C77.9953 108.899 78.1926 109.693 78.1926 110.6C78.1926 111.507 77.99 112.307 77.5846 113C77.19 113.683 76.6513 114.211 75.9686 114.584C75.286 114.957 74.5286 115.144 73.6966 115.144ZM73.6966 113.864C74.2193 113.864 74.71 113.741 75.1686 113.496C75.6273 113.251 75.9953 112.883 76.2726 112.392C76.5606 111.901 76.7046 111.304 76.7046 110.6C76.7046 109.896 76.566 109.299 76.2886 108.808C76.0113 108.317 75.6486 107.955 75.2006 107.72C74.7526 107.475 74.2673 107.352 73.7446 107.352C73.2113 107.352 72.7206 107.475 72.2726 107.72C71.8353 107.955 71.4833 108.317 71.2166 108.808C70.95 109.299 70.8166 109.896 70.8166 110.6C70.8166 111.315 70.9446 111.917 71.2006 112.408C71.4673 112.899 71.8193 113.267 72.2566 113.512C72.694 113.747 73.174 113.864 73.6966 113.864ZM83.723 106.088C84.4803 106.088 85.1417 106.253 85.707 106.584C86.283 106.915 86.7097 107.331 86.987 107.832V106.232H88.459V115.192C88.459 115.992 88.2883 116.701 87.947 117.32C87.6057 117.949 87.115 118.44 86.475 118.792C85.8457 119.144 85.1097 119.32 84.267 119.32C83.115 119.32 82.155 119.048 81.387 118.504C80.619 117.96 80.1657 117.219 80.027 116.28H81.467C81.627 116.813 81.9577 117.24 82.459 117.56C82.9603 117.891 83.563 118.056 84.267 118.056C85.067 118.056 85.7177 117.805 86.219 117.304C86.731 116.803 86.987 116.099 86.987 115.192V113.352C86.699 113.864 86.2723 114.291 85.707 114.632C85.1417 114.973 84.4803 115.144 83.723 115.144C82.9443 115.144 82.235 114.952 81.595 114.568C80.9657 114.184 80.4697 113.645 80.107 112.952C79.7443 112.259 79.563 111.469 79.563 110.584C79.563 109.688 79.7443 108.904 80.107 108.232C80.4697 107.549 80.9657 107.021 81.595 106.648C82.235 106.275 82.9443 106.088 83.723 106.088ZM86.987 110.6C86.987 109.939 86.8537 109.363 86.587 108.872C86.3203 108.381 85.9577 108.008 85.499 107.752C85.051 107.485 84.555 107.352 84.011 107.352C83.467 107.352 82.971 107.48 82.523 107.736C82.075 107.992 81.7177 108.365 81.451 108.856C81.1843 109.347 81.051 109.923 81.051 110.584C81.051 111.256 81.1843 111.843 81.451 112.344C81.7177 112.835 82.075 113.213 82.523 113.48C82.971 113.736 83.467 113.864 84.011 113.864C84.555 113.864 85.051 113.736 85.499 113.48C85.9577 113.213 86.3203 112.835 86.587 112.344C86.8537 111.843 86.987 111.261 86.987 110.6ZM92.3755 107.656C92.6315 107.155 92.9942 106.765 93.4635 106.488C93.9435 106.211 94.5248 106.072 95.2075 106.072V107.576H94.8235C93.1915 107.576 92.3755 108.461 92.3755 110.232V115H90.9195V106.232H92.3755V107.656ZM96.3443 110.584C96.3443 109.688 96.5256 108.904 96.8883 108.232C97.2509 107.549 97.7469 107.021 98.3763 106.648C99.0163 106.275 99.7256 106.088 100.504 106.088C101.272 106.088 101.939 106.253 102.504 106.584C103.07 106.915 103.491 107.331 103.768 107.832V106.232H105.24V115H103.768V113.368C103.48 113.88 103.048 114.307 102.472 114.648C101.907 114.979 101.246 115.144 100.488 115.144C99.7096 115.144 99.0056 114.952 98.3763 114.568C97.7469 114.184 97.2509 113.645 96.8883 112.952C96.5256 112.259 96.3443 111.469 96.3443 110.584ZM103.768 110.6C103.768 109.939 103.635 109.363 103.368 108.872C103.102 108.381 102.739 108.008 102.28 107.752C101.832 107.485 101.336 107.352 100.792 107.352C100.248 107.352 99.7523 107.48 99.3043 107.736C98.8563 107.992 98.4989 108.365 98.2323 108.856C97.9656 109.347 97.8323 109.923 97.8323 110.584C97.8323 111.256 97.9656 111.843 98.2323 112.344C98.4989 112.835 98.8563 113.213 99.3043 113.48C99.7523 113.736 100.248 113.864 100.792 113.864C101.336 113.864 101.832 113.736 102.28 113.48C102.739 113.213 103.102 112.835 103.368 112.344C103.635 111.843 103.768 111.261 103.768 110.6ZM111.269 107.432H109.429V115H107.973V107.432H106.837V106.232H107.973V105.608C107.973 104.627 108.223 103.912 108.725 103.464C109.237 103.005 110.053 102.776 111.173 102.776V103.992C110.533 103.992 110.079 104.12 109.813 104.376C109.557 104.621 109.429 105.032 109.429 105.608V106.232H111.269V107.432ZM113.718 104.808C113.441 104.808 113.206 104.712 113.014 104.52C112.822 104.328 112.726 104.093 112.726 103.816C112.726 103.539 112.822 103.304 113.014 103.112C113.206 102.92 113.441 102.824 113.718 102.824C113.985 102.824 114.209 102.92 114.39 103.112C114.582 103.304 114.678 103.539 114.678 103.816C114.678 104.093 114.582 104.328 114.39 104.52C114.209 104.712 113.985 104.808 113.718 104.808ZM114.422 106.232V115H112.966V106.232H114.422ZM116.36 110.584C116.36 109.688 116.541 108.904 116.904 108.232C117.267 107.549 117.763 107.021 118.392 106.648C119.032 106.275 119.741 106.088 120.52 106.088C121.288 106.088 121.955 106.253 122.52 106.584C123.085 106.915 123.507 107.331 123.784 107.832V106.232H125.256V115H123.784V113.368C123.496 113.88 123.064 114.307 122.488 114.648C121.923 114.979 121.261 115.144 120.504 115.144C119.725 115.144 119.021 114.952 118.392 114.568C117.763 114.184 117.267 113.645 116.904 112.952C116.541 112.259 116.36 111.469 116.36 110.584ZM123.784 110.6C123.784 109.939 123.651 109.363 123.384 108.872C123.117 108.381 122.755 108.008 122.296 107.752C121.848 107.485 121.352 107.352 120.808 107.352C120.264 107.352 119.768 107.48 119.32 107.736C118.872 107.992 118.515 108.365 118.248 108.856C117.981 109.347 117.848 109.923 117.848 110.584C117.848 111.256 117.981 111.843 118.248 112.344C118.515 112.835 118.872 113.213 119.32 113.48C119.768 113.736 120.264 113.864 120.808 113.864C121.352 113.864 121.848 113.736 122.296 113.48C122.755 113.213 123.117 112.835 123.384 112.344C123.651 111.843 123.784 111.261 123.784 110.6Z" fill="black"/>
<g clip-path="url(#clip0_1155_8374)">
<path d="M68.6667 41.3333H71C72.2377 41.3333 73.4247 40.8416 74.2998 39.9664C75.175 39.0912 75.6667 37.9043 75.6667 36.6666C75.6667 36.0477 75.9125 35.4543 76.3501 35.0167C76.7877 34.5791 77.3812 34.3333 78 34.3333H92C92.6188 34.3333 93.2123 34.5791 93.6499 35.0167C94.0875 35.4543 94.3333 36.0477 94.3333 36.6666C94.3333 37.9043 94.825 39.0912 95.7002 39.9664C96.5753 40.8416 97.7623 41.3333 99 41.3333H101.333C102.571 41.3333 103.758 41.8249 104.633 42.7001C105.508 43.5753 106 44.7622 106 45.9999V66.9999C106 68.2376 105.508 69.4246 104.633 70.2997C103.758 71.1749 102.571 71.6666 101.333 71.6666H68.6667C67.429 71.6666 66.242 71.1749 65.3668 70.2997C64.4917 69.4246 64 68.2376 64 66.9999V45.9999C64 44.7622 64.4917 43.5753 65.3668 42.7001C66.242 41.8249 67.429 41.3333 68.6667 41.3333" stroke="black" stroke-width="2" stroke-linecap="round" stroke-linejoin="round"/>
<path d="M85 62.3333C88.866 62.3333 92 59.1992 92 55.3333C92 51.4673 88.866 48.3333 85 48.3333C81.134 48.3333 78 51.4673 78 55.3333C78 59.1992 81.134 62.3333 85 62.3333Z" stroke="black" stroke-width="2" stroke-linecap="round" stroke-linejoin="round"/>
</g>
</g>
<defs>
<filter id="filter0_d_1155_8374" x="-13" y="-12" width="196" height="171" filterUnits="userSpaceOnUse" color-interpolation-filters="sRGB">
<feFlood flood-opacity="0" result="BackgroundImageFix"/>
<feColorMatrix in="SourceAlpha" type="matrix" values="0 0 0 0 0 0 0 0 0 0 0 0 0 0 0 0 0 0 127 0" result="hardAlpha"/>
<feOffset dy="1"/>
<feGaussianBlur stdDeviation="6.5"/>
<feComposite in2="hardAlpha" operator="out"/>
<feColorMatrix type="matrix" values="0 0 0 0 0 0 0 0 0 0 0 0 0 0 0 0 0 0 0.05 0"/>
<feBlend mode="normal" in2="BackgroundImageFix" result="effect1_dropShadow_1155_8374"/>
<feBlend mode="normal" in="SourceGraphic" in2="effect1_dropShadow_1155_8374" result="shape"/>
</filter>
<clipPath id="clip0_1155_8374">
<rect width="56" height="56" fill="white" transform="translate(57 25)"/>
</clipPath>
</defs>
</svg>
