<svg width="273" height="85" viewBox="0 0 273 85" fill="none" xmlns="http://www.w3.org/2000/svg">
<path d="M273 73.5123C273 79.8556 267.598 85 260.935 85H12.068C5.40417 85.0005 0 79.8561 0 73.5123V11.4867C0 5.14386 5.40417 0 12.068 0H260.934C267.597 0 272.999 5.14386 272.999 11.4867V73.5123H273Z" fill="black"/>
<mask id="mask0_845_8207" style="mask-type:luminance" maskUnits="userSpaceOnUse" x="20" y="17" width="52" height="57">
<path d="M59.1624 37.3649L46.8526 30.6095C46.8526 30.6095 24.4269 18.3004 23.1085 17.5769C21.7901 16.8534 20.4766 17.2918 20.4766 18.8037V71.8993C20.4766 73.0328 21.4154 73.5214 22.5608 72.8933C23.7057 72.2641 46.8526 59.5604 46.8526 59.5604L59.1619 52.8054C59.1619 52.8054 69.6062 47.0738 70.9944 46.3122C72.3827 45.5496 72.2493 44.5045 71.0777 43.9048C69.9067 43.3046 59.1624 37.3649 59.1624 37.3649Z" fill="white"/>
</mask>
<g mask="url(#mask0_845_8207)">
<path d="M20.4773 16.3423V73.8275L50.9723 45.0852L20.4773 16.3423Z" fill="url(#paint0_linear_845_8207)"/>
</g>
<mask id="mask1_845_8207" style="mask-type:luminance" maskUnits="userSpaceOnUse" x="20" y="17" width="52" height="57">
<path d="M59.1624 37.3649L46.8526 30.6095C46.8526 30.6095 24.4269 18.3004 23.1085 17.5769C21.7901 16.8534 20.4766 17.2918 20.4766 18.8037V71.8993C20.4766 73.0328 21.4154 73.5214 22.5608 72.8933C23.7057 72.2641 46.8526 59.5604 46.8526 59.5604L59.1619 52.8054C59.1619 52.8054 69.6062 47.0738 70.9944 46.3122C72.3827 45.5496 72.2493 44.5045 71.0777 43.9048C69.9067 43.3046 59.1624 37.3649 59.1624 37.3649Z" fill="white"/>
</mask>
<g mask="url(#mask1_845_8207)">
<path d="M59.1626 37.3647L46.8528 30.6092L20.4773 16.1333V16.3423L50.9723 45.0852L59.1626 37.3647Z" fill="url(#paint1_linear_845_8207)"/>
</g>
<mask id="mask2_845_8207" style="mask-type:luminance" maskUnits="userSpaceOnUse" x="20" y="17" width="52" height="57">
<path d="M59.1624 37.3649L46.8526 30.6095C46.8526 30.6095 24.4269 18.3004 23.1085 17.5769C21.7901 16.8534 20.4766 17.2918 20.4766 18.8037V71.8993C20.4766 73.0328 21.4154 73.5214 22.5608 72.8933C23.7057 72.2641 46.8526 59.5604 46.8526 59.5604L59.1619 52.8054C59.1619 52.8054 69.6062 47.0738 70.9944 46.3122C72.3827 45.5496 72.2493 44.5045 71.0777 43.9048C69.9067 43.3046 59.1624 37.3649 59.1624 37.3649Z" fill="white"/>
</mask>
<g mask="url(#mask2_845_8207)">
<path d="M20.4773 73.8278V74.0368L46.8528 59.5604L59.1621 52.8049L50.9723 45.0854L20.4773 73.8278Z" fill="url(#paint2_linear_845_8207)"/>
</g>
<mask id="mask3_845_8207" style="mask-type:luminance" maskUnits="userSpaceOnUse" x="20" y="17" width="52" height="57">
<path d="M59.1624 37.3649L46.8526 30.6095C46.8526 30.6095 24.4269 18.3004 23.1085 17.5769C21.7901 16.8534 20.4766 17.2918 20.4766 18.8037V71.8993C20.4766 73.0328 21.4154 73.5214 22.5608 72.8933C23.7057 72.2641 46.8526 59.5604 46.8526 59.5604L59.1619 52.8054C59.1619 52.8054 69.6062 47.0738 70.9944 46.3122C72.3827 45.5496 72.2493 44.5045 71.0777 43.9048C69.9067 43.3046 59.1624 37.3649 59.1624 37.3649Z" fill="white"/>
</mask>
<g mask="url(#mask3_845_8207)">
<path d="M59.1625 37.3647L50.9722 45.0852L59.162 52.8047L73.2298 45.0847L59.1625 37.3647Z" fill="url(#paint3_linear_845_8207)"/>
</g>
<path d="M212.313 56.3787C211.171 56.3787 210.128 56.1838 209.184 55.7944C208.24 55.4046 207.446 54.805 206.806 53.9968H206.614C206.742 54.9438 206.806 55.8417 206.806 56.6898V63.3641H204.15V39.8631H206.311L206.678 42.0831H206.806C207.489 41.1946 208.285 40.5542 209.192 40.1594C210.099 39.7646 211.14 39.5672 212.313 39.5672C214.64 39.5672 216.436 40.3026 217.7 41.7725C218.965 43.2423 219.597 45.3048 219.597 47.9579C219.597 50.622 218.954 52.6908 217.669 54.1671C216.383 55.6418 214.598 56.3787 212.313 56.3787ZM211.929 41.6538C210.136 41.6538 208.839 42.1131 208.039 43.0302C207.239 43.9477 206.828 45.4082 206.806 47.4111V47.958C206.806 50.2375 207.217 51.8678 208.039 52.8499C208.861 53.8319 210.18 54.3217 211.993 54.3217C213.509 54.3217 214.697 53.7551 215.556 52.6205C216.415 51.4864 216.844 49.9225 216.844 47.9285C216.844 45.9068 216.415 44.3543 215.556 43.2743C214.697 42.1933 213.488 41.6538 211.929 41.6538ZM225.751 56.0824H223.094V33.0554H225.751V56.0824ZM241.03 56.0824L240.501 53.7738H240.373C239.498 54.7907 238.626 55.4794 237.755 55.8382C236.886 56.199 235.8 56.3788 234.498 56.3788C232.759 56.3788 231.395 55.9643 230.408 55.1358C229.42 54.3074 228.927 53.1289 228.927 51.5991C228.927 48.3242 231.761 46.6072 237.427 46.4487L240.406 46.3596V45.3535C240.406 44.0806 240.11 43.1404 239.517 42.5344C238.925 41.927 237.976 41.6238 236.676 41.6238C235.213 41.6238 233.558 42.0383 231.713 42.8667L230.896 40.9873C231.761 40.5532 232.707 40.2131 233.738 39.9664C234.768 39.7198 235.8 39.5963 236.836 39.5963C238.928 39.5963 240.478 40.025 241.487 40.8835C242.495 41.742 242.999 43.1182 242.999 45.0129V56.0819H241.03L241.03 56.0824ZM235.026 54.3517C236.68 54.3517 237.979 53.9322 238.924 53.094C239.868 52.2557 240.341 51.0812 240.341 49.571V48.1061L237.683 48.209C235.57 48.2794 234.047 48.5816 233.112 49.1206C232.179 49.6581 231.712 50.4945 231.712 51.6291C231.712 52.5166 232.002 53.1929 232.584 53.6556C233.166 54.1198 233.98 54.3517 235.026 54.3517ZM244.542 39.8631H247.39L251.233 49.1127C252.076 51.2244 252.599 52.7484 252.803 53.6861H252.931C253.07 53.1821 253.361 52.3221 253.803 51.1024C254.246 49.8836 255.695 46.1381 258.149 39.8631H261L253.459 58.3324C252.712 60.1576 251.84 61.4527 250.84 62.2186C249.843 62.9826 248.618 63.3641 247.168 63.3641C246.356 63.3641 245.556 63.2804 244.765 63.1131V61.145C245.352 61.2632 246.009 61.3227 246.735 61.3227C248.56 61.3227 249.861 60.3757 250.641 58.4811L251.617 56.1729L244.542 39.8631ZM163.085 41.3703C163.928 42.0156 165.69 43.3712 165.69 45.9511C165.69 48.46 164.148 49.6498 162.607 50.7677C162.129 51.2082 161.579 51.6847 161.579 52.4319C161.579 53.1766 162.129 53.5843 162.534 53.8899L163.856 54.838C165.47 56.0937 166.937 57.248 166.937 59.5896C166.937 62.7783 163.597 66 157.286 66C151.964 66 149.396 63.6599 149.396 61.148C149.396 59.9272 150.053 58.198 152.222 57.0092C154.496 55.7201 157.58 55.5522 159.231 55.4479C158.716 54.838 158.13 54.1932 158.13 53.1432C158.13 52.5673 158.314 52.2276 158.497 51.8186C158.092 51.853 157.688 51.887 157.321 51.887C153.432 51.887 151.23 49.2068 151.23 46.562C151.23 45.0011 152.002 43.2698 153.578 42.0161C155.671 40.4218 158.166 40.1495 160.15 40.1495H167.708L165.359 41.3708H163.085L163.085 41.3703ZM160.478 56.4338C160.185 56.3984 160 56.3984 159.635 56.3984C159.305 56.3984 157.32 56.4678 155.781 56.9438C154.974 57.2131 152.624 58.0272 152.624 60.4372C152.624 62.8448 155.158 64.5775 159.085 64.5775C162.606 64.5775 164.48 63.0137 164.48 60.9122C164.48 59.1786 163.268 58.2665 160.478 56.4338ZM161.543 49.987C162.386 49.2058 162.458 48.1214 162.458 47.51C162.458 45.068 160.881 41.2684 157.836 41.2684C156.881 41.2684 155.854 41.709 155.267 42.3882C154.644 43.1005 154.458 44.0156 154.458 44.8987C154.458 47.1714 155.89 50.9375 159.047 50.9375C159.965 50.9375 160.954 50.5304 161.543 49.987ZM139.98 55.8909C134.155 55.8909 131.041 51.6906 131.041 47.8964C131.041 43.4588 134.96 39.6671 140.532 39.6671C145.915 39.6671 149.287 43.5608 149.287 47.6601C149.287 51.6552 145.954 55.8909 139.98 55.8909ZM144.56 53.1476C145.44 52.0627 145.66 50.7086 145.66 49.3865C145.66 46.4049 144.121 40.7157 139.578 40.7157C138.369 40.7157 137.16 41.1567 136.281 41.8695C134.852 43.0533 134.594 44.5443 134.594 46.0023C134.594 49.353 136.39 54.8725 140.824 54.8725C142.253 54.8725 143.719 54.2301 144.56 53.1476ZM120.121 55.8909C114.295 55.8909 111.18 51.6906 111.18 47.8964C111.18 43.4588 115.101 39.6671 120.671 39.6671C126.056 39.6671 129.427 43.5608 129.427 47.6601C129.427 51.6552 126.094 55.8909 120.121 55.8909ZM124.701 53.1476C125.58 52.0627 125.801 50.7086 125.801 49.3865C125.801 46.4049 124.261 40.7157 119.717 40.7157C118.509 40.7157 117.299 41.1567 116.42 41.8695C114.991 43.0533 114.735 44.5443 114.735 46.0023C114.735 49.353 116.53 54.8725 120.965 54.8725C122.394 54.8725 123.859 54.2301 124.701 53.1476ZM108.381 55.3598L103.112 56.4836C100.975 56.7907 99.0601 57.061 97.035 57.061C86.8664 57.061 83 50.1479 83 44.7333C83 38.1279 88.4879 32 97.8827 32C99.8727 32 101.786 32.2717 103.518 32.7147C106.28 33.43 107.569 34.3145 108.38 34.826L105.322 37.5161L104.033 37.7873L104.954 36.4248C103.702 35.302 101.416 33.2252 97.0707 33.2252C91.25 33.2252 86.8654 37.3132 86.8654 43.2718C86.8654 49.6719 91.8762 55.6994 99.9051 55.6994C102.265 55.6994 103.478 55.2574 104.584 54.8478V49.3667L99.0228 49.639L101.969 48.1731H109.779L108.822 49.0242C108.562 49.2294 108.526 49.2984 108.453 49.5681C108.414 49.8753 108.38 50.8637 108.38 51.2038V55.3598H108.381V55.3598Z" fill="#F9F9F9"/>
<path d="M175.112 53.4796C173.851 53.3802 173.587 53.1827 173.587 51.8909V33.1655C173.595 33.0943 173.6 33.0211 173.608 32.9522C173.762 31.7948 174.143 31.5963 175.329 31H169.865L167 32.1913H169.92V32.2061L169.918 32.1942V52.6198C169.918 53.2802 169.767 53.3806 168.888 54.3721H175.649L177.062 53.6461C176.413 53.5777 175.763 53.5456 175.112 53.4796ZM190.654 53.7838C190.238 53.9813 189.821 54.2123 189.405 54.3754C188.151 54.868 186.862 55 185.722 55C184.511 55 182.613 54.9321 180.677 53.7178C177.986 52.0736 176.81 49.2481 176.81 46.7846C176.81 41.6927 181.589 39.1958 185.496 39.1958C186.861 39.1958 188.267 39.4908 189.404 40.1164C191.299 41.1987 191.792 42.6115 192.056 43.3675L183.145 46.4901L180.224 46.6871C181.171 50.8598 184.432 53.2893 188.037 53.2893C189.971 53.2893 191.375 52.6991 192.664 52.1415L190.654 53.7838ZM187.09 43.9912C187.809 43.7621 188.188 43.5641 188.188 43.1045C188.188 41.7912 186.482 40.279 184.432 40.279C182.913 40.279 180.071 41.2982 180.071 44.8458C180.071 45.4044 180.147 45.9956 180.186 46.589L187.09 43.9912ZM194.315 39.4205V41.5884H194.011V39.4205H193.182V39.1957H195.142V39.4205H194.315ZM197.727 41.5884V39.4005H197.713L196.942 41.5884H196.704L195.927 39.4005H195.917V41.5884H195.641V39.1958H196.114L196.817 41.1298H196.827L197.52 39.1958H198V41.5884H197.727Z" fill="#F9F9F9"/>
<path d="M90.2697 24.8157H88.4349C88.4349 24.5904 88.261 23.9525 87.913 22.9017H85.2643C84.9052 23.9354 84.7254 24.5732 84.7254 24.8157H83C83 24.6827 83.4462 23.5909 84.3385 21.5408C85.2307 19.4905 85.6769 18.3611 85.6769 18.1534H87.8442C87.8442 18.3478 88.2482 19.4605 89.0567 21.4922C89.8652 23.5238 90.2697 24.6313 90.2697 24.8157ZM87.621 21.9242C86.9673 20.1641 86.6407 19.2124 86.6407 19.0689H86.5489C86.5489 19.2019 86.2106 20.1536 85.5344 21.9242H87.621ZM97.6622 24.8157H96.2464C96.2464 24.6756 95.7207 23.9373 94.6699 22.6002C93.5694 21.1911 92.9424 20.2279 92.7898 19.7092H92.698C92.7935 20.4561 92.8416 21.1316 92.8416 21.7356C92.8416 22.5783 92.8683 23.6053 92.9216 24.8162H91.5111C91.5682 23.7587 91.5971 22.5974 91.5971 21.3317C91.5971 20.0865 91.5682 19.0271 91.5111 18.1539H93.2135C93.2135 18.335 93.6853 19.0566 94.6294 20.3185C95.6343 21.6589 96.2117 22.5683 96.3607 23.0461H96.4466C96.3548 22.2853 96.3089 21.6032 96.3089 20.9992C96.3089 20.0751 96.2822 19.1262 96.2288 18.1539H97.6623C97.6083 18.9999 97.5822 20.0594 97.5822 21.3317C97.5816 22.6135 97.6083 23.7749 97.6622 24.8157ZM105.971 21.254C105.971 22.2229 105.623 23.0689 104.928 23.792C104.232 24.5156 103.257 24.8767 102.004 24.8767C101.438 24.8767 100.658 24.8562 99.6645 24.8152C99.7141 23.7849 99.7393 22.623 99.7393 21.3307C99.7393 20.0894 99.7142 19.03 99.6645 18.1529H100.668C100.832 18.1529 101.077 18.1477 101.402 18.1377C101.726 18.1277 101.939 18.1225 102.038 18.1225C103.417 18.1225 104.417 18.4297 105.039 19.0437C105.66 19.6577 105.971 20.3942 105.971 21.254ZM104.406 21.474C104.406 20.8191 104.192 20.2674 103.764 19.8182C103.336 19.37 102.682 19.1457 101.803 19.1457C101.639 19.1457 101.414 19.1609 101.127 19.1919C101.165 19.8744 101.184 20.5871 101.184 21.3307C101.184 22.1462 101.203 22.9546 101.241 23.7563C101.486 23.8004 101.736 23.8227 101.986 23.823C102.808 23.823 103.416 23.5948 103.812 23.1394C104.207 22.684 104.406 22.129 104.406 21.474ZM113.633 24.8157H111.936C111.492 23.6081 111.152 22.8626 110.916 22.5797C110.679 22.2963 110.296 22.1548 109.769 22.1548C109.547 22.1548 109.335 22.1567 109.133 22.16C109.133 23.037 109.15 23.9221 109.185 24.8157H107.591C107.641 23.7853 107.666 22.6235 107.666 21.3312C107.666 20.0898 107.641 19.0304 107.591 18.1534H108.583C108.698 18.1534 108.937 18.1482 109.302 18.1382C109.667 18.1282 110.005 18.1229 110.314 18.1229C112.068 18.1229 112.946 18.6583 112.946 19.7297C112.946 20.579 112.445 21.1706 111.444 21.5055V21.5822C111.83 21.6775 112.168 21.9466 112.458 22.3877C112.748 22.8293 113.14 23.6386 113.633 24.8157ZM111.483 20.1079C111.483 19.4291 110.994 19.0895 110.016 19.0895C109.657 19.0895 109.339 19.1133 109.064 19.1609C109.106 19.6897 109.127 20.3789 109.127 21.2283C109.337 21.2354 109.515 21.2383 109.66 21.2383C110.875 21.2388 111.483 20.862 111.483 20.1079ZM121.85 21.3616C121.85 22.4087 121.491 23.277 120.772 23.9663C120.054 24.6552 119.165 25 118.107 25C117.098 25 116.253 24.6837 115.573 24.0506C114.892 23.418 114.552 22.6135 114.552 21.6384C114.552 20.5914 114.912 19.723 115.631 19.0337C116.349 18.3449 117.237 18 118.296 18C119.305 18 120.15 18.3153 120.83 18.9465C121.511 19.5777 121.85 20.3823 121.85 21.3616ZM120.269 21.5098C120.269 20.7967 120.064 20.2184 119.655 19.7749C119.246 19.3314 118.742 19.1099 118.142 19.1099C117.584 19.1099 117.11 19.3334 116.72 19.7802C116.331 20.227 116.135 20.7915 116.135 21.4741C116.135 22.1834 116.34 22.7607 116.751 23.2061C117.162 23.6515 117.665 23.874 118.262 23.874C118.82 23.874 119.294 23.6496 119.684 23.2009C120.073 22.7526 120.269 22.1886 120.269 21.5098ZM125.092 24.8157H123.47C123.519 23.7582 123.544 22.5968 123.544 21.3312C123.544 20.086 123.519 19.0266 123.47 18.1534H125.092C125.042 19.0132 125.017 20.0722 125.017 21.3312C125.017 22.6168 125.042 23.7787 125.092 24.8157ZM133.401 21.254C133.401 22.2229 133.053 23.0689 132.358 23.792C131.662 24.5156 130.688 24.8767 129.434 24.8767C128.868 24.8767 128.089 24.8562 127.095 24.8152C127.145 23.7849 127.17 22.623 127.17 21.3307C127.17 20.0894 127.145 19.03 127.095 18.1529H128.098C128.263 18.1529 128.507 18.1477 128.832 18.1377C129.157 18.1277 129.369 18.1225 129.468 18.1225C130.848 18.1225 131.848 18.4297 132.47 19.0437C133.091 19.6577 133.401 20.3942 133.401 21.254ZM131.837 21.474C131.837 20.8191 131.623 20.2674 131.195 19.8182C130.767 19.37 130.113 19.1457 129.234 19.1457C129.069 19.1457 128.844 19.1609 128.557 19.1919C128.595 19.8744 128.614 20.5871 128.614 21.3307C128.614 22.1462 128.633 22.9546 128.671 23.7563C128.917 23.8004 129.166 23.8227 129.416 23.823C130.238 23.823 130.847 23.5948 131.242 23.1394C131.638 22.684 131.837 22.129 131.837 21.474ZM144.425 24.8157H142.59C142.59 24.5904 142.416 23.9525 142.068 22.9017H139.419C139.06 23.9354 138.88 24.5732 138.88 24.8157H137.155C137.155 24.6827 137.601 23.5909 138.494 21.5408C139.386 19.4905 139.832 18.3611 139.832 18.1534H141.999C141.999 18.3478 142.404 19.4605 143.212 21.4922C144.02 23.5238 144.425 24.6313 144.425 24.8157ZM141.776 21.9242C141.123 20.1641 140.795 19.2124 140.795 19.0689H140.704C140.704 19.2019 140.366 20.1536 139.69 21.9242H141.776ZM151.112 19.8978C151.112 20.7133 150.772 21.3155 150.094 21.7042C149.416 22.0929 148.584 22.2876 147.598 22.2876C147.418 22.2876 147.29 22.2843 147.213 22.2776C147.213 22.9193 147.234 23.7649 147.276 24.8157H145.665C145.715 23.8301 145.74 22.6683 145.74 21.3312C145.74 20.1031 145.715 19.0437 145.665 18.1534H146.663C146.804 18.1534 147.075 18.1482 147.476 18.1382C147.878 18.1282 148.225 18.1229 148.52 18.1229C149.246 18.1229 149.859 18.2696 150.36 18.563C150.86 18.8565 151.112 19.301 151.112 19.8978ZM149.633 20.1794C149.633 19.4495 149.09 19.0842 148.005 19.0842C147.733 19.0842 147.447 19.1099 147.145 19.1609C147.187 19.8059 147.208 20.5357 147.208 21.3512C147.304 21.3583 147.415 21.3612 147.541 21.3612C148.936 21.3616 149.633 20.9677 149.633 20.1794ZM157.988 19.8978C157.988 20.7133 157.648 21.3155 156.971 21.7042C156.292 22.0929 155.46 22.2876 154.474 22.2876C154.294 22.2876 154.166 22.2843 154.089 22.2776C154.089 22.9193 154.11 23.7649 154.152 24.8157H152.541C152.591 23.8301 152.616 22.6683 152.616 21.3312C152.616 20.1031 152.591 19.0437 152.541 18.1534H153.539C153.68 18.1534 153.951 18.1482 154.352 18.1382C154.754 18.1282 155.101 18.1229 155.396 18.1229C156.121 18.1229 156.735 18.2696 157.236 18.563C157.736 18.8565 157.988 19.301 157.988 19.8978ZM156.509 20.1794C156.509 19.4495 155.966 19.0842 154.881 19.0842C154.609 19.0842 154.322 19.1099 154.021 19.1609C154.063 19.8059 154.084 20.5357 154.084 21.3512C154.179 21.3583 154.291 21.3612 154.416 21.3612C155.811 21.3616 156.509 20.9677 156.509 20.1794ZM169.23 21.3616C169.23 22.4087 168.87 23.277 168.152 23.9663C167.433 24.6556 166.544 25 165.486 25C164.477 25 163.632 24.6837 162.952 24.0506C162.272 23.418 161.932 22.6135 161.932 21.6384C161.932 20.5914 162.291 19.723 163.01 19.0337C163.729 18.3444 164.617 18 165.675 18C166.685 18 167.529 18.3153 168.209 18.9465C168.889 19.5777 169.23 20.3823 169.23 21.3616ZM167.647 21.5098C167.647 20.7967 167.443 20.2184 167.034 19.7749C166.625 19.3314 166.12 19.1099 165.521 19.1099C164.962 19.1099 164.488 19.3334 164.099 19.7802C163.709 20.227 163.514 20.7915 163.514 21.4741C163.514 22.1834 163.719 22.7607 164.13 23.2061C164.541 23.6515 165.045 23.874 165.641 23.874C166.199 23.874 166.673 23.6496 167.062 23.2009C167.452 22.7526 167.647 22.1886 167.647 21.5098ZM177 24.8157H175.584C175.584 24.6756 175.059 23.9373 174.008 22.6002C172.907 21.1911 172.28 20.2279 172.128 19.7092H172.036C172.131 20.4561 172.179 21.1316 172.179 21.7356C172.179 22.5783 172.206 23.6053 172.259 24.8162H170.849C170.906 23.7587 170.935 22.5974 170.935 21.3317C170.935 20.0865 170.906 19.0271 170.849 18.1539H172.551C172.551 18.335 173.024 19.0566 173.967 20.3185C174.973 21.6589 175.549 22.5683 175.698 23.0461H175.784C175.693 22.2853 175.647 21.6032 175.647 20.9992C175.647 20.0751 175.62 19.1262 175.567 18.1539H177C176.946 18.9999 176.92 20.0594 176.92 21.3317C176.92 22.6135 176.947 23.7749 177 24.8157Z" fill="#F9F9FA"/>
<defs>
<linearGradient id="paint0_linear_845_8207" x1="35.7247" y1="16.3424" x2="35.7247" y2="73.8276" gradientUnits="userSpaceOnUse">
<stop stop-color="#257CB0"/>
<stop offset="0.286" stop-color="#4A93B5"/>
<stop offset="0.767" stop-color="#78BCBB"/>
<stop offset="1" stop-color="#89CFBD"/>
</linearGradient>
<linearGradient id="paint1_linear_845_8207" x1="20.4778" y1="30.6088" x2="59.1631" y2="30.6088" gradientUnits="userSpaceOnUse">
<stop stop-color="#52C1AD"/>
<stop offset="1" stop-color="#DEE89A"/>
</linearGradient>
<linearGradient id="paint2_linear_845_8207" x1="39.8196" y1="45.0855" x2="39.8196" y2="74.0369" gradientUnits="userSpaceOnUse">
<stop stop-color="#EC413D"/>
<stop offset="0.167" stop-color="#DA4452"/>
<stop offset="0.575" stop-color="#B0487A"/>
<stop offset="0.862" stop-color="#954A92"/>
<stop offset="1" stop-color="#8A4A9D"/>
</linearGradient>
<linearGradient id="paint3_linear_845_8207" x1="62.1012" y1="37.3648" x2="62.1012" y2="52.8043" gradientUnits="userSpaceOnUse">
<stop stop-color="#F58879"/>
<stop offset="0.119" stop-color="#F69079"/>
<stop offset="0.713" stop-color="#FCB877"/>
<stop offset="1" stop-color="#FEC874"/>
</linearGradient>
</defs>
</svg>
