<svg width="240" height="240" viewBox="0 0 240 240" fill="none" xmlns="http://www.w3.org/2000/svg">
<g clip-path="url(#clip0_821_9528)">
<path fill-rule="evenodd" clip-rule="evenodd" d="M0 0H240V240H0V0Z" fill="#1E71B8"/>
<path fill-rule="evenodd" clip-rule="evenodd" d="M9.02695 119.999C9.02695 181.191 58.8084 230.973 120.001 230.973C181.19 230.973 230.974 181.192 230.974 119.999C230.974 58.8074 181.19 9.02344 120.001 9.02344C58.8097 9.02344 9.02695 58.8074 9.02695 119.999Z" fill="#CC2229"/>
<path fill-rule="evenodd" clip-rule="evenodd" d="M15.0196 119.999C15.0196 62.1105 62.1129 15.0146 120.001 15.0146C177.888 15.0146 224.983 62.1105 224.983 119.999C224.983 177.888 177.888 224.98 120.001 224.98C62.1129 224.98 15.0196 177.888 15.0196 119.999Z" fill="#FFF22D"/>
<path fill-rule="evenodd" clip-rule="evenodd" d="M95.4703 100.576C102.118 100.576 107.585 95.0954 107.585 88.398C107.585 81.7056 102.118 76.2583 95.4703 76.2583C88.7555 76.2583 83.3194 81.7056 83.3194 88.398C83.3194 95.0954 88.7568 100.576 95.4703 100.576Z" fill="#CC2229"/>
<path fill-rule="evenodd" clip-rule="evenodd" d="M171.203 94.3076H205.964V102.127H200.478V129.998L221.919 118.268L221.995 138.744H171.009V130.653H176.727L176.765 102.127H171.24L171.203 94.3076Z" fill="#1E71B8"/>
<path fill-rule="evenodd" clip-rule="evenodd" d="M127.229 121.05L124.04 116.509L112.864 125.209L95.5351 103.217L61.4132 130.108L66.3326 133.517L74.6125 126.939L88.4405 144.49L84.3802 147.651L87.9076 152.131L127.229 121.05Z" fill="#CC2229"/>
<path fill-rule="evenodd" clip-rule="evenodd" d="M19.3525 94.3101H54.0783V102.127H48.6298V129.998L70.0703 118.271L70.1064 138.744H19.1595V130.689H24.8372L24.877 102.127H19.3164L19.3525 94.3101ZM153.31 138.744H117.113V130.889H123.256L123.139 102.479H116.996V94.7732H153.503C164.086 94.7346 172.506 102.128 172.624 116.683C172.543 131.695 163.197 138.744 153.31 138.744ZM146.085 125.005C150.294 124.967 153.811 122.566 153.849 116.104C153.849 109.831 150.221 107.084 146.164 107.084L146.085 125.005Z" fill="#1E71B8"/>
</g>
<defs>
<clipPath id="clip0_821_9528">
<rect width="240" height="240" fill="white"/>
</clipPath>
</defs>
</svg>
