<svg width="198" height="173" viewBox="0 0 198 173" fill="none" xmlns="http://www.w3.org/2000/svg">
<g filter="url(#filter0_d_1155_8374)">
<rect x="13.5" y="12.5" width="171" height="146" rx="4.5" stroke="black" stroke-opacity="0.3" shape-rendering="crispEdges"/>
<path d="M71.8721 107.928V119H70.4161V110.744L66.7361 119H65.7121L62.0161 110.728V119H60.5601V107.928H62.1281L66.2241 117.08L70.3201 107.928H71.8721ZM73.7974 114.584C73.7974 113.688 73.9787 112.904 74.3414 112.232C74.704 111.549 75.2 111.021 75.8294 110.648C76.4694 110.275 77.1787 110.088 77.9574 110.088C78.7254 110.088 79.392 110.253 79.9574 110.584C80.5227 110.915 80.944 111.331 81.2214 111.832V110.232H82.6934V119H81.2214V117.368C80.9334 117.88 80.5014 118.307 79.9254 118.648C79.36 118.979 78.6987 119.144 77.9414 119.144C77.1627 119.144 76.4587 118.952 75.8294 118.568C75.2 118.184 74.704 117.645 74.3414 116.952C73.9787 116.259 73.7974 115.469 73.7974 114.584ZM81.2214 114.6C81.2214 113.939 81.088 113.363 80.8214 112.872C80.5547 112.381 80.192 112.008 79.7334 111.752C79.2854 111.485 78.7894 111.352 78.2454 111.352C77.7014 111.352 77.2054 111.48 76.7574 111.736C76.3094 111.992 75.952 112.365 75.6854 112.856C75.4187 113.347 75.2854 113.923 75.2854 114.584C75.2854 115.256 75.4187 115.843 75.6854 116.344C75.952 116.835 76.3094 117.213 76.7574 117.48C77.2054 117.736 77.7014 117.864 78.2454 117.864C78.7894 117.864 79.2854 117.736 79.7334 117.48C80.192 117.213 80.5547 116.835 80.8214 116.344C81.088 115.843 81.2214 115.261 81.2214 114.6ZM80.0854 107.752L76.6774 109.576V108.488L80.0854 106.488V107.752ZM84.6099 114.584C84.6099 113.688 84.7912 112.904 85.1539 112.232C85.5165 111.549 86.0125 111.021 86.6419 110.648C87.2819 110.275 87.9965 110.088 88.7859 110.088C89.5432 110.088 90.2045 110.259 90.7699 110.6C91.3459 110.931 91.7672 111.341 92.0339 111.832V110.232H93.5059V123.16H92.0339V117.384C91.7565 117.875 91.3299 118.291 90.7539 118.632C90.1779 118.973 89.5059 119.144 88.7379 119.144C87.9699 119.144 87.2712 118.952 86.6419 118.568C86.0125 118.184 85.5165 117.645 85.1539 116.952C84.7912 116.259 84.6099 115.469 84.6099 114.584ZM92.0339 114.6C92.0339 113.939 91.9005 113.363 91.6339 112.872C91.3672 112.381 91.0045 112.008 90.5459 111.752C90.0979 111.485 89.6019 111.352 89.0579 111.352C88.5139 111.352 88.0179 111.48 87.5699 111.736C87.1219 111.992 86.7645 112.365 86.4979 112.856C86.2312 113.347 86.0979 113.923 86.0979 114.584C86.0979 115.256 86.2312 115.843 86.4979 116.344C86.7645 116.835 87.1219 117.213 87.5699 117.48C88.0179 117.736 88.5139 117.864 89.0579 117.864C89.6019 117.864 90.0979 117.736 90.5459 117.48C91.0045 117.213 91.3672 116.835 91.6339 116.344C91.9005 115.843 92.0339 115.261 92.0339 114.6ZM103.742 110.232V119H102.286V117.704C102.009 118.152 101.62 118.504 101.118 118.76C100.628 119.005 100.084 119.128 99.4864 119.128C98.8037 119.128 98.1904 118.989 97.6464 118.712C97.1024 118.424 96.6704 117.997 96.3504 117.432C96.041 116.867 95.8864 116.179 95.8864 115.368V110.232H97.3264V115.176C97.3264 116.04 97.545 116.707 97.9824 117.176C98.4197 117.635 99.017 117.864 99.7744 117.864C100.553 117.864 101.166 117.624 101.614 117.144C102.062 116.664 102.286 115.965 102.286 115.048V110.232H103.742ZM106.953 108.808C106.675 108.808 106.441 108.712 106.249 108.52C106.057 108.328 105.961 108.093 105.961 107.816C105.961 107.539 106.057 107.304 106.249 107.112C106.441 106.92 106.675 106.824 106.953 106.824C107.219 106.824 107.443 106.92 107.625 107.112C107.817 107.304 107.913 107.539 107.913 107.816C107.913 108.093 107.817 108.328 107.625 108.52C107.443 108.712 107.219 108.808 106.953 108.808ZM107.657 110.232V119H106.201V110.232H107.657ZM114.41 110.072C115.477 110.072 116.341 110.397 117.002 111.048C117.664 111.688 117.994 112.616 117.994 113.832V119H116.554V114.04C116.554 113.165 116.336 112.499 115.898 112.04C115.461 111.571 114.864 111.336 114.106 111.336C113.338 111.336 112.725 111.576 112.266 112.056C111.818 112.536 111.594 113.235 111.594 114.152V119H110.138V110.232H111.594V111.48C111.882 111.032 112.272 110.685 112.762 110.44C113.264 110.195 113.813 110.072 114.41 110.072ZM119.829 114.584C119.829 113.688 120.01 112.904 120.373 112.232C120.735 111.549 121.231 111.021 121.861 110.648C122.501 110.275 123.21 110.088 123.989 110.088C124.757 110.088 125.423 110.253 125.989 110.584C126.554 110.915 126.975 111.331 127.253 111.832V110.232H128.725V119H127.253V117.368C126.965 117.88 126.533 118.307 125.957 118.648C125.391 118.979 124.73 119.144 123.973 119.144C123.194 119.144 122.49 118.952 121.861 118.568C121.231 118.184 120.735 117.645 120.373 116.952C120.01 116.259 119.829 115.469 119.829 114.584ZM127.253 114.6C127.253 113.939 127.119 113.363 126.853 112.872C126.586 112.381 126.223 112.008 125.765 111.752C125.317 111.485 124.821 111.352 124.277 111.352C123.733 111.352 123.237 111.48 122.789 111.736C122.341 111.992 121.983 112.365 121.717 112.856C121.45 113.347 121.317 113.923 121.317 114.584C121.317 115.256 121.45 115.843 121.717 116.344C121.983 116.835 122.341 117.213 122.789 117.48C123.237 117.736 123.733 117.864 124.277 117.864C124.821 117.864 125.317 117.736 125.765 117.48C126.223 117.213 126.586 116.835 126.853 116.344C127.119 115.843 127.253 115.261 127.253 114.6ZM134.289 119.144C133.617 119.144 133.014 119.032 132.481 118.808C131.948 118.573 131.526 118.253 131.217 117.848C130.908 117.432 130.737 116.957 130.705 116.424H132.209C132.252 116.861 132.454 117.219 132.817 117.496C133.19 117.773 133.676 117.912 134.273 117.912C134.828 117.912 135.265 117.789 135.585 117.544C135.905 117.299 136.065 116.989 136.065 116.616C136.065 116.232 135.894 115.949 135.553 115.768C135.212 115.576 134.684 115.389 133.969 115.208C133.318 115.037 132.785 114.867 132.369 114.696C131.964 114.515 131.612 114.253 131.313 113.912C131.025 113.56 130.881 113.101 130.881 112.536C130.881 112.088 131.014 111.677 131.281 111.304C131.548 110.931 131.926 110.637 132.417 110.424C132.908 110.2 133.468 110.088 134.097 110.088C135.068 110.088 135.852 110.333 136.449 110.824C137.046 111.315 137.366 111.987 137.409 112.84H135.953C135.921 112.381 135.734 112.013 135.393 111.736C135.062 111.459 134.614 111.32 134.049 111.32C133.526 111.32 133.11 111.432 132.801 111.656C132.492 111.88 132.337 112.173 132.337 112.536C132.337 112.824 132.428 113.064 132.609 113.256C132.801 113.437 133.036 113.587 133.313 113.704C133.601 113.811 133.996 113.933 134.497 114.072C135.126 114.243 135.638 114.413 136.033 114.584C136.428 114.744 136.764 114.989 137.041 115.32C137.329 115.651 137.478 116.083 137.489 116.616C137.489 117.096 137.356 117.528 137.089 117.912C136.822 118.296 136.444 118.6 135.953 118.824C135.473 119.037 134.918 119.144 134.289 119.144ZM58.3329 131.848V133.032H53.4849V136.792H57.4209V137.976H53.4849V143H52.0289V131.848H58.3329ZM63.9154 143.144C63.094 143.144 62.3474 142.957 61.6754 142.584C61.014 142.211 60.4914 141.683 60.1074 141C59.734 140.307 59.5474 139.507 59.5474 138.6C59.5474 137.704 59.7394 136.915 60.1234 136.232C60.518 135.539 61.0514 135.011 61.7234 134.648C62.3954 134.275 63.1474 134.088 63.9794 134.088C64.8114 134.088 65.5634 134.275 66.2354 134.648C66.9074 135.011 67.4354 135.533 67.8194 136.216C68.214 136.899 68.4114 137.693 68.4114 138.6C68.4114 139.507 68.2087 140.307 67.8034 141C67.4087 141.683 66.87 142.211 66.1874 142.584C65.5047 142.957 64.7474 143.144 63.9154 143.144ZM63.9154 141.864C64.438 141.864 64.9287 141.741 65.3874 141.496C65.846 141.251 66.214 140.883 66.4914 140.392C66.7794 139.901 66.9234 139.304 66.9234 138.6C66.9234 137.896 66.7847 137.299 66.5074 136.808C66.23 136.317 65.8674 135.955 65.4194 135.72C64.9714 135.475 64.486 135.352 63.9634 135.352C63.43 135.352 62.9394 135.475 62.4914 135.72C62.054 135.955 61.702 136.317 61.4354 136.808C61.1687 137.299 61.0354 137.896 61.0354 138.6C61.0354 139.315 61.1634 139.917 61.4194 140.408C61.686 140.899 62.038 141.267 62.4754 141.512C62.9127 141.747 63.3927 141.864 63.9154 141.864ZM72.1018 135.432V140.6C72.1018 141.027 72.1924 141.331 72.3738 141.512C72.5551 141.683 72.8698 141.768 73.3177 141.768H74.3898V143H73.0778C72.2671 143 71.6591 142.813 71.2538 142.44C70.8484 142.067 70.6458 141.453 70.6458 140.6V135.432H69.5098V134.232H70.6458V132.024H72.1018V134.232H74.3898V135.432H72.1018ZM79.9779 143.144C79.1565 143.144 78.4099 142.957 77.7379 142.584C77.0765 142.211 76.5539 141.683 76.1699 141C75.7965 140.307 75.6099 139.507 75.6099 138.6C75.6099 137.704 75.8019 136.915 76.1859 136.232C76.5805 135.539 77.1139 135.011 77.7859 134.648C78.4579 134.275 79.2099 134.088 80.0419 134.088C80.8739 134.088 81.6259 134.275 82.2979 134.648C82.9699 135.011 83.4979 135.533 83.8819 136.216C84.2765 136.899 84.4739 137.693 84.4739 138.6C84.4739 139.507 84.2712 140.307 83.8659 141C83.4712 141.683 82.9325 142.211 82.2499 142.584C81.5672 142.957 80.8099 143.144 79.9779 143.144ZM79.9779 141.864C80.5005 141.864 80.9912 141.741 81.4499 141.496C81.9085 141.251 82.2765 140.883 82.5539 140.392C82.8419 139.901 82.9859 139.304 82.9859 138.6C82.9859 137.896 82.8472 137.299 82.5699 136.808C82.2925 136.317 81.9299 135.955 81.4819 135.72C81.0339 135.475 80.5485 135.352 80.0259 135.352C79.4925 135.352 79.0019 135.475 78.5539 135.72C78.1165 135.955 77.7645 136.317 77.4979 136.808C77.2312 137.299 77.0979 137.896 77.0979 138.6C77.0979 139.315 77.2259 139.917 77.4819 140.408C77.7485 140.899 78.1005 141.267 78.5379 141.512C78.9752 141.747 79.4552 141.864 79.9779 141.864ZM90.0043 134.088C90.7616 134.088 91.4229 134.253 91.9883 134.584C92.5643 134.915 92.9909 135.331 93.2683 135.832V134.232H94.7403V143.192C94.7403 143.992 94.5696 144.701 94.2283 145.32C93.8869 145.949 93.3963 146.44 92.7563 146.792C92.1269 147.144 91.3909 147.32 90.5483 147.32C89.3963 147.32 88.4363 147.048 87.6683 146.504C86.9003 145.96 86.4469 145.219 86.3083 144.28H87.7483C87.9083 144.813 88.2389 145.24 88.7403 145.56C89.2416 145.891 89.8443 146.056 90.5483 146.056C91.3483 146.056 91.9989 145.805 92.5003 145.304C93.0123 144.803 93.2683 144.099 93.2683 143.192V141.352C92.9803 141.864 92.5536 142.291 91.9883 142.632C91.4229 142.973 90.7616 143.144 90.0043 143.144C89.2256 143.144 88.5163 142.952 87.8763 142.568C87.2469 142.184 86.7509 141.645 86.3883 140.952C86.0256 140.259 85.8443 139.469 85.8443 138.584C85.8443 137.688 86.0256 136.904 86.3883 136.232C86.7509 135.549 87.2469 135.021 87.8763 134.648C88.5163 134.275 89.2256 134.088 90.0043 134.088ZM93.2683 138.6C93.2683 137.939 93.1349 137.363 92.8683 136.872C92.6016 136.381 92.2389 136.008 91.7803 135.752C91.3323 135.485 90.8363 135.352 90.2923 135.352C89.7483 135.352 89.2523 135.48 88.8043 135.736C88.3563 135.992 87.9989 136.365 87.7323 136.856C87.4656 137.347 87.3323 137.923 87.3323 138.584C87.3323 139.256 87.4656 139.843 87.7323 140.344C87.9989 140.835 88.3563 141.213 88.8043 141.48C89.2523 141.736 89.7483 141.864 90.2923 141.864C90.8363 141.864 91.3323 141.736 91.7803 141.48C92.2389 141.213 92.6016 140.835 92.8683 140.344C93.1349 139.843 93.2683 139.261 93.2683 138.6ZM98.6568 135.656C98.9128 135.155 99.2754 134.765 99.7448 134.488C100.225 134.211 100.806 134.072 101.489 134.072V135.576H101.105C99.4728 135.576 98.6568 136.461 98.6568 138.232V143H97.2008V134.232H98.6568V135.656ZM102.626 138.584C102.626 137.688 102.807 136.904 103.17 136.232C103.532 135.549 104.028 135.021 104.658 134.648C105.298 134.275 106.007 134.088 106.786 134.088C107.554 134.088 108.22 134.253 108.786 134.584C109.351 134.915 109.772 135.331 110.05 135.832V134.232H111.522V143H110.05V141.368C109.762 141.88 109.33 142.307 108.754 142.648C108.188 142.979 107.527 143.144 106.77 143.144C105.991 143.144 105.287 142.952 104.658 142.568C104.028 142.184 103.532 141.645 103.17 140.952C102.807 140.259 102.626 139.469 102.626 138.584ZM110.05 138.6C110.05 137.939 109.916 137.363 109.65 136.872C109.383 136.381 109.02 136.008 108.562 135.752C108.114 135.485 107.618 135.352 107.074 135.352C106.53 135.352 106.034 135.48 105.586 135.736C105.138 135.992 104.78 136.365 104.514 136.856C104.247 137.347 104.114 137.923 104.114 138.584C104.114 139.256 104.247 139.843 104.514 140.344C104.78 140.835 105.138 141.213 105.586 141.48C106.034 141.736 106.53 141.864 107.074 141.864C107.618 141.864 108.114 141.736 108.562 141.48C109.02 141.213 109.383 140.835 109.65 140.344C109.916 139.843 110.05 139.261 110.05 138.6ZM108.914 131.752L105.506 133.576V132.488L108.914 130.488V131.752ZM117.55 135.432H115.71V143H114.254V135.432H113.118V134.232H114.254V133.608C114.254 132.627 114.505 131.912 115.006 131.464C115.518 131.005 116.334 130.776 117.454 130.776V131.992C116.814 131.992 116.361 132.12 116.094 132.376C115.838 132.621 115.71 133.032 115.71 133.608V134.232H117.55V135.432ZM120 132.808C119.722 132.808 119.488 132.712 119.296 132.52C119.104 132.328 119.008 132.093 119.008 131.816C119.008 131.539 119.104 131.304 119.296 131.112C119.488 130.92 119.722 130.824 120 130.824C120.266 130.824 120.49 130.92 120.672 131.112C120.864 131.304 120.96 131.539 120.96 131.816C120.96 132.093 120.864 132.328 120.672 132.52C120.49 132.712 120.266 132.808 120 132.808ZM120.704 134.232V143H119.248V134.232H120.704ZM122.641 138.6C122.641 137.693 122.822 136.904 123.185 136.232C123.548 135.549 124.049 135.021 124.689 134.648C125.34 134.275 126.081 134.088 126.913 134.088C127.99 134.088 128.876 134.349 129.569 134.872C130.273 135.395 130.737 136.12 130.961 137.048H129.393C129.244 136.515 128.95 136.093 128.513 135.784C128.086 135.475 127.553 135.32 126.913 135.32C126.081 135.32 125.409 135.608 124.897 136.184C124.385 136.749 124.129 137.555 124.129 138.6C124.129 139.656 124.385 140.472 124.897 141.048C125.409 141.624 126.081 141.912 126.913 141.912C127.553 141.912 128.086 141.763 128.513 141.464C128.94 141.165 129.233 140.739 129.393 140.184H130.961C130.726 141.08 130.257 141.8 129.553 142.344C128.849 142.877 127.969 143.144 126.913 143.144C126.081 143.144 125.34 142.957 124.689 142.584C124.049 142.211 123.548 141.683 123.185 141C122.822 140.317 122.641 139.517 122.641 138.6ZM132.36 138.584C132.36 137.688 132.541 136.904 132.904 136.232C133.267 135.549 133.763 135.021 134.392 134.648C135.032 134.275 135.741 134.088 136.52 134.088C137.288 134.088 137.955 134.253 138.52 134.584C139.085 134.915 139.507 135.331 139.784 135.832V134.232H141.256V143H139.784V141.368C139.496 141.88 139.064 142.307 138.488 142.648C137.923 142.979 137.261 143.144 136.504 143.144C135.725 143.144 135.021 142.952 134.392 142.568C133.763 142.184 133.267 141.645 132.904 140.952C132.541 140.259 132.36 139.469 132.36 138.584ZM139.784 138.6C139.784 137.939 139.651 137.363 139.384 136.872C139.117 136.381 138.755 136.008 138.296 135.752C137.848 135.485 137.352 135.352 136.808 135.352C136.264 135.352 135.768 135.48 135.32 135.736C134.872 135.992 134.515 136.365 134.248 136.856C133.981 137.347 133.848 137.923 133.848 138.584C133.848 139.256 133.981 139.843 134.248 140.344C134.515 140.835 134.872 141.213 135.32 141.48C135.768 141.736 136.264 141.864 136.808 141.864C137.352 141.864 137.848 141.736 138.296 141.48C138.755 141.213 139.117 140.835 139.384 140.344C139.651 139.843 139.784 139.261 139.784 138.6ZM146.82 143.144C146.148 143.144 145.546 143.032 145.012 142.808C144.479 142.573 144.058 142.253 143.748 141.848C143.439 141.432 143.268 140.957 143.236 140.424H144.74C144.783 140.861 144.986 141.219 145.348 141.496C145.722 141.773 146.207 141.912 146.804 141.912C147.359 141.912 147.796 141.789 148.116 141.544C148.436 141.299 148.596 140.989 148.596 140.616C148.596 140.232 148.426 139.949 148.084 139.768C147.743 139.576 147.215 139.389 146.5 139.208C145.85 139.037 145.316 138.867 144.9 138.696C144.495 138.515 144.143 138.253 143.844 137.912C143.556 137.56 143.412 137.101 143.412 136.536C143.412 136.088 143.546 135.677 143.812 135.304C144.079 134.931 144.458 134.637 144.948 134.424C145.439 134.2 145.999 134.088 146.628 134.088C147.599 134.088 148.383 134.333 148.98 134.824C149.578 135.315 149.898 135.987 149.94 136.84H148.484C148.452 136.381 148.266 136.013 147.924 135.736C147.594 135.459 147.146 135.32 146.58 135.32C146.058 135.32 145.642 135.432 145.332 135.656C145.023 135.88 144.868 136.173 144.868 136.536C144.868 136.824 144.959 137.064 145.14 137.256C145.332 137.437 145.567 137.587 145.844 137.704C146.132 137.811 146.527 137.933 147.028 138.072C147.658 138.243 148.17 138.413 148.564 138.584C148.959 138.744 149.295 138.989 149.572 139.32C149.86 139.651 150.01 140.083 150.02 140.616C150.02 141.096 149.887 141.528 149.62 141.912C149.354 142.296 148.975 142.6 148.484 142.824C148.004 143.037 147.45 143.144 146.82 143.144Z" fill="black"/>
<g clip-path="url(#clip0_1155_8374)">
<path d="M82.6667 54.3333H85C86.2377 54.3333 87.4247 53.8416 88.2998 52.9664C89.175 52.0912 89.6667 50.9043 89.6667 49.6666C89.6667 49.0477 89.9125 48.4543 90.3501 48.0167C90.7877 47.5791 91.3812 47.3333 92 47.3333H106C106.619 47.3333 107.212 47.5791 107.65 48.0167C108.087 48.4543 108.333 49.0477 108.333 49.6666C108.333 50.9043 108.825 52.0912 109.7 52.9664C110.575 53.8416 111.762 54.3333 113 54.3333H115.333C116.571 54.3333 117.758 54.8249 118.633 55.7001C119.508 56.5753 120 57.7622 120 58.9999V79.9999C120 81.2376 119.508 82.4246 118.633 83.2997C117.758 84.1749 116.571 84.6666 115.333 84.6666H82.6667C81.429 84.6666 80.242 84.1749 79.3668 83.2997C78.4917 82.4246 78 81.2376 78 79.9999V58.9999C78 57.7622 78.4917 56.5753 79.3668 55.7001C80.242 54.8249 81.429 54.3333 82.6667 54.3333" stroke="black" stroke-width="2" stroke-linecap="round" stroke-linejoin="round"/>
<path d="M99 75.3333C102.866 75.3333 106 72.1992 106 68.3333C106 64.4673 102.866 61.3333 99 61.3333C95.134 61.3333 92 64.4673 92 68.3333C92 72.1992 95.134 75.3333 99 75.3333Z" stroke="black" stroke-width="2" stroke-linecap="round" stroke-linejoin="round"/>
</g>
</g>
<defs>
<filter id="filter0_d_1155_8374" x="0" y="0" width="198" height="173" filterUnits="userSpaceOnUse" color-interpolation-filters="sRGB">
<feFlood flood-opacity="0" result="BackgroundImageFix"/>
<feColorMatrix in="SourceAlpha" type="matrix" values="0 0 0 0 0 0 0 0 0 0 0 0 0 0 0 0 0 0 127 0" result="hardAlpha"/>
<feOffset dy="1"/>
<feGaussianBlur stdDeviation="6.5"/>
<feComposite in2="hardAlpha" operator="out"/>
<feColorMatrix type="matrix" values="0 0 0 0 0 0 0 0 0 0 0 0 0 0 0 0 0 0 0.05 0"/>
<feBlend mode="normal" in2="BackgroundImageFix" result="effect1_dropShadow_1155_8374"/>
<feBlend mode="normal" in="SourceGraphic" in2="effect1_dropShadow_1155_8374" result="shape"/>
</filter>
<clipPath id="clip0_1155_8374">
<rect width="56" height="56" fill="white" transform="translate(71 38)"/>
</clipPath>
</defs>
</svg>
