<svg width="480" height="487" viewBox="0 0 480 487" fill="none" xmlns="http://www.w3.org/2000/svg">
<path d="M120 162.333L220 324.667" stroke="black" stroke-width="10" stroke-linecap="round"/>
<path d="M354.447 415.979C384.289 363.54 399.999 304.053 399.999 243.5C399.999 182.947 384.289 123.461 354.447 71.021" stroke="black" stroke-width="10" stroke-linecap="round"/>
<path d="M287.846 365.25C308.91 328.234 320 286.242 320 243.5C320 200.757 308.91 158.767 287.846 121.75" stroke="black" stroke-width="10" stroke-linecap="round"/>
<path d="M218.564 324.667C232.606 299.988 240 271.996 240 243.5C240 215.005 232.606 187.011 218.564 162.333" stroke="black" stroke-width="10" stroke-linecap="round"/>
<path d="M121.436 324.667C107.393 299.988 100 271.996 100 243.5C100 215.005 107.393 187.011 121.436 162.333" stroke="black" stroke-width="10" stroke-linecap="round"/>
</svg>
