<svg width="1170" height="254" viewBox="0 0 1170 254" fill="none" xmlns="http://www.w3.org/2000/svg">
<rect x="0.5" y="10.5" width="269" height="229" rx="3.5" stroke="black" stroke-opacity="0.3"/>
<path opacity="0.3" d="M175 80C175 102.091 157.091 120 135 120C112.909 120 95 102.091 95 80C95 57.9086 112.909 40 135 40C157.091 40 175 57.9086 175 80ZM105.907 80C105.907 96.0675 118.932 109.093 135 109.093C151.068 109.093 164.093 96.0675 164.093 80C164.093 63.9325 151.068 50.9071 135 50.9071C118.932 50.9071 105.907 63.9325 105.907 80Z" fill="#2F2E30"/>
<circle cx="135" cy="80" r="29" fill="black"/>
<path d="M149.142 65H142.488L143.322 73.3333C143.322 73.3333 144.988 75 147.488 75C148.801 75.0017 150.068 74.524 151.053 73.6567C151.157 73.5594 151.235 73.4372 151.279 73.3016C151.322 73.166 151.331 73.0214 151.303 72.8817L150.127 65.8333C150.087 65.6005 149.967 65.3891 149.786 65.2366C149.606 65.084 149.378 65.0002 149.142 65V65Z" stroke="white" stroke-width="2"/>
<path d="M142.488 65L143.322 73.3333C143.322 73.3333 141.655 75 139.155 75C136.655 75 134.988 73.3333 134.988 73.3333V65H142.488Z" stroke="#FAFAFA" stroke-width="2"/>
<path d="M134.989 65V73.3333C134.989 73.3333 133.322 75 130.822 75C128.322 75 126.655 73.3333 126.655 73.3333L127.489 65H134.989Z" stroke="#FAFAFA" stroke-width="2"/>
<path d="M127.488 65H120.837C120.6 64.9999 120.371 65.0838 120.19 65.2367C120.01 65.3896 119.889 65.6016 119.85 65.835L118.675 72.8833C118.647 73.0231 118.656 73.1676 118.7 73.3032C118.743 73.4387 118.821 73.5609 118.925 73.6583C119.472 74.1417 120.693 75.0017 122.488 75.0017C124.988 75.0017 126.655 73.335 126.655 73.335L127.488 65.0017V65Z" stroke="#FAFAFA" stroke-width="2"/>
<path d="M120 75V91.6667C120 92.5507 120.351 93.3986 120.976 94.0237C121.601 94.6488 122.449 95 123.333 95H146.667C147.551 95 148.399 94.6488 149.024 94.0237C149.649 93.3986 150 92.5507 150 91.6667V75" stroke="#FAFAFA" stroke-width="2"/>
<path d="M139.722 95V85C139.722 84.1159 139.37 83.2681 138.745 82.6429C138.12 82.0178 137.272 81.6666 136.388 81.6666H133.055C132.171 81.6666 131.323 82.0178 130.698 82.6429C130.073 83.2681 129.722 84.1159 129.722 85V95" stroke="#FAFAFA" stroke-width="2" stroke-miterlimit="16"/>
<path d="M95.5114 147.727V171H90.5909V152.398H90.4545L85.125 155.739V151.375L90.8864 147.727H95.5114ZM111.448 171.511C109.493 171.504 107.811 171.023 106.402 170.068C105.001 169.114 103.921 167.731 103.164 165.92C102.414 164.11 102.042 161.932 102.05 159.386C102.05 156.848 102.425 154.686 103.175 152.898C103.932 151.11 105.012 149.75 106.414 148.818C107.823 147.879 109.501 147.409 111.448 147.409C113.395 147.409 115.069 147.879 116.47 148.818C117.879 149.758 118.963 151.121 119.72 152.909C120.478 154.689 120.853 156.848 120.845 159.386C120.845 161.939 120.467 164.121 119.709 165.932C118.959 167.742 117.883 169.125 116.482 170.08C115.08 171.034 113.402 171.511 111.448 171.511ZM111.448 167.432C112.781 167.432 113.845 166.761 114.641 165.42C115.436 164.08 115.83 162.068 115.823 159.386C115.823 157.621 115.641 156.152 115.277 154.977C114.921 153.803 114.414 152.92 113.754 152.33C113.103 151.739 112.334 151.443 111.448 151.443C110.122 151.443 109.061 152.106 108.266 153.432C107.47 154.758 107.069 156.742 107.061 159.386C107.061 161.174 107.239 162.667 107.595 163.864C107.959 165.053 108.47 165.947 109.129 166.545C109.789 167.136 110.561 167.432 111.448 167.432ZM127.571 171.295C126.821 171.295 126.177 171.03 125.64 170.5C125.109 169.962 124.844 169.318 124.844 168.568C124.844 167.826 125.109 167.189 125.64 166.659C126.177 166.129 126.821 165.864 127.571 165.864C128.299 165.864 128.935 166.129 129.48 166.659C130.026 167.189 130.299 167.826 130.299 168.568C130.299 169.068 130.17 169.527 129.912 169.943C129.662 170.352 129.333 170.682 128.924 170.932C128.515 171.174 128.064 171.295 127.571 171.295ZM143.82 171.318C142.214 171.318 140.782 171.023 139.525 170.432C138.275 169.841 137.282 169.027 136.547 167.989C135.813 166.951 135.43 165.761 135.4 164.42H140.172C140.225 165.322 140.604 166.053 141.309 166.614C142.013 167.174 142.85 167.455 143.82 167.455C144.593 167.455 145.275 167.284 145.866 166.943C146.464 166.595 146.93 166.114 147.263 165.5C147.604 164.879 147.775 164.167 147.775 163.364C147.775 162.545 147.6 161.826 147.252 161.205C146.911 160.583 146.438 160.098 145.831 159.75C145.225 159.402 144.532 159.223 143.752 159.216C143.07 159.216 142.407 159.356 141.763 159.636C141.127 159.917 140.631 160.299 140.275 160.784L135.9 160L137.002 147.727H151.229V151.75H141.059L140.456 157.58H140.593C141.002 157.004 141.619 156.527 142.445 156.148C143.271 155.769 144.195 155.58 145.218 155.58C146.619 155.58 147.869 155.909 148.968 156.568C150.066 157.227 150.934 158.133 151.57 159.284C152.206 160.428 152.521 161.746 152.513 163.239C152.521 164.807 152.157 166.201 151.422 167.42C150.695 168.633 149.676 169.587 148.366 170.284C147.063 170.973 145.547 171.318 143.82 171.318ZM157.361 147.727H163.43L169.839 163.364H170.111L176.521 147.727H182.589V171H177.816V155.852H177.623L171.6 170.886H168.35L162.327 155.795H162.134V171H157.361V147.727Z" fill="black"/>
<path d="M78.0318 202.816H81.9358V204H76.5758V192.848H78.0318V202.816ZM87.306 204.144C86.4847 204.144 85.738 203.957 85.066 203.584C84.4047 203.211 83.882 202.683 83.498 202C83.1247 201.307 82.938 200.507 82.938 199.6C82.938 198.704 83.13 197.915 83.514 197.232C83.9087 196.539 84.442 196.011 85.114 195.648C85.786 195.275 86.538 195.088 87.37 195.088C88.202 195.088 88.954 195.275 89.626 195.648C90.298 196.011 90.826 196.533 91.21 197.216C91.6047 197.899 91.802 198.693 91.802 199.6C91.802 200.507 91.5993 201.307 91.194 202C90.7993 202.683 90.2607 203.211 89.578 203.584C88.8953 203.957 88.138 204.144 87.306 204.144ZM87.306 202.864C87.8287 202.864 88.3193 202.741 88.778 202.496C89.2367 202.251 89.6047 201.883 89.882 201.392C90.17 200.901 90.314 200.304 90.314 199.6C90.314 198.896 90.1753 198.299 89.898 197.808C89.6207 197.317 89.258 196.955 88.81 196.72C88.362 196.475 87.8767 196.352 87.354 196.352C86.8207 196.352 86.33 196.475 85.882 196.72C85.4447 196.955 85.0927 197.317 84.826 197.808C84.5593 198.299 84.426 198.896 84.426 199.6C84.426 200.315 84.554 200.917 84.81 201.408C85.0767 201.899 85.4287 202.267 85.866 202.512C86.3033 202.747 86.7833 202.864 87.306 202.864ZM94.5004 193.808C94.223 193.808 93.9884 193.712 93.7964 193.52C93.615 193.328 93.5244 193.093 93.5244 192.816C93.5244 192.539 93.615 192.304 93.7964 192.112C93.9884 191.92 94.223 191.824 94.5004 191.824C94.7777 191.824 95.007 191.92 95.1884 192.112C95.3804 192.304 95.4764 192.539 95.4764 192.816C95.4764 193.093 95.3804 193.328 95.1884 193.52C95.007 193.712 94.7777 193.808 94.5004 193.808ZM95.2204 205.904C95.2204 206.683 95.023 207.253 94.6284 207.616C94.2337 207.979 93.6577 208.16 92.9004 208.16H92.0524V206.928H92.6604C93.0657 206.928 93.3484 206.848 93.5084 206.688C93.679 206.528 93.7644 206.256 93.7644 205.872V195.232H95.2204V205.904ZM97.1411 199.584C97.1411 198.688 97.3225 197.904 97.6851 197.232C98.0478 196.549 98.5438 196.021 99.1731 195.648C99.8131 195.275 100.522 195.088 101.301 195.088C102.069 195.088 102.736 195.253 103.301 195.584C103.866 195.915 104.288 196.331 104.565 196.832V195.232H106.037V204H104.565V202.368C104.277 202.88 103.845 203.307 103.269 203.648C102.704 203.979 102.042 204.144 101.285 204.144C100.506 204.144 99.8025 203.952 99.1731 203.568C98.5438 203.184 98.0478 202.645 97.6851 201.952C97.3225 201.259 97.1411 200.469 97.1411 199.584ZM104.565 199.6C104.565 198.939 104.432 198.363 104.165 197.872C103.898 197.381 103.536 197.008 103.077 196.752C102.629 196.485 102.133 196.352 101.589 196.352C101.045 196.352 100.549 196.48 100.101 196.736C99.6531 196.992 99.2958 197.365 99.0291 197.856C98.7625 198.347 98.6291 198.923 98.6291 199.584C98.6291 200.256 98.7625 200.843 99.0291 201.344C99.2958 201.835 99.6531 202.213 100.101 202.48C100.549 202.736 101.045 202.864 101.589 202.864C102.133 202.864 102.629 202.736 103.077 202.48C103.536 202.213 103.898 201.835 104.165 201.344C104.432 200.843 104.565 200.261 104.565 199.6ZM111.602 204.144C110.93 204.144 110.327 204.032 109.794 203.808C109.26 203.573 108.839 203.253 108.53 202.848C108.22 202.432 108.05 201.957 108.018 201.424H109.522C109.564 201.861 109.767 202.219 110.13 202.496C110.503 202.773 110.988 202.912 111.586 202.912C112.14 202.912 112.578 202.789 112.898 202.544C113.218 202.299 113.378 201.989 113.378 201.616C113.378 201.232 113.207 200.949 112.866 200.768C112.524 200.576 111.996 200.389 111.282 200.208C110.631 200.037 110.098 199.867 109.682 199.696C109.276 199.515 108.924 199.253 108.626 198.912C108.338 198.56 108.194 198.101 108.194 197.536C108.194 197.088 108.327 196.677 108.594 196.304C108.86 195.931 109.239 195.637 109.73 195.424C110.22 195.2 110.78 195.088 111.41 195.088C112.38 195.088 113.164 195.333 113.762 195.824C114.359 196.315 114.679 196.987 114.722 197.84H113.266C113.234 197.381 113.047 197.013 112.706 196.736C112.375 196.459 111.927 196.32 111.362 196.32C110.839 196.32 110.423 196.432 110.114 196.656C109.804 196.88 109.65 197.173 109.65 197.536C109.65 197.824 109.74 198.064 109.922 198.256C110.114 198.437 110.348 198.587 110.626 198.704C110.914 198.811 111.308 198.933 111.81 199.072C112.439 199.243 112.951 199.413 113.346 199.584C113.74 199.744 114.076 199.989 114.354 200.32C114.642 200.651 114.791 201.083 114.802 201.616C114.802 202.096 114.668 202.528 114.402 202.912C114.135 203.296 113.756 203.6 113.266 203.824C112.786 204.037 112.231 204.144 111.602 204.144ZM128.579 196.112C128.579 197.04 128.259 197.813 127.619 198.432C126.989 199.04 126.024 199.344 124.723 199.344H122.579V204H121.123V192.848H124.723C125.981 192.848 126.936 193.152 127.587 193.76C128.248 194.368 128.579 195.152 128.579 196.112ZM124.723 198.144C125.533 198.144 126.131 197.968 126.515 197.616C126.899 197.264 127.091 196.763 127.091 196.112C127.091 194.736 126.301 194.048 124.723 194.048H122.579V198.144H124.723ZM129.844 199.584C129.844 198.688 130.026 197.904 130.388 197.232C130.751 196.549 131.247 196.021 131.876 195.648C132.516 195.275 133.226 195.088 134.004 195.088C134.772 195.088 135.439 195.253 136.004 195.584C136.57 195.915 136.991 196.331 137.268 196.832V195.232H138.74V204H137.268V202.368C136.98 202.88 136.548 203.307 135.972 203.648C135.407 203.979 134.746 204.144 133.988 204.144C133.21 204.144 132.506 203.952 131.876 203.568C131.247 203.184 130.751 202.645 130.388 201.952C130.026 201.259 129.844 200.469 129.844 199.584ZM137.268 199.6C137.268 198.939 137.135 198.363 136.868 197.872C136.602 197.381 136.239 197.008 135.78 196.752C135.332 196.485 134.836 196.352 134.292 196.352C133.748 196.352 133.252 196.48 132.804 196.736C132.356 196.992 131.999 197.365 131.732 197.856C131.466 198.347 131.332 198.923 131.332 199.584C131.332 200.256 131.466 200.843 131.732 201.344C131.999 201.835 132.356 202.213 132.804 202.48C133.252 202.736 133.748 202.864 134.292 202.864C134.836 202.864 135.332 202.736 135.78 202.48C136.239 202.213 136.602 201.835 136.868 201.344C137.135 200.843 137.268 200.261 137.268 199.6ZM142.657 196.656C142.913 196.155 143.275 195.765 143.745 195.488C144.225 195.211 144.806 195.072 145.489 195.072V196.576H145.105C143.473 196.576 142.657 197.461 142.657 199.232V204H141.201V195.232H142.657V196.656ZM146.626 199.6C146.626 198.693 146.807 197.904 147.17 197.232C147.532 196.549 148.034 196.021 148.674 195.648C149.324 195.275 150.066 195.088 150.898 195.088C151.975 195.088 152.86 195.349 153.554 195.872C154.258 196.395 154.722 197.12 154.946 198.048H153.378C153.228 197.515 152.935 197.093 152.498 196.784C152.071 196.475 151.538 196.32 150.898 196.32C150.066 196.32 149.394 196.608 148.882 197.184C148.37 197.749 148.114 198.555 148.114 199.6C148.114 200.656 148.37 201.472 148.882 202.048C149.394 202.624 150.066 202.912 150.898 202.912C151.538 202.912 152.071 202.763 152.498 202.464C152.924 202.165 153.218 201.739 153.378 201.184H154.946C154.711 202.08 154.242 202.8 153.538 203.344C152.834 203.877 151.954 204.144 150.898 204.144C150.066 204.144 149.324 203.957 148.674 203.584C148.034 203.211 147.532 202.683 147.17 202C146.807 201.317 146.626 200.517 146.626 199.6ZM164.888 199.28C164.888 199.557 164.872 199.851 164.84 200.16H157.832C157.886 201.024 158.179 201.701 158.712 202.192C159.256 202.672 159.912 202.912 160.68 202.912C161.31 202.912 161.832 202.768 162.248 202.48C162.675 202.181 162.974 201.787 163.144 201.296H164.712C164.478 202.139 164.008 202.827 163.304 203.36C162.6 203.883 161.726 204.144 160.68 204.144C159.848 204.144 159.102 203.957 158.44 203.584C157.79 203.211 157.278 202.683 156.904 202C156.531 201.307 156.344 200.507 156.344 199.6C156.344 198.693 156.526 197.899 156.888 197.216C157.251 196.533 157.758 196.011 158.408 195.648C159.07 195.275 159.827 195.088 160.68 195.088C161.512 195.088 162.248 195.269 162.888 195.632C163.528 195.995 164.019 196.496 164.36 197.136C164.712 197.765 164.888 198.48 164.888 199.28ZM163.384 198.976C163.384 198.421 163.262 197.947 163.016 197.552C162.771 197.147 162.435 196.843 162.008 196.64C161.592 196.427 161.128 196.32 160.616 196.32C159.88 196.32 159.251 196.555 158.728 197.024C158.216 197.493 157.923 198.144 157.848 198.976H163.384ZM167.562 193.808C167.285 193.808 167.05 193.712 166.858 193.52C166.666 193.328 166.57 193.093 166.57 192.816C166.57 192.539 166.666 192.304 166.858 192.112C167.05 191.92 167.285 191.824 167.562 191.824C167.829 191.824 168.053 191.92 168.234 192.112C168.426 192.304 168.522 192.539 168.522 192.816C168.522 193.093 168.426 193.328 168.234 193.52C168.053 193.712 167.829 193.808 167.562 193.808ZM168.266 195.232V204H166.81V195.232H168.266ZM172.204 196.656C172.46 196.155 172.822 195.765 173.292 195.488C173.772 195.211 174.353 195.072 175.036 195.072V196.576H174.652C173.02 196.576 172.204 197.461 172.204 199.232V204H170.748V195.232H172.204V196.656ZM176.172 199.584C176.172 198.688 176.354 197.904 176.716 197.232C177.079 196.549 177.575 196.021 178.204 195.648C178.844 195.275 179.554 195.088 180.332 195.088C181.1 195.088 181.767 195.253 182.332 195.584C182.898 195.915 183.319 196.331 183.596 196.832V195.232H185.068V204H183.596V202.368C183.308 202.88 182.876 203.307 182.3 203.648C181.735 203.979 181.074 204.144 180.316 204.144C179.538 204.144 178.834 203.952 178.204 203.568C177.575 203.184 177.079 202.645 176.716 201.952C176.354 201.259 176.172 200.469 176.172 199.584ZM183.596 199.6C183.596 198.939 183.463 198.363 183.196 197.872C182.93 197.381 182.567 197.008 182.108 196.752C181.66 196.485 181.164 196.352 180.62 196.352C180.076 196.352 179.58 196.48 179.132 196.736C178.684 196.992 178.327 197.365 178.06 197.856C177.794 198.347 177.66 198.923 177.66 199.584C177.66 200.256 177.794 200.843 178.06 201.344C178.327 201.835 178.684 202.213 179.132 202.48C179.58 202.736 180.076 202.864 180.62 202.864C181.164 202.864 181.66 202.736 182.108 202.48C182.567 202.213 182.93 201.835 183.196 201.344C183.463 200.843 183.596 200.261 183.596 199.6ZM190.633 204.144C189.961 204.144 189.358 204.032 188.825 203.808C188.292 203.573 187.87 203.253 187.561 202.848C187.252 202.432 187.081 201.957 187.049 201.424H188.553C188.596 201.861 188.798 202.219 189.161 202.496C189.534 202.773 190.02 202.912 190.617 202.912C191.172 202.912 191.609 202.789 191.929 202.544C192.249 202.299 192.409 201.989 192.409 201.616C192.409 201.232 192.238 200.949 191.897 200.768C191.556 200.576 191.028 200.389 190.313 200.208C189.662 200.037 189.129 199.867 188.713 199.696C188.308 199.515 187.956 199.253 187.657 198.912C187.369 198.56 187.225 198.101 187.225 197.536C187.225 197.088 187.358 196.677 187.625 196.304C187.892 195.931 188.27 195.637 188.761 195.424C189.252 195.2 189.812 195.088 190.441 195.088C191.412 195.088 192.196 195.333 192.793 195.824C193.39 196.315 193.71 196.987 193.753 197.84H192.297C192.265 197.381 192.078 197.013 191.737 196.736C191.406 196.459 190.958 196.32 190.393 196.32C189.87 196.32 189.454 196.432 189.145 196.656C188.836 196.88 188.681 197.173 188.681 197.536C188.681 197.824 188.772 198.064 188.953 198.256C189.145 198.437 189.38 198.587 189.657 198.704C189.945 198.811 190.34 198.933 190.841 199.072C191.47 199.243 191.982 199.413 192.377 199.584C192.772 199.744 193.108 199.989 193.385 200.32C193.673 200.651 193.822 201.083 193.833 201.616C193.833 202.096 193.7 202.528 193.433 202.912C193.166 203.296 192.788 203.6 192.297 203.824C191.817 204.037 191.262 204.144 190.633 204.144Z" fill="black"/>
<g filter="url(#filter0_d_246_4830)">
<rect x="300" y="10" width="270" height="230" rx="4" fill="#E87B38"/>
<path opacity="0.3" d="M475.5 82C475.5 104.091 457.591 122 435.5 122C413.409 122 395.5 104.091 395.5 82C395.5 59.9086 413.409 42 435.5 42C457.591 42 475.5 59.9086 475.5 82ZM406.407 82C406.407 98.0675 419.432 111.093 435.5 111.093C451.568 111.093 464.593 98.0675 464.593 82C464.593 65.9325 451.568 52.9071 435.5 52.9071C419.432 52.9071 406.407 65.9325 406.407 82Z" fill="white"/>
<circle cx="435.5" cy="82" r="29" fill="white"/>
<path d="M435.5 99.2728C445.04 99.2728 452.773 91.5395 452.773 82C452.773 72.4606 445.04 64.7273 435.5 64.7273C425.961 64.7273 418.228 72.4606 418.228 82C418.228 91.5395 425.961 99.2728 435.5 99.2728Z" stroke="black" stroke-width="2" stroke-linecap="round" stroke-linejoin="round"/>
<path d="M440.591 76.547C440.262 75.9758 439.783 75.505 439.207 75.1848C438.63 74.8646 437.978 74.7072 437.319 74.7294H433.682C432.718 74.7294 431.793 75.1124 431.111 75.7941C430.429 76.4759 430.046 77.4005 430.046 78.3647C430.046 79.3288 430.429 80.2535 431.111 80.9353C431.793 81.617 432.718 82 433.682 82H437.319C438.283 82 439.208 82.383 439.89 83.0648C440.572 83.7465 440.955 84.6712 440.955 85.6354C440.955 86.5995 440.572 87.5242 439.89 88.2059C439.208 88.8877 438.283 89.2707 437.319 89.2707H433.682C433.023 89.2929 432.37 89.1354 431.794 88.8153C431.217 88.4951 430.739 88.0242 430.41 87.453" stroke="black" stroke-width="2.75" stroke-linecap="round" stroke-linejoin="round"/>
<path d="M435.5 70.1818V74.1212M435.5 89.8787V93.8181" stroke="black" stroke-width="2.75" stroke-linecap="round" stroke-linejoin="round"/>
<path d="M408.489 173.318C406.792 173.318 405.28 173.027 403.955 172.443C402.636 171.852 401.595 171.042 400.83 170.011C400.072 168.973 399.682 167.777 399.659 166.42H404.614C404.644 166.989 404.83 167.489 405.17 167.92C405.519 168.345 405.981 168.674 406.557 168.909C407.133 169.144 407.78 169.261 408.5 169.261C409.25 169.261 409.913 169.129 410.489 168.864C411.064 168.598 411.515 168.231 411.841 167.761C412.167 167.292 412.33 166.75 412.33 166.136C412.33 165.515 412.155 164.966 411.807 164.489C411.466 164.004 410.973 163.625 410.33 163.352C409.693 163.08 408.936 162.943 408.057 162.943H405.886V159.33H408.057C408.799 159.33 409.455 159.201 410.023 158.943C410.598 158.686 411.045 158.33 411.364 157.875C411.682 157.413 411.841 156.875 411.841 156.261C411.841 155.678 411.701 155.167 411.42 154.727C411.148 154.28 410.761 153.932 410.261 153.682C409.769 153.432 409.193 153.307 408.534 153.307C407.867 153.307 407.258 153.428 406.705 153.67C406.152 153.905 405.708 154.242 405.375 154.682C405.042 155.121 404.864 155.636 404.841 156.227H400.125C400.148 154.886 400.53 153.705 401.273 152.682C402.015 151.659 403.015 150.86 404.273 150.284C405.538 149.701 406.966 149.409 408.557 149.409C410.163 149.409 411.568 149.701 412.773 150.284C413.977 150.867 414.913 151.655 415.58 152.648C416.254 153.633 416.587 154.739 416.58 155.966C416.587 157.269 416.182 158.356 415.364 159.227C414.553 160.098 413.496 160.652 412.193 160.886V161.068C413.905 161.288 415.208 161.883 416.102 162.852C417.004 163.814 417.451 165.019 417.443 166.466C417.451 167.792 417.068 168.97 416.295 170C415.53 171.03 414.473 171.841 413.125 172.432C411.777 173.023 410.231 173.318 408.489 173.318ZM430.862 173.318C429.165 173.318 427.654 173.027 426.328 172.443C425.01 171.852 423.968 171.042 423.203 170.011C422.446 168.973 422.056 167.777 422.033 166.42H426.987C427.018 166.989 427.203 167.489 427.544 167.92C427.893 168.345 428.355 168.674 428.931 168.909C429.506 169.144 430.154 169.261 430.874 169.261C431.624 169.261 432.287 169.129 432.862 168.864C433.438 168.598 433.889 168.231 434.215 167.761C434.54 167.292 434.703 166.75 434.703 166.136C434.703 165.515 434.529 164.966 434.181 164.489C433.84 164.004 433.347 163.625 432.703 163.352C432.067 163.08 431.309 162.943 430.431 162.943H428.26V159.33H430.431C431.173 159.33 431.828 159.201 432.396 158.943C432.972 158.686 433.419 158.33 433.737 157.875C434.056 157.413 434.215 156.875 434.215 156.261C434.215 155.678 434.075 155.167 433.794 154.727C433.521 154.28 433.135 153.932 432.635 153.682C432.143 153.432 431.567 153.307 430.908 153.307C430.241 153.307 429.631 153.428 429.078 153.67C428.525 153.905 428.082 154.242 427.749 154.682C427.415 155.121 427.237 155.636 427.215 156.227H422.499C422.521 154.886 422.904 153.705 423.646 152.682C424.389 151.659 425.389 150.86 426.646 150.284C427.912 149.701 429.34 149.409 430.931 149.409C432.537 149.409 433.942 149.701 435.146 150.284C436.351 150.867 437.287 151.655 437.953 152.648C438.628 153.633 438.961 154.739 438.953 155.966C438.961 157.269 438.556 158.356 437.737 159.227C436.927 160.098 435.87 160.652 434.567 160.886V161.068C436.279 161.288 437.582 161.883 438.476 162.852C439.378 163.814 439.825 165.019 439.817 166.466C439.825 167.792 439.442 168.97 438.669 170C437.904 171.03 436.847 171.841 435.499 172.432C434.15 173.023 432.605 173.318 430.862 173.318ZM444.77 149.727H450.838L457.248 165.364H457.52L463.929 149.727H469.998V173H465.225V157.852H465.032L459.009 172.886H455.759L449.736 157.795H449.543V173H444.77V149.727Z" fill="white"/>
<path d="M380.448 190.848L376.24 202H374.56L370.352 190.848H371.904L375.408 200.464L378.912 190.848H380.448ZM390.045 197.28C390.045 197.557 390.029 197.851 389.997 198.16H382.989C383.042 199.024 383.335 199.701 383.869 200.192C384.413 200.672 385.069 200.912 385.837 200.912C386.466 200.912 386.989 200.768 387.405 200.48C387.831 200.181 388.13 199.787 388.301 199.296H389.869C389.634 200.139 389.165 200.827 388.461 201.36C387.757 201.883 386.882 202.144 385.837 202.144C385.005 202.144 384.258 201.957 383.597 201.584C382.946 201.211 382.434 200.683 382.061 200C381.687 199.307 381.501 198.507 381.501 197.6C381.501 196.693 381.682 195.899 382.045 195.216C382.407 194.533 382.914 194.011 383.565 193.648C384.226 193.275 384.983 193.088 385.837 193.088C386.669 193.088 387.405 193.269 388.045 193.632C388.685 193.995 389.175 194.496 389.517 195.136C389.869 195.765 390.045 196.48 390.045 197.28ZM388.541 196.976C388.541 196.421 388.418 195.947 388.173 195.552C387.927 195.147 387.591 194.843 387.165 194.64C386.749 194.427 386.285 194.32 385.773 194.32C385.037 194.32 384.407 194.555 383.885 195.024C383.373 195.493 383.079 196.144 383.005 196.976H388.541ZM396.238 193.072C397.305 193.072 398.169 193.397 398.83 194.048C399.492 194.688 399.822 195.616 399.822 196.832V202H398.382V197.04C398.382 196.165 398.164 195.499 397.726 195.04C397.289 194.571 396.692 194.336 395.934 194.336C395.166 194.336 394.553 194.576 394.094 195.056C393.646 195.536 393.422 196.235 393.422 197.152V202H391.966V193.232H393.422V194.48C393.71 194.032 394.1 193.685 394.59 193.44C395.092 193.195 395.641 193.072 396.238 193.072ZM401.657 197.584C401.657 196.688 401.838 195.904 402.201 195.232C402.563 194.549 403.059 194.021 403.689 193.648C404.329 193.275 405.043 193.088 405.833 193.088C406.515 193.088 407.15 193.248 407.737 193.568C408.323 193.877 408.771 194.288 409.081 194.8V190.16H410.553V202H409.081V200.352C408.793 200.875 408.366 201.307 407.801 201.648C407.235 201.979 406.574 202.144 405.817 202.144C405.038 202.144 404.329 201.952 403.689 201.568C403.059 201.184 402.563 200.645 402.201 199.952C401.838 199.259 401.657 198.469 401.657 197.584ZM409.081 197.6C409.081 196.939 408.947 196.363 408.681 195.872C408.414 195.381 408.051 195.008 407.593 194.752C407.145 194.485 406.649 194.352 406.105 194.352C405.561 194.352 405.065 194.48 404.617 194.736C404.169 194.992 403.811 195.365 403.545 195.856C403.278 196.347 403.145 196.923 403.145 197.584C403.145 198.256 403.278 198.843 403.545 199.344C403.811 199.835 404.169 200.213 404.617 200.48C405.065 200.736 405.561 200.864 406.105 200.864C406.649 200.864 407.145 200.736 407.593 200.48C408.051 200.213 408.414 199.835 408.681 199.344C408.947 198.843 409.081 198.261 409.081 197.6ZM412.469 197.584C412.469 196.688 412.651 195.904 413.013 195.232C413.376 194.549 413.872 194.021 414.501 193.648C415.141 193.275 415.851 193.088 416.629 193.088C417.397 193.088 418.064 193.253 418.629 193.584C419.195 193.915 419.616 194.331 419.893 194.832V193.232H421.365V202H419.893V200.368C419.605 200.88 419.173 201.307 418.597 201.648C418.032 201.979 417.371 202.144 416.613 202.144C415.835 202.144 415.131 201.952 414.501 201.568C413.872 201.184 413.376 200.645 413.013 199.952C412.651 199.259 412.469 198.469 412.469 197.584ZM419.893 197.6C419.893 196.939 419.76 196.363 419.493 195.872C419.227 195.381 418.864 195.008 418.405 194.752C417.957 194.485 417.461 194.352 416.917 194.352C416.373 194.352 415.877 194.48 415.429 194.736C414.981 194.992 414.624 195.365 414.357 195.856C414.091 196.347 413.957 196.923 413.957 197.584C413.957 198.256 414.091 198.843 414.357 199.344C414.624 199.835 414.981 200.213 415.429 200.48C415.877 200.736 416.373 200.864 416.917 200.864C417.461 200.864 417.957 200.736 418.405 200.48C418.864 200.213 419.227 199.835 419.493 199.344C419.76 198.843 419.893 198.261 419.893 197.6ZM426.93 202.144C426.258 202.144 425.655 202.032 425.122 201.808C424.588 201.573 424.167 201.253 423.858 200.848C423.548 200.432 423.378 199.957 423.346 199.424H424.85C424.892 199.861 425.095 200.219 425.458 200.496C425.831 200.773 426.316 200.912 426.914 200.912C427.468 200.912 427.906 200.789 428.226 200.544C428.546 200.299 428.706 199.989 428.706 199.616C428.706 199.232 428.535 198.949 428.194 198.768C427.852 198.576 427.324 198.389 426.61 198.208C425.959 198.037 425.426 197.867 425.01 197.696C424.604 197.515 424.252 197.253 423.954 196.912C423.666 196.56 423.522 196.101 423.522 195.536C423.522 195.088 423.655 194.677 423.922 194.304C424.188 193.931 424.567 193.637 425.058 193.424C425.548 193.2 426.108 193.088 426.738 193.088C427.708 193.088 428.492 193.333 429.09 193.824C429.687 194.315 430.007 194.987 430.05 195.84H428.594C428.562 195.381 428.375 195.013 428.034 194.736C427.703 194.459 427.255 194.32 426.69 194.32C426.167 194.32 425.751 194.432 425.442 194.656C425.132 194.88 424.978 195.173 424.978 195.536C424.978 195.824 425.068 196.064 425.25 196.256C425.442 196.437 425.676 196.587 425.954 196.704C426.242 196.811 426.636 196.933 427.138 197.072C427.767 197.243 428.279 197.413 428.674 197.584C429.068 197.744 429.404 197.989 429.682 198.32C429.97 198.651 430.119 199.083 430.13 199.616C430.13 200.096 429.996 200.528 429.73 200.912C429.463 201.296 429.084 201.6 428.594 201.824C428.114 202.037 427.559 202.144 426.93 202.144ZM447.763 190.928V202H446.307V193.744L442.627 202H441.603L437.907 193.728V202H436.451V190.928H438.019L442.115 200.08L446.211 190.928H447.763ZM458.232 197.28C458.232 197.557 458.216 197.851 458.184 198.16H451.176C451.229 199.024 451.523 199.701 452.056 200.192C452.6 200.672 453.256 200.912 454.024 200.912C454.653 200.912 455.176 200.768 455.592 200.48C456.019 200.181 456.317 199.787 456.488 199.296H458.056C457.821 200.139 457.352 200.827 456.648 201.36C455.944 201.883 455.069 202.144 454.024 202.144C453.192 202.144 452.445 201.957 451.784 201.584C451.133 201.211 450.621 200.683 450.248 200C449.875 199.307 449.688 198.507 449.688 197.6C449.688 196.693 449.869 195.899 450.232 195.216C450.595 194.533 451.101 194.011 451.752 193.648C452.413 193.275 453.171 193.088 454.024 193.088C454.856 193.088 455.592 193.269 456.232 193.632C456.872 193.995 457.363 194.496 457.704 195.136C458.056 195.765 458.232 196.48 458.232 197.28ZM456.728 196.976C456.728 196.421 456.605 195.947 456.36 195.552C456.115 195.147 455.779 194.843 455.352 194.64C454.936 194.427 454.472 194.32 453.96 194.32C453.224 194.32 452.595 194.555 452.072 195.024C451.56 195.493 451.267 196.144 451.192 196.976H456.728ZM464.426 193.072C465.493 193.072 466.357 193.397 467.018 194.048C467.679 194.688 468.01 195.616 468.01 196.832V202H466.57V197.04C466.57 196.165 466.351 195.499 465.914 195.04C465.477 194.571 464.879 194.336 464.122 194.336C463.354 194.336 462.741 194.576 462.282 195.056C461.834 195.536 461.61 196.235 461.61 197.152V202H460.154V193.232H461.61V194.48C461.898 194.032 462.287 193.685 462.778 193.44C463.279 193.195 463.829 193.072 464.426 193.072ZM473.492 202.144C472.82 202.144 472.218 202.032 471.684 201.808C471.151 201.573 470.73 201.253 470.42 200.848C470.111 200.432 469.94 199.957 469.908 199.424H471.412C471.455 199.861 471.658 200.219 472.02 200.496C472.394 200.773 472.879 200.912 473.476 200.912C474.031 200.912 474.468 200.789 474.788 200.544C475.108 200.299 475.268 199.989 475.268 199.616C475.268 199.232 475.098 198.949 474.756 198.768C474.415 198.576 473.887 198.389 473.172 198.208C472.522 198.037 471.988 197.867 471.572 197.696C471.167 197.515 470.815 197.253 470.516 196.912C470.228 196.56 470.084 196.101 470.084 195.536C470.084 195.088 470.218 194.677 470.484 194.304C470.751 193.931 471.13 193.637 471.62 193.424C472.111 193.2 472.671 193.088 473.3 193.088C474.271 193.088 475.055 193.333 475.652 193.824C476.25 194.315 476.57 194.987 476.612 195.84H475.156C475.124 195.381 474.938 195.013 474.596 194.736C474.266 194.459 473.818 194.32 473.252 194.32C472.73 194.32 472.314 194.432 472.004 194.656C471.695 194.88 471.54 195.173 471.54 195.536C471.54 195.824 471.631 196.064 471.812 196.256C472.004 196.437 472.239 196.587 472.516 196.704C472.804 196.811 473.199 196.933 473.7 197.072C474.33 197.243 474.842 197.413 475.236 197.584C475.631 197.744 475.967 197.989 476.244 198.32C476.532 198.651 476.682 199.083 476.692 199.616C476.692 200.096 476.559 200.528 476.292 200.912C476.026 201.296 475.647 201.6 475.156 201.824C474.676 202.037 474.122 202.144 473.492 202.144ZM478.204 197.584C478.204 196.688 478.385 195.904 478.748 195.232C479.11 194.549 479.606 194.021 480.236 193.648C480.876 193.275 481.585 193.088 482.364 193.088C483.132 193.088 483.798 193.253 484.364 193.584C484.929 193.915 485.35 194.331 485.628 194.832V193.232H487.1V202H485.628V200.368C485.34 200.88 484.908 201.307 484.332 201.648C483.766 201.979 483.105 202.144 482.348 202.144C481.569 202.144 480.865 201.952 480.236 201.568C479.606 201.184 479.11 200.645 478.748 199.952C478.385 199.259 478.204 198.469 478.204 197.584ZM485.628 197.6C485.628 196.939 485.494 196.363 485.228 195.872C484.961 195.381 484.598 195.008 484.14 194.752C483.692 194.485 483.196 194.352 482.652 194.352C482.108 194.352 481.612 194.48 481.164 194.736C480.716 194.992 480.358 195.365 480.092 195.856C479.825 196.347 479.692 196.923 479.692 197.584C479.692 198.256 479.825 198.843 480.092 199.344C480.358 199.835 480.716 200.213 481.164 200.48C481.612 200.736 482.108 200.864 482.652 200.864C483.196 200.864 483.692 200.736 484.14 200.48C484.598 200.213 484.961 199.835 485.228 199.344C485.494 198.843 485.628 198.261 485.628 197.6ZM490.312 191.808C490.035 191.808 489.8 191.712 489.608 191.52C489.416 191.328 489.32 191.093 489.32 190.816C489.32 190.539 489.416 190.304 489.608 190.112C489.8 189.92 490.035 189.824 490.312 189.824C490.579 189.824 490.803 189.92 490.984 190.112C491.176 190.304 491.272 190.539 491.272 190.816C491.272 191.093 491.176 191.328 490.984 191.52C490.803 191.712 490.579 191.808 490.312 191.808ZM491.016 193.232V202H489.56V193.232H491.016ZM496.602 202.144C495.93 202.144 495.327 202.032 494.794 201.808C494.26 201.573 493.839 201.253 493.53 200.848C493.22 200.432 493.05 199.957 493.018 199.424H494.522C494.564 199.861 494.767 200.219 495.13 200.496C495.503 200.773 495.988 200.912 496.586 200.912C497.14 200.912 497.578 200.789 497.898 200.544C498.218 200.299 498.378 199.989 498.378 199.616C498.378 199.232 498.207 198.949 497.866 198.768C497.524 198.576 496.996 198.389 496.282 198.208C495.631 198.037 495.098 197.867 494.682 197.696C494.276 197.515 493.924 197.253 493.626 196.912C493.338 196.56 493.194 196.101 493.194 195.536C493.194 195.088 493.327 194.677 493.594 194.304C493.86 193.931 494.239 193.637 494.73 193.424C495.22 193.2 495.78 193.088 496.41 193.088C497.38 193.088 498.164 193.333 498.762 193.824C499.359 194.315 499.679 194.987 499.722 195.84H498.266C498.234 195.381 498.047 195.013 497.706 194.736C497.375 194.459 496.927 194.32 496.362 194.32C495.839 194.32 495.423 194.432 495.114 194.656C494.804 194.88 494.65 195.173 494.65 195.536C494.65 195.824 494.74 196.064 494.922 196.256C495.114 196.437 495.348 196.587 495.626 196.704C495.914 196.811 496.308 196.933 496.81 197.072C497.439 197.243 497.951 197.413 498.346 197.584C498.74 197.744 499.076 197.989 499.354 198.32C499.642 198.651 499.791 199.083 499.802 199.616C499.802 200.096 499.668 200.528 499.402 200.912C499.135 201.296 498.756 201.6 498.266 201.824C497.786 202.037 497.231 202.144 496.602 202.144Z" fill="white"/>
</g>
<rect x="600.5" y="10.5" width="269" height="229" rx="3.5" stroke="black" stroke-opacity="0.3"/>
<path opacity="0.3" d="M775 80C775 102.091 757.091 120 735 120C712.909 120 695 102.091 695 80C695 57.9086 712.909 40 735 40C757.091 40 775 57.9086 775 80ZM705.907 80C705.907 96.0675 718.932 109.093 735 109.093C751.068 109.093 764.093 96.0675 764.093 80C764.093 63.9325 751.068 50.9071 735 50.9071C718.932 50.9071 705.907 63.9325 705.907 80Z" fill="#2F2E30"/>
<circle cx="735" cy="80" r="29" fill="black"/>
<path d="M726.667 71.6667V68.3334C726.667 67.3682 726.946 66.4236 727.471 65.6137C727.996 64.8038 728.745 64.1632 729.626 63.7691C730.507 63.3751 731.483 63.2445 732.437 63.3931C733.391 63.5418 734.281 63.9633 735 64.6067C735.72 63.9633 736.61 63.5418 737.564 63.3931C738.517 63.2445 739.494 63.3751 740.375 63.7691C741.256 64.1632 742.004 64.8038 742.529 65.6137C743.054 66.4236 743.334 67.3682 743.334 68.3334V71.6667H745.834C746.497 71.6667 747.133 71.9301 747.601 72.399C748.07 72.8678 748.334 73.5037 748.334 74.1667V90.8417C748.334 92.3866 747.72 93.8682 746.628 94.9606C745.535 96.053 744.054 96.6667 742.509 96.6667H728.334C726.566 96.6667 724.87 95.9643 723.62 94.7141C722.369 93.4639 721.667 91.7682 721.667 90.0001V74.1667C721.667 73.5037 721.93 72.8678 722.399 72.399C722.868 71.9301 723.504 71.6667 724.167 71.6667H726.667ZM737.725 94.1667C737.045 93.1914 736.682 92.0306 736.684 90.8417V74.1667H724.167V90.0001C724.167 90.5472 724.275 91.089 724.484 91.5946C724.694 92.1001 725 92.5594 725.387 92.9463C725.774 93.3332 726.234 93.6402 726.739 93.8496C727.245 94.0589 727.786 94.1667 728.334 94.1667H737.725ZM734.167 71.6667V68.3334C734.167 67.6703 733.904 67.0345 733.435 66.5656C732.966 66.0968 732.33 65.8334 731.667 65.8334C731.004 65.8334 730.368 66.0968 729.899 66.5656C729.43 67.0345 729.167 67.6703 729.167 68.3334V71.6667H734.167ZM736.667 71.6667H740.834V68.3334C740.834 67.8188 740.675 67.3167 740.379 66.8957C740.083 66.4746 739.665 66.1552 739.18 65.9809C738.696 65.8066 738.17 65.786 737.674 65.9219C737.177 66.0577 736.735 66.3435 736.407 66.7401C736.575 67.2401 736.667 67.7767 736.667 68.3334V71.6667ZM739.184 90.8417C739.184 91.7236 739.534 92.5693 740.158 93.1929C740.781 93.8164 741.627 94.1667 742.509 94.1667C743.391 94.1667 744.236 93.8164 744.86 93.1929C745.483 92.5693 745.834 91.7236 745.834 90.8417V74.1667H739.184V90.8417Z" fill="white"/>
<path d="M683.534 166.909V163.034L693.25 147.727H696.591V153.091H694.614L688.489 162.784V162.966H702.295V166.909H683.534ZM694.705 171V165.727L694.795 164.011V147.727H699.409V171H694.705ZM715.354 171.318C713.748 171.318 712.316 171.023 711.058 170.432C709.808 169.841 708.816 169.027 708.081 167.989C707.346 166.951 706.964 165.761 706.933 164.42H711.706C711.759 165.322 712.138 166.053 712.843 166.614C713.547 167.174 714.384 167.455 715.354 167.455C716.127 167.455 716.808 167.284 717.399 166.943C717.998 166.595 718.464 166.114 718.797 165.5C719.138 164.879 719.308 164.167 719.308 163.364C719.308 162.545 719.134 161.826 718.786 161.205C718.445 160.583 717.971 160.098 717.365 159.75C716.759 159.402 716.066 159.223 715.286 159.216C714.604 159.216 713.941 159.356 713.297 159.636C712.661 159.917 712.164 160.299 711.808 160.784L707.433 160L708.536 147.727H722.763V151.75H712.593L711.99 157.58H712.127C712.536 157.004 713.153 156.527 713.979 156.148C714.805 155.769 715.729 155.58 716.752 155.58C718.153 155.58 719.403 155.909 720.502 156.568C721.6 157.227 722.468 158.133 723.104 159.284C723.74 160.428 724.055 161.746 724.047 163.239C724.055 164.807 723.691 166.201 722.956 167.42C722.229 168.633 721.21 169.587 719.899 170.284C718.596 170.973 717.081 171.318 715.354 171.318ZM730.884 171.295C730.134 171.295 729.49 171.03 728.952 170.5C728.422 169.962 728.157 169.318 728.157 168.568C728.157 167.826 728.422 167.189 728.952 166.659C729.49 166.129 730.134 165.864 730.884 165.864C731.611 165.864 732.248 166.129 732.793 166.659C733.338 167.189 733.611 167.826 733.611 168.568C733.611 169.068 733.482 169.527 733.225 169.943C732.975 170.352 732.645 170.682 732.236 170.932C731.827 171.174 731.376 171.295 730.884 171.295ZM747.133 171.318C745.527 171.318 744.095 171.023 742.837 170.432C741.587 169.841 740.595 169.027 739.86 167.989C739.125 166.951 738.742 165.761 738.712 164.42H743.485C743.538 165.322 743.917 166.053 744.621 166.614C745.326 167.174 746.163 167.455 747.133 167.455C747.905 167.455 748.587 167.284 749.178 166.943C749.777 166.595 750.242 166.114 750.576 165.5C750.917 164.879 751.087 164.167 751.087 163.364C751.087 162.545 750.913 161.826 750.564 161.205C750.224 160.583 749.75 160.098 749.144 159.75C748.538 159.402 747.845 159.223 747.064 159.216C746.383 159.216 745.72 159.356 745.076 159.636C744.439 159.917 743.943 160.299 743.587 160.784L739.212 160L740.314 147.727H754.542V151.75H744.371L743.769 157.58H743.905C744.314 157.004 744.932 156.527 745.758 156.148C746.583 155.769 747.508 155.58 748.53 155.58C749.932 155.58 751.182 155.909 752.28 156.568C753.379 157.227 754.246 158.133 754.883 159.284C755.519 160.428 755.833 161.746 755.826 163.239C755.833 164.807 755.47 166.201 754.735 167.42C754.008 168.633 752.989 169.587 751.678 170.284C750.375 170.973 748.86 171.318 747.133 171.318ZM760.674 147.727H766.742L773.151 163.364H773.424L779.833 147.727H785.901V171H781.129V155.852H780.935L774.913 170.886H771.663L765.64 155.795H765.447V171H760.674V147.727Z" fill="black"/>
<path d="M665.156 192.848V199.904C665.156 200.896 665.396 201.632 665.876 202.112C666.367 202.592 667.044 202.832 667.908 202.832C668.761 202.832 669.428 202.592 669.908 202.112C670.399 201.632 670.644 200.896 670.644 199.904V192.848H672.1V199.888C672.1 200.816 671.913 201.6 671.54 202.24C671.167 202.869 670.66 203.339 670.02 203.648C669.391 203.957 668.681 204.112 667.892 204.112C667.103 204.112 666.388 203.957 665.748 203.648C665.119 203.339 664.617 202.869 664.244 202.24C663.881 201.6 663.7 200.816 663.7 199.888V192.848H665.156ZM676.305 196.432V201.6C676.305 202.027 676.396 202.331 676.577 202.512C676.758 202.683 677.073 202.768 677.521 202.768H678.593V204H677.281C676.47 204 675.862 203.813 675.457 203.44C675.052 203.067 674.849 202.453 674.849 201.6V196.432H673.713V195.232H674.849V193.024H676.305V195.232H678.593V196.432H676.305ZM681.109 193.808C680.832 193.808 680.597 193.712 680.405 193.52C680.213 193.328 680.117 193.093 680.117 192.816C680.117 192.539 680.213 192.304 680.405 192.112C680.597 191.92 680.832 191.824 681.109 191.824C681.376 191.824 681.6 191.92 681.781 192.112C681.973 192.304 682.069 192.539 682.069 192.816C682.069 193.093 681.973 193.328 681.781 193.52C681.6 193.712 681.376 193.808 681.109 193.808ZM681.813 195.232V204H680.357V195.232H681.813ZM685.751 192.16V204H684.295V192.16H685.751ZM688.984 193.808C688.707 193.808 688.472 193.712 688.28 193.52C688.088 193.328 687.992 193.093 687.992 192.816C687.992 192.539 688.088 192.304 688.28 192.112C688.472 191.92 688.707 191.824 688.984 191.824C689.251 191.824 689.475 191.92 689.656 192.112C689.848 192.304 689.944 192.539 689.944 192.816C689.944 193.093 689.848 193.328 689.656 193.52C689.475 193.712 689.251 193.808 688.984 193.808ZM689.688 195.232V204H688.232V195.232H689.688ZM693.258 202.8H697.562V204H691.594V202.8L695.85 196.416H691.626V195.232H697.53V196.416L693.258 202.8ZM698.907 199.584C698.907 198.688 699.088 197.904 699.451 197.232C699.813 196.549 700.309 196.021 700.939 195.648C701.579 195.275 702.288 195.088 703.067 195.088C703.835 195.088 704.501 195.253 705.067 195.584C705.632 195.915 706.053 196.331 706.331 196.832V195.232H707.803V204H706.331V202.368C706.043 202.88 705.611 203.307 705.035 203.648C704.469 203.979 703.808 204.144 703.051 204.144C702.272 204.144 701.568 203.952 700.939 203.568C700.309 203.184 699.813 202.645 699.451 201.952C699.088 201.259 698.907 200.469 698.907 199.584ZM706.331 199.6C706.331 198.939 706.197 198.363 705.931 197.872C705.664 197.381 705.301 197.008 704.843 196.752C704.395 196.485 703.899 196.352 703.355 196.352C702.811 196.352 702.315 196.48 701.867 196.736C701.419 196.992 701.061 197.365 700.795 197.856C700.528 198.347 700.395 198.923 700.395 199.584C700.395 200.256 700.528 200.843 700.795 201.344C701.061 201.835 701.419 202.213 701.867 202.48C702.315 202.736 702.811 202.864 703.355 202.864C703.899 202.864 704.395 202.736 704.843 202.48C705.301 202.213 705.664 201.835 705.931 201.344C706.197 200.843 706.331 200.261 706.331 199.6ZM709.719 199.584C709.719 198.688 709.901 197.904 710.263 197.232C710.626 196.549 711.122 196.021 711.751 195.648C712.391 195.275 713.106 195.088 713.895 195.088C714.578 195.088 715.213 195.248 715.799 195.568C716.386 195.877 716.834 196.288 717.143 196.8V192.16H718.615V204H717.143V202.352C716.855 202.875 716.429 203.307 715.863 203.648C715.298 203.979 714.637 204.144 713.879 204.144C713.101 204.144 712.391 203.952 711.751 203.568C711.122 203.184 710.626 202.645 710.263 201.952C709.901 201.259 709.719 200.469 709.719 199.584ZM717.143 199.6C717.143 198.939 717.01 198.363 716.743 197.872C716.477 197.381 716.114 197.008 715.655 196.752C715.207 196.485 714.711 196.352 714.167 196.352C713.623 196.352 713.127 196.48 712.679 196.736C712.231 196.992 711.874 197.365 711.607 197.856C711.341 198.347 711.207 198.923 711.207 199.584C711.207 200.256 711.341 200.843 711.607 201.344C711.874 201.835 712.231 202.213 712.679 202.48C713.127 202.736 713.623 202.864 714.167 202.864C714.711 202.864 715.207 202.736 715.655 202.48C716.114 202.213 716.477 201.835 716.743 201.344C717.01 200.843 717.143 200.261 717.143 199.6ZM724.9 204.144C724.078 204.144 723.332 203.957 722.66 203.584C721.998 203.211 721.476 202.683 721.092 202C720.718 201.307 720.532 200.507 720.532 199.6C720.532 198.704 720.724 197.915 721.108 197.232C721.502 196.539 722.036 196.011 722.708 195.648C723.38 195.275 724.132 195.088 724.964 195.088C725.796 195.088 726.548 195.275 727.22 195.648C727.892 196.011 728.42 196.533 728.804 197.216C729.198 197.899 729.396 198.693 729.396 199.6C729.396 200.507 729.193 201.307 728.788 202C728.393 202.683 727.854 203.211 727.172 203.584C726.489 203.957 725.732 204.144 724.9 204.144ZM724.9 202.864C725.422 202.864 725.913 202.741 726.372 202.496C726.83 202.251 727.198 201.883 727.476 201.392C727.764 200.901 727.908 200.304 727.908 199.6C727.908 198.896 727.769 198.299 727.492 197.808C727.214 197.317 726.852 196.955 726.404 196.72C725.956 196.475 725.47 196.352 724.948 196.352C724.414 196.352 723.924 196.475 723.476 196.72C723.038 196.955 722.686 197.317 722.42 197.808C722.153 198.299 722.02 198.896 722.02 199.6C722.02 200.315 722.148 200.917 722.404 201.408C722.67 201.899 723.022 202.267 723.46 202.512C723.897 202.747 724.377 202.864 724.9 202.864ZM732.766 196.656C733.022 196.155 733.385 195.765 733.854 195.488C734.334 195.211 734.915 195.072 735.598 195.072V196.576H735.214C733.582 196.576 732.766 197.461 732.766 199.232V204H731.31V195.232H732.766V196.656ZM745.279 199.28C745.279 199.557 745.263 199.851 745.231 200.16H738.223C738.276 201.024 738.57 201.701 739.103 202.192C739.647 202.672 740.303 202.912 741.071 202.912C741.7 202.912 742.223 202.768 742.639 202.48C743.066 202.181 743.364 201.787 743.535 201.296H745.103C744.868 202.139 744.399 202.827 743.695 203.36C742.991 203.883 742.116 204.144 741.071 204.144C740.239 204.144 739.492 203.957 738.831 203.584C738.18 203.211 737.668 202.683 737.295 202C736.922 201.307 736.735 200.507 736.735 199.6C736.735 198.693 736.916 197.899 737.279 197.216C737.642 196.533 738.148 196.011 738.799 195.648C739.46 195.275 740.218 195.088 741.071 195.088C741.903 195.088 742.639 195.269 743.279 195.632C743.919 195.995 744.41 196.496 744.751 197.136C745.103 197.765 745.279 198.48 745.279 199.28ZM743.775 198.976C743.775 198.421 743.652 197.947 743.407 197.552C743.162 197.147 742.826 196.843 742.399 196.64C741.983 196.427 741.519 196.32 741.007 196.32C740.271 196.32 739.642 196.555 739.119 197.024C738.607 197.493 738.314 198.144 738.239 198.976H743.775ZM750.305 204.144C749.633 204.144 749.03 204.032 748.497 203.808C747.963 203.573 747.542 203.253 747.233 202.848C746.923 202.432 746.753 201.957 746.721 201.424H748.225C748.267 201.861 748.47 202.219 748.833 202.496C749.206 202.773 749.691 202.912 750.289 202.912C750.843 202.912 751.281 202.789 751.601 202.544C751.921 202.299 752.081 201.989 752.081 201.616C752.081 201.232 751.91 200.949 751.569 200.768C751.227 200.576 750.699 200.389 749.985 200.208C749.334 200.037 748.801 199.867 748.385 199.696C747.979 199.515 747.627 199.253 747.329 198.912C747.041 198.56 746.897 198.101 746.897 197.536C746.897 197.088 747.03 196.677 747.297 196.304C747.563 195.931 747.942 195.637 748.433 195.424C748.923 195.2 749.483 195.088 750.113 195.088C751.083 195.088 751.867 195.333 752.465 195.824C753.062 196.315 753.382 196.987 753.425 197.84H751.969C751.937 197.381 751.75 197.013 751.409 196.736C751.078 196.459 750.63 196.32 750.065 196.32C749.542 196.32 749.126 196.432 748.817 196.656C748.507 196.88 748.353 197.173 748.353 197.536C748.353 197.824 748.443 198.064 748.625 198.256C748.817 198.437 749.051 198.587 749.329 198.704C749.617 198.811 750.011 198.933 750.513 199.072C751.142 199.243 751.654 199.413 752.049 199.584C752.443 199.744 752.779 199.989 753.057 200.32C753.345 200.651 753.494 201.083 753.505 201.616C753.505 202.096 753.371 202.528 753.105 202.912C752.838 203.296 752.459 203.6 751.969 203.824C751.489 204.037 750.934 204.144 750.305 204.144ZM759.282 199.584C759.282 198.688 759.463 197.904 759.826 197.232C760.188 196.549 760.684 196.021 761.314 195.648C761.954 195.275 762.663 195.088 763.442 195.088C764.21 195.088 764.876 195.253 765.442 195.584C766.007 195.915 766.428 196.331 766.706 196.832V195.232H768.178V204H766.706V202.368C766.418 202.88 765.986 203.307 765.41 203.648C764.844 203.979 764.183 204.144 763.426 204.144C762.647 204.144 761.943 203.952 761.314 203.568C760.684 203.184 760.188 202.645 759.826 201.952C759.463 201.259 759.282 200.469 759.282 199.584ZM766.706 199.6C766.706 198.939 766.572 198.363 766.306 197.872C766.039 197.381 765.676 197.008 765.218 196.752C764.77 196.485 764.274 196.352 763.73 196.352C763.186 196.352 762.69 196.48 762.242 196.736C761.794 196.992 761.436 197.365 761.17 197.856C760.903 198.347 760.77 198.923 760.77 199.584C760.77 200.256 760.903 200.843 761.17 201.344C761.436 201.835 761.794 202.213 762.242 202.48C762.69 202.736 763.186 202.864 763.73 202.864C764.274 202.864 764.77 202.736 765.218 202.48C765.676 202.213 766.039 201.835 766.306 201.344C766.572 200.843 766.706 200.261 766.706 199.6ZM772.414 196.432V201.6C772.414 202.027 772.505 202.331 772.686 202.512C772.868 202.683 773.182 202.768 773.63 202.768H774.702V204H773.39C772.58 204 771.972 203.813 771.566 203.44C771.161 203.067 770.958 202.453 770.958 201.6V196.432H769.822V195.232H770.958V193.024H772.414V195.232H774.702V196.432H772.414ZM777.218 193.808C776.941 193.808 776.706 193.712 776.514 193.52C776.322 193.328 776.226 193.093 776.226 192.816C776.226 192.539 776.322 192.304 776.514 192.112C776.706 191.92 776.941 191.824 777.218 191.824C777.485 191.824 777.709 191.92 777.89 192.112C778.082 192.304 778.178 192.539 778.178 192.816C778.178 193.093 778.082 193.328 777.89 193.52C777.709 193.712 777.485 193.808 777.218 193.808ZM777.922 195.232V204H776.466V195.232H777.922ZM783.668 202.656L786.388 195.232H787.94L784.5 204H782.804L779.364 195.232H780.932L783.668 202.656ZM793.197 204.144C792.375 204.144 791.629 203.957 790.957 203.584C790.295 203.211 789.773 202.683 789.389 202C789.015 201.307 788.829 200.507 788.829 199.6C788.829 198.704 789.021 197.915 789.405 197.232C789.799 196.539 790.333 196.011 791.005 195.648C791.677 195.275 792.429 195.088 793.261 195.088C794.093 195.088 794.845 195.275 795.517 195.648C796.189 196.011 796.717 196.533 797.101 197.216C797.495 197.899 797.693 198.693 797.693 199.6C797.693 200.507 797.49 201.307 797.085 202C796.69 202.683 796.151 203.211 795.469 203.584C794.786 203.957 794.029 204.144 793.197 204.144ZM793.197 202.864C793.719 202.864 794.21 202.741 794.669 202.496C795.127 202.251 795.495 201.883 795.773 201.392C796.061 200.901 796.205 200.304 796.205 199.6C796.205 198.896 796.066 198.299 795.789 197.808C795.511 197.317 795.149 196.955 794.701 196.72C794.253 196.475 793.767 196.352 793.245 196.352C792.711 196.352 792.221 196.475 791.773 196.72C791.335 196.955 790.983 197.317 790.717 197.808C790.45 198.299 790.317 198.896 790.317 199.6C790.317 200.315 790.445 200.917 790.701 201.408C790.967 201.899 791.319 202.267 791.757 202.512C792.194 202.747 792.674 202.864 793.197 202.864ZM802.711 204.144C802.039 204.144 801.436 204.032 800.903 203.808C800.37 203.573 799.948 203.253 799.639 202.848C799.33 202.432 799.159 201.957 799.127 201.424H800.631C800.674 201.861 800.876 202.219 801.239 202.496C801.612 202.773 802.098 202.912 802.695 202.912C803.25 202.912 803.687 202.789 804.007 202.544C804.327 202.299 804.487 201.989 804.487 201.616C804.487 201.232 804.316 200.949 803.975 200.768C803.634 200.576 803.106 200.389 802.391 200.208C801.74 200.037 801.207 199.867 800.791 199.696C800.386 199.515 800.034 199.253 799.735 198.912C799.447 198.56 799.303 198.101 799.303 197.536C799.303 197.088 799.436 196.677 799.703 196.304C799.97 195.931 800.348 195.637 800.839 195.424C801.33 195.2 801.89 195.088 802.519 195.088C803.49 195.088 804.274 195.333 804.871 195.824C805.468 196.315 805.788 196.987 805.831 197.84H804.375C804.343 197.381 804.156 197.013 803.815 196.736C803.484 196.459 803.036 196.32 802.471 196.32C801.948 196.32 801.532 196.432 801.223 196.656C800.914 196.88 800.759 197.173 800.759 197.536C800.759 197.824 800.85 198.064 801.031 198.256C801.223 198.437 801.458 198.587 801.735 198.704C802.023 198.811 802.418 198.933 802.919 199.072C803.548 199.243 804.06 199.413 804.455 199.584C804.85 199.744 805.186 199.989 805.463 200.32C805.751 200.651 805.9 201.083 805.911 201.616C805.911 202.096 805.778 202.528 805.511 202.912C805.244 203.296 804.866 203.6 804.375 203.824C803.895 204.037 803.34 204.144 802.711 204.144Z" fill="black"/>
<rect x="900.5" y="10.5" width="269" height="229" rx="3.5" stroke="black" stroke-opacity="0.3"/>
<path opacity="0.3" d="M1075 80C1075 102.091 1057.09 120 1035 120C1012.91 120 995 102.091 995 80C995 57.9086 1012.91 40 1035 40C1057.09 40 1075 57.9086 1075 80ZM1005.91 80C1005.91 96.0675 1018.93 109.093 1035 109.093C1051.07 109.093 1064.09 96.0675 1064.09 80C1064.09 63.9325 1051.07 50.9071 1035 50.9071C1018.93 50.9071 1005.91 63.9325 1005.91 80Z" fill="#2F2E30"/>
<circle cx="1035" cy="80" r="29" fill="black"/>
<path d="M1035.43 78.1456V78.6456L1035.93 78.6456C1036.59 78.6457 1037.24 78.8514 1037.78 79.2346C1038.32 79.6178 1038.73 80.1595 1038.95 80.7851C1038.97 80.8381 1038.98 80.8941 1038.98 80.9502C1038.97 81.0062 1038.96 81.0611 1038.94 81.1117C1038.91 81.1624 1038.88 81.2077 1038.84 81.2452C1038.79 81.2828 1038.75 81.3117 1038.69 81.3304C1038.64 81.3491 1038.58 81.3571 1038.53 81.3542C1038.47 81.3512 1038.42 81.3372 1038.37 81.313C1038.26 81.2641 1038.19 81.1766 1038.15 81.0697L1038.15 81.0695C1037.99 80.6104 1037.68 80.213 1037.29 79.9319C1036.89 79.6509 1036.41 79.5 1035.93 79.5002L1035.43 79.5003V80.0002V83.7092V84.2092H1035.93C1036.78 84.2092 1037.6 84.5473 1038.2 85.1491C1038.8 85.7509 1039.14 86.5672 1039.14 87.4183C1039.14 88.2694 1038.8 89.0856 1038.2 89.6874C1037.6 90.2892 1036.78 90.6273 1035.93 90.6273H1035.43V91.1273V91.5546H1034.57V91.1273V90.6273L1034.07 90.6273C1033.41 90.6273 1032.76 90.4215 1032.22 90.0383C1031.68 89.6551 1031.27 89.1134 1031.05 88.4876L1031.05 88.4875L1031.04 88.4744C1031.02 88.4211 1031.01 88.3642 1031.01 88.3071C1031.02 88.25 1031.03 88.1939 1031.05 88.142C1031.08 88.0901 1031.11 88.0435 1031.15 88.005L1030.82 87.6367L1031.15 88.005C1031.2 87.9665 1031.24 87.9369 1031.3 87.9179C1031.35 87.8988 1031.41 87.8908 1031.47 87.8942C1031.52 87.8977 1031.58 87.9125 1031.63 87.9379C1031.68 87.9632 1031.73 87.9986 1031.76 88.0419C1031.8 88.0852 1031.83 88.1355 1031.85 88.1899L1031.85 88.1969L1031.85 88.2039C1032.18 89.1186 1033.05 89.7728 1034.07 89.7728H1034.57V89.2728V85.5637V85.0637H1034.07C1033.22 85.0637 1032.41 84.7256 1031.8 84.1238C1031.2 83.522 1030.86 82.7058 1030.86 81.8547C1030.86 81.0036 1031.2 80.1874 1031.8 79.5856C1032.41 78.9837 1033.22 78.6456 1034.07 78.6456H1034.57V78.1456V77.7184H1035.43V78.1456ZM1034.57 80.0002V79.5002H1034.07C1033.45 79.5002 1032.85 79.7482 1032.41 80.1898C1031.97 80.6314 1031.72 81.2302 1031.72 81.8547C1031.72 82.4792 1031.97 83.078 1032.41 83.5196C1032.85 83.9612 1033.45 84.2092 1034.07 84.2092H1034.57V83.7092V80.0002ZM1035.43 89.2728V89.7728H1035.93C1036.55 89.7728 1037.15 89.5247 1037.59 89.0832C1038.03 88.6416 1038.28 88.0427 1038.28 87.4183C1038.28 86.7938 1038.03 86.1949 1037.59 85.7534C1037.15 85.3118 1036.55 85.0637 1035.93 85.0637H1035.43V85.5637V89.2728Z" fill="#FAFAFA" stroke="#FAFAFA"/>
<path d="M1027.71 72.5777L1028.02 72.6998C1032.37 74.3798 1037.61 74.3797 1041.96 72.698L1042.27 72.5772L1042.5 72.8203C1044.4 74.8211 1045.99 77.0948 1047.21 79.5658L1047.21 79.5677C1048.49 82.1703 1049.2 84.8133 1049.09 87.1301L1049.09 87.1301C1048.97 89.3912 1048.07 91.3572 1046.02 92.806L1046.02 92.806C1043.91 94.296 1040.45 95.3336 1035.04 95.3336C1029.62 95.3336 1026.14 94.3141 1024.01 92.8421L1024.01 92.842C1021.95 91.412 1021.04 89.472 1020.91 87.2374L1027.71 72.5777ZM1027.71 72.5777L1027.48 72.8262M1027.71 72.5777L1027.48 72.8262M1027.48 72.8262C1025.66 74.7856 1023.97 77.1897 1022.75 79.6929L1022.75 79.6929M1027.48 72.8262L1022.75 79.6929M1022.75 79.6929C1021.48 82.3123 1020.78 84.9432 1020.91 87.2372L1022.75 79.6929ZM1044.84 66.1814C1045.28 66.3992 1045.66 66.6076 1045.98 66.7943L1042.85 71.3725L1042.61 71.7111L1042.9 72.0044C1044.84 73.9861 1046.67 76.5163 1047.98 79.1919C1049.29 81.8721 1050.07 84.6624 1049.94 87.1735C1049.82 89.6637 1048.81 91.8863 1046.52 93.5035C1044.21 95.1363 1040.54 96.1881 1035.04 96.1881C1029.53 96.1881 1025.85 95.1551 1023.53 93.5441C1021.22 91.9489 1020.2 89.7543 1020.06 87.2856C1019.92 84.7951 1020.68 82.0153 1021.98 79.3201C1023.29 76.6299 1025.12 74.0598 1027.08 71.9993L1027.36 71.7071L1027.13 71.3738L1024.02 66.7979C1024.18 66.7052 1024.35 66.6075 1024.54 66.5066L1024.54 66.5066L1024.54 66.5056C1024.74 66.4032 1024.94 66.2977 1025.16 66.1901L1025.36 66.0946C1027.6 65.024 1031.16 63.8094 1035.04 63.8094C1038.94 63.8094 1042.5 65.0428 1044.72 66.12C1044.72 66.12 1044.72 66.1201 1044.72 66.1201L1044.84 66.1806C1044.84 66.1808 1044.84 66.1811 1044.84 66.1814ZM1041.22 72.0592L1041.38 72.0047L1041.47 71.8703L1044.21 67.8618L1044.8 67.0064L1043.76 67.0808C1041.17 67.2675 1038.1 67.8748 1035.16 68.7274C1033.17 69.3006 1030.94 69.2193 1028.83 68.8311C1028.3 68.7329 1027.78 68.6161 1027.26 68.4809L1025.97 68.1471L1026.72 69.2457L1028.5 71.8671L1028.59 72.0024L1028.75 72.0572C1032.67 73.4543 1037.3 73.4542 1041.22 72.0592ZM1026.58 66.4803L1025.3 67.0235L1026.63 67.4198C1027.39 67.645 1028.18 67.8413 1028.99 67.9905L1028.99 67.9905C1031.02 68.3653 1033.11 68.4298 1034.92 67.9058L1034.92 67.9056C1036.89 67.3322 1038.89 66.8812 1040.91 66.5552L1040.98 65.5828C1039.24 65.0585 1037.19 64.664 1035.04 64.664C1031.75 64.664 1028.71 65.5779 1026.58 66.4803Z" fill="#FAFAFA" stroke="#FAFAFA"/>
<path d="M1000.39 171V167.455L1008.67 159.784C1009.38 159.102 1009.97 158.489 1010.44 157.943C1010.93 157.398 1011.3 156.864 1011.55 156.341C1011.8 155.811 1011.92 155.239 1011.92 154.625C1011.92 153.943 1011.77 153.356 1011.45 152.864C1011.14 152.364 1010.72 151.981 1010.18 151.716C1009.64 151.443 1009.03 151.307 1008.35 151.307C1007.64 151.307 1007.02 151.451 1006.49 151.739C1005.96 152.027 1005.55 152.439 1005.26 152.977C1004.97 153.515 1004.83 154.155 1004.83 154.898H1000.16C1000.16 153.375 1000.5 152.053 1001.19 150.932C1001.88 149.811 1002.85 148.943 1004.09 148.33C1005.33 147.716 1006.77 147.409 1008.39 147.409C1010.05 147.409 1011.5 147.705 1012.74 148.295C1013.98 148.879 1014.95 149.689 1015.64 150.727C1016.33 151.765 1016.67 152.955 1016.67 154.295C1016.67 155.174 1016.5 156.042 1016.15 156.898C1015.81 157.754 1015.2 158.705 1014.32 159.75C1013.44 160.788 1012.2 162.034 1010.6 163.489L1007.2 166.818V166.977H1016.98V171H1000.39ZM1030.32 171.318C1028.72 171.318 1027.28 171.023 1026.03 170.432C1024.78 169.841 1023.78 169.027 1023.05 167.989C1022.32 166.951 1021.93 165.761 1021.9 164.42H1026.67C1026.73 165.322 1027.11 166.053 1027.81 166.614C1028.52 167.174 1029.35 167.455 1030.32 167.455C1031.1 167.455 1031.78 167.284 1032.37 166.943C1032.97 166.595 1033.43 166.114 1033.77 165.5C1034.11 164.879 1034.28 164.167 1034.28 163.364C1034.28 162.545 1034.1 161.826 1033.75 161.205C1033.41 160.583 1032.94 160.098 1032.33 159.75C1031.73 159.402 1031.03 159.223 1030.25 159.216C1029.57 159.216 1028.91 159.356 1028.27 159.636C1027.63 159.917 1027.13 160.299 1026.78 160.784L1022.4 160L1023.5 147.727H1037.73V151.75H1027.56L1026.96 157.58H1027.1C1027.5 157.004 1028.12 156.527 1028.95 156.148C1029.77 155.769 1030.7 155.58 1031.72 155.58C1033.12 155.58 1034.37 155.909 1035.47 156.568C1036.57 157.227 1037.44 158.133 1038.07 159.284C1038.71 160.428 1039.02 161.746 1039.02 163.239C1039.02 164.807 1038.66 166.201 1037.92 167.42C1037.2 168.633 1036.18 169.587 1034.87 170.284C1033.57 170.973 1032.05 171.318 1030.32 171.318ZM1043.86 147.727H1049.93L1056.34 163.364H1056.61L1063.02 147.727H1069.09V171H1064.32V155.852H1064.13L1058.1 170.886H1054.85L1048.83 155.795H1048.64V171H1043.86V147.727Z" fill="black"/>
<path d="M964.821 196.112C964.821 197.04 964.501 197.813 963.861 198.432C963.231 199.04 962.266 199.344 960.965 199.344H958.821V204H957.365V192.848H960.965C962.223 192.848 963.178 193.152 963.829 193.76C964.49 194.368 964.821 195.152 964.821 196.112ZM960.965 198.144C961.775 198.144 962.373 197.968 962.757 197.616C963.141 197.264 963.333 196.763 963.333 196.112C963.333 194.736 962.543 194.048 960.965 194.048H958.821V198.144H960.965ZM970.454 204.144C969.633 204.144 968.886 203.957 968.214 203.584C967.553 203.211 967.03 202.683 966.646 202C966.273 201.307 966.086 200.507 966.086 199.6C966.086 198.704 966.278 197.915 966.662 197.232C967.057 196.539 967.59 196.011 968.262 195.648C968.934 195.275 969.686 195.088 970.518 195.088C971.35 195.088 972.102 195.275 972.774 195.648C973.446 196.011 973.974 196.533 974.358 197.216C974.753 197.899 974.95 198.693 974.95 199.6C974.95 200.507 974.748 201.307 974.342 202C973.948 202.683 973.409 203.211 972.726 203.584C972.044 203.957 971.286 204.144 970.454 204.144ZM970.454 202.864C970.977 202.864 971.468 202.741 971.926 202.496C972.385 202.251 972.753 201.883 973.03 201.392C973.318 200.901 973.462 200.304 973.462 199.6C973.462 198.896 973.324 198.299 973.046 197.808C972.769 197.317 972.406 196.955 971.958 196.72C971.51 196.475 971.025 196.352 970.502 196.352C969.969 196.352 969.478 196.475 969.03 196.72C968.593 196.955 968.241 197.317 967.974 197.808C967.708 198.299 967.574 198.896 967.574 199.6C967.574 200.315 967.702 200.917 967.958 201.408C968.225 201.899 968.577 202.267 969.014 202.512C969.452 202.747 969.932 202.864 970.454 202.864ZM984.641 195.232V204H983.185V202.704C982.907 203.152 982.518 203.504 982.017 203.76C981.526 204.005 980.982 204.128 980.385 204.128C979.702 204.128 979.089 203.989 978.545 203.712C978.001 203.424 977.569 202.997 977.249 202.432C976.939 201.867 976.785 201.179 976.785 200.368V195.232H978.225V200.176C978.225 201.04 978.443 201.707 978.881 202.176C979.318 202.635 979.915 202.864 980.673 202.864C981.451 202.864 982.065 202.624 982.513 202.144C982.961 201.664 983.185 200.965 983.185 200.048V195.232H984.641ZM988.555 196.848C988.843 196.347 989.27 195.931 989.835 195.6C990.411 195.259 991.078 195.088 991.835 195.088C992.614 195.088 993.318 195.275 993.947 195.648C994.587 196.021 995.089 196.549 995.451 197.232C995.814 197.904 995.995 198.688 995.995 199.584C995.995 200.469 995.814 201.259 995.451 201.952C995.089 202.645 994.587 203.184 993.947 203.568C993.318 203.952 992.614 204.144 991.835 204.144C991.089 204.144 990.427 203.979 989.851 203.648C989.286 203.307 988.854 202.885 988.555 202.384V208.16H987.099V195.232H988.555V196.848ZM994.507 199.584C994.507 198.923 994.374 198.347 994.107 197.856C993.841 197.365 993.478 196.992 993.019 196.736C992.571 196.48 992.075 196.352 991.531 196.352C990.998 196.352 990.502 196.485 990.043 196.752C989.595 197.008 989.233 197.387 988.955 197.888C988.689 198.379 988.555 198.949 988.555 199.6C988.555 200.261 988.689 200.843 988.955 201.344C989.233 201.835 989.595 202.213 990.043 202.48C990.502 202.736 990.998 202.864 991.531 202.864C992.075 202.864 992.571 202.736 993.019 202.48C993.478 202.213 993.841 201.835 994.107 201.344C994.374 200.843 994.507 200.256 994.507 199.584ZM997.368 199.584C997.368 198.688 997.549 197.904 997.912 197.232C998.274 196.549 998.77 196.021 999.4 195.648C1000.04 195.275 1000.75 195.088 1001.53 195.088C1002.3 195.088 1002.96 195.253 1003.53 195.584C1004.09 195.915 1004.51 196.331 1004.79 196.832V195.232H1006.26V204H1004.79V202.368C1004.5 202.88 1004.07 203.307 1003.5 203.648C1002.93 203.979 1002.27 204.144 1001.51 204.144C1000.73 204.144 1000.03 203.952 999.4 203.568C998.77 203.184 998.274 202.645 997.912 201.952C997.549 201.259 997.368 200.469 997.368 199.584ZM1004.79 199.6C1004.79 198.939 1004.66 198.363 1004.39 197.872C1004.13 197.381 1003.76 197.008 1003.3 196.752C1002.86 196.485 1002.36 196.352 1001.82 196.352C1001.27 196.352 1000.78 196.48 1000.33 196.736C999.88 196.992 999.522 197.365 999.256 197.856C998.989 198.347 998.856 198.923 998.856 199.584C998.856 200.256 998.989 200.843 999.256 201.344C999.522 201.835 999.88 202.213 1000.33 202.48C1000.78 202.736 1001.27 202.864 1001.82 202.864C1002.36 202.864 1002.86 202.736 1003.3 202.48C1003.76 202.213 1004.13 201.835 1004.39 201.344C1004.66 200.843 1004.79 200.261 1004.79 199.6ZM1013 195.072C1014.06 195.072 1014.93 195.397 1015.59 196.048C1016.25 196.688 1016.58 197.616 1016.58 198.832V204H1015.14V199.04C1015.14 198.165 1014.92 197.499 1014.48 197.04C1014.05 196.571 1013.45 196.336 1012.69 196.336C1011.92 196.336 1011.31 196.576 1010.85 197.056C1010.4 197.536 1010.18 198.235 1010.18 199.152V204H1008.72V195.232H1010.18V196.48C1010.47 196.032 1010.86 195.685 1011.35 195.44C1011.85 195.195 1012.4 195.072 1013 195.072ZM1022.69 202.912C1023.33 202.912 1023.86 202.763 1024.29 202.464C1024.71 202.165 1025.01 201.739 1025.17 201.184H1026.73C1026.52 202.016 1026.1 202.699 1025.47 203.232C1024.85 203.755 1024.07 204.053 1023.13 204.128V204.928C1023.76 204.917 1024.27 205.051 1024.64 205.328C1025.01 205.605 1025.2 206 1025.2 206.512C1025.2 207.013 1025.02 207.413 1024.65 207.712C1024.29 208.011 1023.82 208.16 1023.25 208.16H1021.41V207.216H1022.96C1023.31 207.216 1023.57 207.163 1023.73 207.056C1023.9 206.949 1023.98 206.768 1023.98 206.512C1023.98 206.267 1023.9 206.091 1023.73 205.984C1023.57 205.877 1023.31 205.824 1022.96 205.824H1022.16V204.112C1021.42 204.037 1020.77 203.808 1020.21 203.424C1019.64 203.029 1019.2 202.507 1018.88 201.856C1018.57 201.195 1018.41 200.443 1018.41 199.6C1018.41 198.693 1018.6 197.904 1018.96 197.232C1019.32 196.549 1019.82 196.021 1020.46 195.648C1021.11 195.275 1021.85 195.088 1022.69 195.088C1023.76 195.088 1024.65 195.349 1025.34 195.872C1026.05 196.395 1026.51 197.12 1026.73 198.048H1025.17C1025.02 197.515 1024.72 197.093 1024.29 196.784C1023.86 196.475 1023.33 196.32 1022.69 196.32C1021.85 196.32 1021.18 196.608 1020.67 197.184C1020.16 197.749 1019.9 198.555 1019.9 199.6C1019.9 200.656 1020.16 201.472 1020.67 202.048C1021.18 202.624 1021.85 202.912 1022.69 202.912ZM1028.13 199.584C1028.13 198.688 1028.31 197.904 1028.68 197.232C1029.04 196.549 1029.54 196.021 1030.17 195.648C1030.81 195.275 1031.51 195.088 1032.29 195.088C1033.06 195.088 1033.73 195.253 1034.29 195.584C1034.86 195.915 1035.28 196.331 1035.56 196.832V195.232H1037.03V204H1035.56V202.368C1035.27 202.88 1034.84 203.307 1034.26 203.648C1033.7 203.979 1033.03 204.144 1032.28 204.144C1031.5 204.144 1030.79 203.952 1030.17 203.568C1029.54 203.184 1029.04 202.645 1028.68 201.952C1028.31 201.259 1028.13 200.469 1028.13 199.584ZM1035.56 199.6C1035.56 198.939 1035.42 198.363 1035.16 197.872C1034.89 197.381 1034.53 197.008 1034.07 196.752C1033.62 196.485 1033.13 196.352 1032.58 196.352C1032.04 196.352 1031.54 196.48 1031.09 196.736C1030.65 196.992 1030.29 197.365 1030.02 197.856C1029.75 198.347 1029.62 198.923 1029.62 199.584C1029.62 200.256 1029.75 200.843 1030.02 201.344C1030.29 201.835 1030.65 202.213 1031.09 202.48C1031.54 202.736 1032.04 202.864 1032.58 202.864C1033.13 202.864 1033.62 202.736 1034.07 202.48C1034.53 202.213 1034.89 201.835 1035.16 201.344C1035.42 200.843 1035.56 200.261 1035.56 199.6ZM1043.21 199.584C1043.21 198.688 1043.39 197.904 1043.76 197.232C1044.12 196.549 1044.61 196.021 1045.24 195.648C1045.88 195.275 1046.59 195.088 1047.37 195.088C1048.14 195.088 1048.81 195.253 1049.37 195.584C1049.94 195.915 1050.36 196.331 1050.64 196.832V195.232H1052.11V204H1050.64V202.368C1050.35 202.88 1049.92 203.307 1049.34 203.648C1048.77 203.979 1048.11 204.144 1047.36 204.144C1046.58 204.144 1045.87 203.952 1045.24 203.568C1044.61 203.184 1044.12 202.645 1043.76 201.952C1043.39 201.259 1043.21 200.469 1043.21 199.584ZM1050.64 199.6C1050.64 198.939 1050.5 198.363 1050.24 197.872C1049.97 197.381 1049.61 197.008 1049.15 196.752C1048.7 196.485 1048.2 196.352 1047.66 196.352C1047.12 196.352 1046.62 196.48 1046.17 196.736C1045.72 196.992 1045.37 197.365 1045.1 197.856C1044.83 198.347 1044.7 198.923 1044.7 199.584C1044.7 200.256 1044.83 200.843 1045.1 201.344C1045.37 201.835 1045.72 202.213 1046.17 202.48C1046.62 202.736 1047.12 202.864 1047.66 202.864C1048.2 202.864 1048.7 202.736 1049.15 202.48C1049.61 202.213 1049.97 201.835 1050.24 201.344C1050.5 200.843 1050.64 200.261 1050.64 199.6ZM1058.84 195.072C1059.91 195.072 1060.77 195.397 1061.43 196.048C1062.09 196.688 1062.42 197.616 1062.42 198.832V204H1060.98V199.04C1060.98 198.165 1060.77 197.499 1060.33 197.04C1059.89 196.571 1059.29 196.336 1058.54 196.336C1057.77 196.336 1057.15 196.576 1056.7 197.056C1056.25 197.536 1056.02 198.235 1056.02 199.152V204H1054.57V195.232H1056.02V196.48C1056.31 196.032 1056.7 195.685 1057.19 195.44C1057.69 195.195 1058.24 195.072 1058.84 195.072ZM1072.58 195.232V204H1071.12V202.704C1070.84 203.152 1070.46 203.504 1069.95 203.76C1069.46 204.005 1068.92 204.128 1068.32 204.128C1067.64 204.128 1067.03 203.989 1066.48 203.712C1065.94 203.424 1065.51 202.997 1065.19 202.432C1064.88 201.867 1064.72 201.179 1064.72 200.368V195.232H1066.16V200.176C1066.16 201.04 1066.38 201.707 1066.82 202.176C1067.26 202.635 1067.85 202.864 1068.61 202.864C1069.39 202.864 1070 202.624 1070.45 202.144C1070.9 201.664 1071.12 200.965 1071.12 200.048V195.232H1072.58ZM1074.49 199.584C1074.49 198.688 1074.67 197.904 1075.04 197.232C1075.4 196.549 1075.9 196.021 1076.52 195.648C1077.16 195.275 1077.87 195.088 1078.65 195.088C1079.42 195.088 1080.09 195.253 1080.65 195.584C1081.22 195.915 1081.64 196.331 1081.92 196.832V195.232H1083.39V204H1081.92V202.368C1081.63 202.88 1081.2 203.307 1080.62 203.648C1080.06 203.979 1079.39 204.144 1078.64 204.144C1077.86 204.144 1077.15 203.952 1076.52 203.568C1075.9 203.184 1075.4 202.645 1075.04 201.952C1074.67 201.259 1074.49 200.469 1074.49 199.584ZM1081.92 199.6C1081.92 198.939 1081.78 198.363 1081.52 197.872C1081.25 197.381 1080.89 197.008 1080.43 196.752C1079.98 196.485 1079.48 196.352 1078.94 196.352C1078.4 196.352 1077.9 196.48 1077.45 196.736C1077 196.992 1076.65 197.365 1076.38 197.856C1076.11 198.347 1075.98 198.923 1075.98 199.584C1075.98 200.256 1076.11 200.843 1076.38 201.344C1076.65 201.835 1077 202.213 1077.45 202.48C1077.9 202.736 1078.4 202.864 1078.94 202.864C1079.48 202.864 1079.98 202.736 1080.43 202.48C1080.89 202.213 1081.25 201.835 1081.52 201.344C1081.78 200.843 1081.92 200.261 1081.92 199.6ZM1087.31 192.16V204H1085.85V192.16H1087.31ZM1098.32 195.072C1099.39 195.072 1100.25 195.397 1100.92 196.048C1101.58 196.688 1101.91 197.616 1101.91 198.832V204H1100.47V199.04C1100.47 198.165 1100.25 197.499 1099.81 197.04C1099.37 196.571 1098.78 196.336 1098.02 196.336C1097.25 196.336 1096.64 196.576 1096.18 197.056C1095.73 197.536 1095.51 198.235 1095.51 199.152V204H1094.05V195.232H1095.51V196.48C1095.8 196.032 1096.19 195.685 1096.68 195.44C1097.18 195.195 1097.73 195.072 1098.32 195.072ZM1103.74 199.584C1103.74 198.688 1103.92 197.904 1104.29 197.232C1104.65 196.549 1105.15 196.021 1105.77 195.648C1106.41 195.275 1107.12 195.088 1107.9 195.088C1108.67 195.088 1109.34 195.253 1109.9 195.584C1110.47 195.915 1110.89 196.331 1111.17 196.832V195.232H1112.64V204H1111.17V202.368C1110.88 202.88 1110.45 203.307 1109.87 203.648C1109.31 203.979 1108.64 204.144 1107.89 204.144C1107.11 204.144 1106.4 203.952 1105.77 203.568C1105.15 203.184 1104.65 202.645 1104.29 201.952C1103.92 201.259 1103.74 200.469 1103.74 199.584ZM1111.17 199.6C1111.17 198.939 1111.03 198.363 1110.77 197.872C1110.5 197.381 1110.14 197.008 1109.68 196.752C1109.23 196.485 1108.73 196.352 1108.19 196.352C1107.65 196.352 1107.15 196.48 1106.7 196.736C1106.25 196.992 1105.9 197.365 1105.63 197.856C1105.36 198.347 1105.23 198.923 1105.23 199.584C1105.23 200.256 1105.36 200.843 1105.63 201.344C1105.9 201.835 1106.25 202.213 1106.7 202.48C1107.15 202.736 1107.65 202.864 1108.19 202.864C1108.73 202.864 1109.23 202.736 1109.68 202.48C1110.14 202.213 1110.5 201.835 1110.77 201.344C1111.03 200.843 1111.17 200.261 1111.17 199.6ZM952.922 223.6C952.922 222.693 953.104 221.904 953.466 221.232C953.829 220.549 954.33 220.021 954.97 219.648C955.621 219.275 956.362 219.088 957.194 219.088C958.272 219.088 959.157 219.349 959.85 219.872C960.554 220.395 961.018 221.12 961.242 222.048H959.674C959.525 221.515 959.232 221.093 958.794 220.784C958.368 220.475 957.834 220.32 957.194 220.32C956.362 220.32 955.69 220.608 955.178 221.184C954.666 221.749 954.41 222.555 954.41 223.6C954.41 224.656 954.666 225.472 955.178 226.048C955.69 226.624 956.362 226.912 957.194 226.912C957.834 226.912 958.368 226.763 958.794 226.464C959.221 226.165 959.514 225.739 959.674 225.184H961.242C961.008 226.08 960.538 226.8 959.834 227.344C959.13 227.877 958.25 228.144 957.194 228.144C956.362 228.144 955.621 227.957 954.97 227.584C954.33 227.211 953.829 226.683 953.466 226C953.104 225.317 952.922 224.517 952.922 223.6ZM962.641 223.584C962.641 222.688 962.822 221.904 963.185 221.232C963.548 220.549 964.044 220.021 964.673 219.648C965.313 219.275 966.022 219.088 966.801 219.088C967.569 219.088 968.236 219.253 968.801 219.584C969.366 219.915 969.788 220.331 970.065 220.832V219.232H971.537V228H970.065V226.368C969.777 226.88 969.345 227.307 968.769 227.648C968.204 227.979 967.542 228.144 966.785 228.144C966.006 228.144 965.302 227.952 964.673 227.568C964.044 227.184 963.548 226.645 963.185 225.952C962.822 225.259 962.641 224.469 962.641 223.584ZM970.065 223.6C970.065 222.939 969.932 222.363 969.665 221.872C969.398 221.381 969.036 221.008 968.577 220.752C968.129 220.485 967.633 220.352 967.089 220.352C966.545 220.352 966.049 220.48 965.601 220.736C965.153 220.992 964.796 221.365 964.529 221.856C964.262 222.347 964.129 222.923 964.129 223.584C964.129 224.256 964.262 224.843 964.529 225.344C964.796 225.835 965.153 226.213 965.601 226.48C966.049 226.736 966.545 226.864 967.089 226.864C967.633 226.864 968.129 226.736 968.577 226.48C969.036 226.213 969.398 225.835 969.665 225.344C969.932 224.843 970.065 224.261 970.065 223.6ZM975.454 220.656C975.71 220.155 976.072 219.765 976.542 219.488C977.022 219.211 977.603 219.072 978.286 219.072V220.576H977.902C976.27 220.576 975.454 221.461 975.454 223.232V228H973.998V219.232H975.454V220.656ZM981.742 220.432V225.6C981.742 226.027 981.833 226.331 982.014 226.512C982.196 226.683 982.51 226.768 982.958 226.768H984.03V228H982.718C981.908 228 981.3 227.813 980.894 227.44C980.489 227.067 980.286 226.453 980.286 225.6V220.432H979.15V219.232H980.286V217.024H981.742V219.232H984.03V220.432H981.742ZM993.795 223.28C993.795 223.557 993.779 223.851 993.747 224.16H986.739C986.792 225.024 987.085 225.701 987.619 226.192C988.163 226.672 988.819 226.912 989.587 226.912C990.216 226.912 990.739 226.768 991.155 226.48C991.581 226.181 991.88 225.787 992.051 225.296H993.619C993.384 226.139 992.915 226.827 992.211 227.36C991.507 227.883 990.632 228.144 989.587 228.144C988.755 228.144 988.008 227.957 987.347 227.584C986.696 227.211 986.184 226.683 985.811 226C985.437 225.307 985.251 224.507 985.251 223.6C985.251 222.693 985.432 221.899 985.795 221.216C986.157 220.533 986.664 220.011 987.315 219.648C987.976 219.275 988.733 219.088 989.587 219.088C990.419 219.088 991.155 219.269 991.795 219.632C992.435 219.995 992.925 220.496 993.267 221.136C993.619 221.765 993.795 222.48 993.795 223.28ZM992.291 222.976C992.291 222.421 992.168 221.947 991.923 221.552C991.677 221.147 991.341 220.843 990.915 220.64C990.499 220.427 990.035 220.32 989.523 220.32C988.787 220.32 988.157 220.555 987.635 221.024C987.123 221.493 986.829 222.144 986.755 222.976H992.291ZM996.468 217.808C996.191 217.808 995.956 217.712 995.764 217.52C995.572 217.328 995.476 217.093 995.476 216.816C995.476 216.539 995.572 216.304 995.764 216.112C995.956 215.92 996.191 215.824 996.468 215.824C996.735 215.824 996.959 215.92 997.14 216.112C997.332 216.304 997.428 216.539 997.428 216.816C997.428 217.093 997.332 217.328 997.14 217.52C996.959 217.712 996.735 217.808 996.468 217.808ZM997.172 219.232V228H995.716V219.232H997.172ZM1001.11 220.656C1001.37 220.155 1001.73 219.765 1002.2 219.488C1002.68 219.211 1003.26 219.072 1003.94 219.072V220.576H1003.56C1001.93 220.576 1001.11 221.461 1001.11 223.232V228H999.654V219.232H1001.11V220.656ZM1005.08 223.584C1005.08 222.688 1005.26 221.904 1005.62 221.232C1005.99 220.549 1006.48 220.021 1007.11 219.648C1007.75 219.275 1008.46 219.088 1009.24 219.088C1010.01 219.088 1010.67 219.253 1011.24 219.584C1011.8 219.915 1012.23 220.331 1012.5 220.832V219.232H1013.97V228H1012.5V226.368C1012.21 226.88 1011.78 227.307 1011.21 227.648C1010.64 227.979 1009.98 228.144 1009.22 228.144C1008.44 228.144 1007.74 227.952 1007.11 227.568C1006.48 227.184 1005.99 226.645 1005.62 225.952C1005.26 225.259 1005.08 224.469 1005.08 223.584ZM1012.5 223.6C1012.5 222.939 1012.37 222.363 1012.1 221.872C1011.84 221.381 1011.47 221.008 1011.01 220.752C1010.57 220.485 1010.07 220.352 1009.53 220.352C1008.98 220.352 1008.49 220.48 1008.04 220.736C1007.59 220.992 1007.23 221.365 1006.97 221.856C1006.7 222.347 1006.57 222.923 1006.57 223.584C1006.57 224.256 1006.7 224.843 1006.97 225.344C1007.23 225.835 1007.59 226.213 1008.04 226.48C1008.49 226.736 1008.98 226.864 1009.53 226.864C1010.07 226.864 1010.57 226.736 1011.01 226.48C1011.47 226.213 1011.84 225.835 1012.1 225.344C1012.37 224.843 1012.5 224.261 1012.5 223.6ZM1020.16 223.584C1020.16 222.688 1020.34 221.904 1020.7 221.232C1021.06 220.549 1021.56 220.021 1022.19 219.648C1022.83 219.275 1023.54 219.088 1024.33 219.088C1025.02 219.088 1025.65 219.248 1026.24 219.568C1026.82 219.877 1027.27 220.288 1027.58 220.8V216.16H1029.05V228H1027.58V226.352C1027.29 226.875 1026.87 227.307 1026.3 227.648C1025.74 227.979 1025.07 228.144 1024.32 228.144C1023.54 228.144 1022.83 227.952 1022.19 227.568C1021.56 227.184 1021.06 226.645 1020.7 225.952C1020.34 225.259 1020.16 224.469 1020.16 223.584ZM1027.58 223.6C1027.58 222.939 1027.45 222.363 1027.18 221.872C1026.91 221.381 1026.55 221.008 1026.09 220.752C1025.64 220.485 1025.15 220.352 1024.6 220.352C1024.06 220.352 1023.56 220.48 1023.12 220.736C1022.67 220.992 1022.31 221.365 1022.04 221.856C1021.78 222.347 1021.64 222.923 1021.64 223.584C1021.64 224.256 1021.78 224.843 1022.04 225.344C1022.31 225.835 1022.67 226.213 1023.12 226.48C1023.56 226.736 1024.06 226.864 1024.6 226.864C1025.15 226.864 1025.64 226.736 1026.09 226.48C1026.55 226.213 1026.91 225.835 1027.18 225.344C1027.45 224.843 1027.58 224.261 1027.58 223.6ZM1035.34 228.144C1034.52 228.144 1033.77 227.957 1033.1 227.584C1032.44 227.211 1031.91 226.683 1031.53 226C1031.16 225.307 1030.97 224.507 1030.97 223.6C1030.97 222.704 1031.16 221.915 1031.55 221.232C1031.94 220.539 1032.47 220.011 1033.15 219.648C1033.82 219.275 1034.57 219.088 1035.4 219.088C1036.23 219.088 1036.99 219.275 1037.66 219.648C1038.33 220.011 1038.86 220.533 1039.24 221.216C1039.64 221.899 1039.83 222.693 1039.83 223.6C1039.83 224.507 1039.63 225.307 1039.23 226C1038.83 226.683 1038.29 227.211 1037.61 227.584C1036.93 227.957 1036.17 228.144 1035.34 228.144ZM1035.34 226.864C1035.86 226.864 1036.35 226.741 1036.81 226.496C1037.27 226.251 1037.64 225.883 1037.91 225.392C1038.2 224.901 1038.35 224.304 1038.35 223.6C1038.35 222.896 1038.21 222.299 1037.93 221.808C1037.65 221.317 1037.29 220.955 1036.84 220.72C1036.39 220.475 1035.91 220.352 1035.39 220.352C1034.85 220.352 1034.36 220.475 1033.91 220.72C1033.48 220.955 1033.12 221.317 1032.86 221.808C1032.59 222.299 1032.46 222.896 1032.46 223.6C1032.46 224.315 1032.59 224.917 1032.84 225.408C1033.11 225.899 1033.46 226.267 1033.9 226.512C1034.33 226.747 1034.81 226.864 1035.34 226.864ZM1053.79 219.232V228H1052.33V226.704C1052.06 227.152 1051.67 227.504 1051.17 227.76C1050.67 228.005 1050.13 228.128 1049.53 228.128C1048.85 228.128 1048.24 227.989 1047.69 227.712C1047.15 227.424 1046.72 226.997 1046.4 226.432C1046.09 225.867 1045.93 225.179 1045.93 224.368V219.232H1047.37V224.176C1047.37 225.04 1047.59 225.707 1048.03 226.176C1048.47 226.635 1049.06 226.864 1049.82 226.864C1050.6 226.864 1051.21 226.624 1051.66 226.144C1052.11 225.664 1052.33 224.965 1052.33 224.048V219.232H1053.79ZM1058.02 220.432V225.6C1058.02 226.027 1058.11 226.331 1058.3 226.512C1058.48 226.683 1058.79 226.768 1059.24 226.768H1060.31V228H1059C1058.19 228 1057.58 227.813 1057.18 227.44C1056.77 227.067 1056.57 226.453 1056.57 225.6V220.432H1055.43V219.232H1056.57V217.024H1058.02V219.232H1060.31V220.432H1058.02ZM1062.83 217.808C1062.55 217.808 1062.32 217.712 1062.12 217.52C1061.93 217.328 1061.84 217.093 1061.84 216.816C1061.84 216.539 1061.93 216.304 1062.12 216.112C1062.32 215.92 1062.55 215.824 1062.83 215.824C1063.09 215.824 1063.32 215.92 1063.5 216.112C1063.69 216.304 1063.79 216.539 1063.79 216.816C1063.79 217.093 1063.69 217.328 1063.5 217.52C1063.32 217.712 1063.09 217.808 1062.83 217.808ZM1063.53 219.232V228H1062.08V219.232H1063.53ZM1067.47 216.16V228H1066.01V216.16H1067.47ZM1070.7 217.808C1070.43 217.808 1070.19 217.712 1070 217.52C1069.81 217.328 1069.71 217.093 1069.71 216.816C1069.71 216.539 1069.81 216.304 1070 216.112C1070.19 215.92 1070.43 215.824 1070.7 215.824C1070.97 215.824 1071.19 215.92 1071.37 216.112C1071.57 216.304 1071.66 216.539 1071.66 216.816C1071.66 217.093 1071.57 217.328 1071.37 217.52C1071.19 217.712 1070.97 217.808 1070.7 217.808ZM1071.41 219.232V228H1069.95V219.232H1071.41ZM1074.98 226.8H1079.28V228H1073.31V226.8L1077.57 220.416H1073.34V219.232H1079.25V220.416L1074.98 226.8ZM1080.63 223.584C1080.63 222.688 1080.81 221.904 1081.17 221.232C1081.53 220.549 1082.03 220.021 1082.66 219.648C1083.3 219.275 1084.01 219.088 1084.79 219.088C1085.55 219.088 1086.22 219.253 1086.79 219.584C1087.35 219.915 1087.77 220.331 1088.05 220.832V219.232H1089.52V228H1088.05V226.368C1087.76 226.88 1087.33 227.307 1086.75 227.648C1086.19 227.979 1085.53 228.144 1084.77 228.144C1083.99 228.144 1083.29 227.952 1082.66 227.568C1082.03 227.184 1081.53 226.645 1081.17 225.952C1080.81 225.259 1080.63 224.469 1080.63 223.584ZM1088.05 223.6C1088.05 222.939 1087.92 222.363 1087.65 221.872C1087.38 221.381 1087.02 221.008 1086.56 220.752C1086.11 220.485 1085.62 220.352 1085.07 220.352C1084.53 220.352 1084.03 220.48 1083.59 220.736C1083.14 220.992 1082.78 221.365 1082.51 221.856C1082.25 222.347 1082.11 222.923 1082.11 223.584C1082.11 224.256 1082.25 224.843 1082.51 225.344C1082.78 225.835 1083.14 226.213 1083.59 226.48C1084.03 226.736 1084.53 226.864 1085.07 226.864C1085.62 226.864 1086.11 226.736 1086.56 226.48C1087.02 226.213 1087.38 225.835 1087.65 225.344C1087.92 224.843 1088.05 224.261 1088.05 223.6ZM1091.44 223.584C1091.44 222.688 1091.62 221.904 1091.98 221.232C1092.34 220.549 1092.84 220.021 1093.47 219.648C1094.11 219.275 1094.82 219.088 1095.61 219.088C1096.3 219.088 1096.93 219.248 1097.52 219.568C1098.1 219.877 1098.55 220.288 1098.86 220.8V216.16H1100.33V228H1098.86V226.352C1098.57 226.875 1098.15 227.307 1097.58 227.648C1097.02 227.979 1096.36 228.144 1095.6 228.144C1094.82 228.144 1094.11 227.952 1093.47 227.568C1092.84 227.184 1092.34 226.645 1091.98 225.952C1091.62 225.259 1091.44 224.469 1091.44 223.584ZM1098.86 223.6C1098.86 222.939 1098.73 222.363 1098.46 221.872C1098.2 221.381 1097.83 221.008 1097.37 220.752C1096.93 220.485 1096.43 220.352 1095.89 220.352C1095.34 220.352 1094.85 220.48 1094.4 220.736C1093.95 220.992 1093.59 221.365 1093.33 221.856C1093.06 222.347 1092.93 222.923 1092.93 223.584C1092.93 224.256 1093.06 224.843 1093.33 225.344C1093.59 225.835 1093.95 226.213 1094.4 226.48C1094.85 226.736 1095.34 226.864 1095.89 226.864C1096.43 226.864 1096.93 226.736 1097.37 226.48C1097.83 226.213 1098.2 225.835 1098.46 225.344C1098.73 224.843 1098.86 224.261 1098.86 223.6ZM1106.62 228.144C1105.8 228.144 1105.05 227.957 1104.38 227.584C1103.72 227.211 1103.19 226.683 1102.81 226C1102.44 225.307 1102.25 224.507 1102.25 223.6C1102.25 222.704 1102.44 221.915 1102.83 221.232C1103.22 220.539 1103.75 220.011 1104.43 219.648C1105.1 219.275 1105.85 219.088 1106.68 219.088C1107.51 219.088 1108.27 219.275 1108.94 219.648C1109.61 220.011 1110.14 220.533 1110.52 221.216C1110.92 221.899 1111.11 222.693 1111.11 223.6C1111.11 224.507 1110.91 225.307 1110.51 226C1110.11 226.683 1109.57 227.211 1108.89 227.584C1108.21 227.957 1107.45 228.144 1106.62 228.144ZM1106.62 226.864C1107.14 226.864 1107.63 226.741 1108.09 226.496C1108.55 226.251 1108.92 225.883 1109.19 225.392C1109.48 224.901 1109.63 224.304 1109.63 223.6C1109.63 222.896 1109.49 222.299 1109.21 221.808C1108.93 221.317 1108.57 220.955 1108.12 220.72C1107.67 220.475 1107.19 220.352 1106.67 220.352C1106.13 220.352 1105.64 220.475 1105.19 220.72C1104.76 220.955 1104.41 221.317 1104.14 221.808C1103.87 222.299 1103.74 222.896 1103.74 223.6C1103.74 224.315 1103.87 224.917 1104.12 225.408C1104.39 225.899 1104.74 226.267 1105.18 226.512C1105.62 226.747 1106.1 226.864 1106.62 226.864ZM1114.48 220.656C1114.74 220.155 1115.1 219.765 1115.57 219.488C1116.05 219.211 1116.63 219.072 1117.32 219.072V220.576H1116.93C1115.3 220.576 1114.48 221.461 1114.48 223.232V228H1113.03V219.232H1114.48V220.656Z" fill="black"/>
<defs>
<filter id="filter0_d_246_4830" x="288" y="0" width="294" height="254" filterUnits="userSpaceOnUse" color-interpolation-filters="sRGB">
<feFlood flood-opacity="0" result="BackgroundImageFix"/>
<feColorMatrix in="SourceAlpha" type="matrix" values="0 0 0 0 0 0 0 0 0 0 0 0 0 0 0 0 0 0 127 0" result="hardAlpha"/>
<feMorphology radius="2" operator="dilate" in="SourceAlpha" result="effect1_dropShadow_246_4830"/>
<feOffset dy="2"/>
<feGaussianBlur stdDeviation="5"/>
<feComposite in2="hardAlpha" operator="out"/>
<feColorMatrix type="matrix" values="0 0 0 0 0 0 0 0 0 0 0 0 0 0 0 0 0 0 0.2 0"/>
<feBlend mode="normal" in2="BackgroundImageFix" result="effect1_dropShadow_246_4830"/>
<feBlend mode="normal" in="SourceGraphic" in2="effect1_dropShadow_246_4830" result="shape"/>
</filter>
</defs>
</svg>
