<svg width="80" height="80" viewBox="0 0 80 80" fill="none" xmlns="http://www.w3.org/2000/svg">
<path opacity="0.3" d="M80 40C80 62.0914 62.0914 80 40 80C17.9086 80 0 62.0914 0 40C0 17.9086 17.9086 0 40 0C62.0914 0 80 17.9086 80 40ZM10.9071 40C10.9071 56.0675 23.9325 69.0929 40 69.0929C56.0675 69.0929 69.0929 56.0675 69.0929 40C69.0929 23.9325 56.0675 10.9071 40 10.9071C23.9325 10.9071 10.9071 23.9325 10.9071 40Z" fill="#2F2E30"/>
<path d="M31.6667 51.6667C33.5076 51.6667 35 50.1743 35 48.3333C35 46.4924 33.5076 45 31.6667 45C29.8257 45 28.3333 46.4924 28.3333 48.3333C28.3333 50.1743 29.8257 51.6667 31.6667 51.6667Z" stroke="#FAFAFA" stroke-width="2" stroke-linecap="round" stroke-linejoin="round"/>
<path d="M48.3333 51.6667C50.1743 51.6667 51.6667 50.1743 51.6667 48.3333C51.6667 46.4924 50.1743 45 48.3333 45C46.4924 45 45 46.4924 45 48.3333C45 50.1743 46.4924 51.6667 48.3333 51.6667Z" stroke="#FAFAFA" stroke-width="2" stroke-linecap="round" stroke-linejoin="round"/>
<path d="M28.3333 48.3335H27C25.8954 48.3335 25 47.4381 25 46.3335V41.6668M23.3333 28.3335H39.6666C40.7712 28.3335 41.6666 29.2289 41.6666 30.3335V48.3335M35 48.3335H45M51.6667 48.3335H53C54.1046 48.3335 55 47.4381 55 46.3335V38.3335M55 38.3335H41.6666M55 38.3335L50.5826 30.9712C50.2211 30.3688 49.5701 30.0002 48.8676 30.0002H41.6666" stroke="#FAFAFA" stroke-width="2" stroke-linecap="round" stroke-linejoin="round"/>
<path d="M28 48H26.6667C25.5621 48 24.6667 47.1046 24.6667 46V41.3333M23 28H39.3333C40.4379 28 41.3333 28.8954 41.3333 30V48M35 48H44.6667M52 48H52.6667C53.7712 48 54.6667 47.1046 54.6667 46V38M54.6667 38H41.3333M54.6667 38L50.2493 30.6377C49.8878 30.0353 49.2368 29.6667 48.5343 29.6667H41.3333" stroke="#FAFAFA" stroke-width="2" stroke-linecap="round" stroke-linejoin="round"/>
<path d="M25 31.8184H31.6667" stroke="#FAFAFA" stroke-width="2" stroke-linecap="round" stroke-linejoin="round"/>
<path d="M21.8182 35.4546H28.4849" stroke="#FAFAFA" stroke-width="2" stroke-linecap="round" stroke-linejoin="round"/>
<path d="M25 39.0908H31.6667" stroke="#FAFAFA" stroke-width="2" stroke-linecap="round" stroke-linejoin="round"/>
<path d="M42.125 32V47.2753" stroke="black" stroke-width="2" stroke-miterlimit="10" stroke-linecap="round" stroke-linejoin="round"/>
<path d="M33.9999 32V47.2753" stroke="black" stroke-width="2" stroke-miterlimit="10" stroke-linecap="round" stroke-linejoin="round"/>
<path d="M25.8749 32V47.2753" stroke="black" stroke-width="2" stroke-miterlimit="10" stroke-linecap="round" stroke-linejoin="round"/>
<path d="M21 32V47.2753" stroke="black" stroke-width="2" stroke-miterlimit="10" stroke-linecap="round" stroke-linejoin="round"/>
<path d="M46.9999 32V47.2753" stroke="black" stroke-width="2" stroke-miterlimit="10" stroke-linecap="round" stroke-linejoin="round"/>
<path d="M55.1249 32V47.2753" stroke="black" stroke-width="2" stroke-miterlimit="10" stroke-linecap="round" stroke-linejoin="round"/>
<path d="M59.9998 32V47.2753" stroke="black" stroke-width="2" stroke-miterlimit="10" stroke-linecap="round" stroke-linejoin="round"/>
<path d="M14 39H66" stroke="#E87B38" stroke-width="2" stroke-miterlimit="10" stroke-linecap="round" stroke-linejoin="round"/>
<path d="M18 33.2753V23.0918C18 20.2913 20.3277 18 23.1726 18H34.811" stroke="black" stroke-width="2" stroke-miterlimit="10" stroke-linecap="round" stroke-linejoin="round"/>
<path d="M34.811 61.2802H23.1726C20.3277 61.2802 18 58.9889 18 56.1884V46.0049" stroke="black" stroke-width="2" stroke-miterlimit="10" stroke-linecap="round" stroke-linejoin="round"/>
<path d="M61.9674 46.0049V56.1884C61.9674 58.9889 59.6398 61.2802 56.7948 61.2802H45.1564" stroke="black" stroke-width="2" stroke-miterlimit="10" stroke-linecap="round" stroke-linejoin="round"/>
<path d="M45.1564 18H56.7948C59.6398 18 61.9674 20.2913 61.9674 23.0918V33.2753" stroke="black" stroke-width="2" stroke-miterlimit="10" stroke-linecap="round" stroke-linejoin="round"/>
</svg>
