<svg width="391" height="355" viewBox="0 0 391 355" fill="none" xmlns="http://www.w3.org/2000/svg">
<path d="M8 61.0977L8 4.90245H61.4315" stroke="black" stroke-width="6.44863" stroke-linecap="round"/>
<path d="M322.432 4H383.432V62" stroke="black" stroke-width="7" stroke-linecap="round"/>
<path d="M44 182.331V255.662H45.8703H47.7406V182.331V109H45.8703H44V182.331Z" fill="black"/>
<path d="M50.4121 182.331V255.662H51.2137H52.0152V182.331V109H51.2137H50.4121V182.331Z" fill="black"/>
<path d="M56.5586 182.331V255.662H57.3602H58.1617V182.331V109H57.3602H56.5586V182.331Z" fill="black"/>
<path d="M67.2461 182.331V255.662H71.1203H74.9945V182.331V109H71.1203H67.2461V182.331Z" fill="black"/>
<path d="M77.666 182.331V255.662H78.4676H79.2691V182.331V109H78.4676H77.666V182.331Z" fill="black"/>
<path d="M81.9414 182.331V255.662H84.8805H87.8195V182.331V109H84.8805H81.9414V182.331Z" fill="black"/>
<path d="M90.4902 182.331V255.662H93.2957H96.1012V182.331V109H93.2957H90.4902V182.331Z" fill="black"/>
<path d="M98.7734 182.331V255.662H99.575H100.377V182.331V109H99.575H98.7734V182.331Z" fill="black"/>
<path d="M107.057 182.331V255.662H108.927H110.797V182.331V109H108.927H107.057V182.331Z" fill="black"/>
<path d="M113.469 182.331V255.662H114.27H115.072V182.331V109H114.27H113.469V182.331Z" fill="black"/>
<path d="M123.889 182.331V255.662H125.759H127.629V182.331V109H125.759H123.889V182.331Z" fill="black"/>
<path d="M130.301 182.331V255.662H131.102H131.904V182.331V109H131.102H130.301V182.331Z" fill="black"/>
<path d="M136.715 182.331V255.662H138.452H140.188V182.331V109H138.452H136.715V182.331Z" fill="black"/>
<path d="M149.271 182.331V255.662H150.073H150.875V182.331V109H150.073H149.271V182.331Z" fill="black"/>
<path d="M155.684 182.331V255.662H156.485H157.287V182.331V109H156.485H155.684V182.331Z" fill="black"/>
<path d="M159.959 182.331V255.662H160.627H161.295V182.331V109H160.627H159.959V182.331Z" fill="black"/>
<path d="M170.379 182.331V255.662H172.249H174.12V182.331V109H172.249H170.379V182.331Z" fill="black"/>
<path d="M176.525 182.331V255.662H177.327H178.129V182.331V109H177.327H176.525V182.331Z" fill="black"/>
<path d="M182.938 182.331V255.662H183.739H184.541V182.331V109H183.739H182.938V182.331Z" fill="black"/>
<path d="M187.213 182.331V255.662H188.014H188.816V182.331V109H188.014H187.213V182.331Z" fill="black"/>
<path d="M193.357 182.331V255.662H197.365H201.373V182.331V109H197.365H193.357V182.331Z" fill="black"/>
<path d="M206.184 182.331V255.662H206.985H207.787V182.331V109H206.985H206.184V182.331Z" fill="black"/>
<path d="M210.457 182.331V255.662H212.194H213.93V182.331V109H212.194H210.457V182.331Z" fill="black"/>
<path d="M218.74 182.331V255.662H219.542H220.343V182.331V109H219.542H218.74V182.331Z" fill="black"/>
<path d="M229.16 182.331V255.662H229.962H230.763V182.331V109H229.962H229.16V182.331Z" fill="black"/>
<path d="M239.582 182.331V255.662H240.384H241.185V182.331V109H240.384H239.582V182.331Z" fill="black"/>
<path d="M245.994 182.331V255.662H247.864H249.735V182.331V109H247.864H245.994V182.331Z" fill="black"/>
<path d="M252.406 182.331V255.662H253.208H254.009V182.331V109H253.208H252.406V182.331Z" fill="black"/>
<path d="M262.826 182.331V255.662H264.696H266.567V182.331V109H264.696H262.826V182.331Z" fill="black"/>
<path d="M269.238 182.331V255.662H270.04H270.841V182.331V109H270.04H269.238V182.331Z" fill="black"/>
<path d="M275.518 182.331V255.662H276.266H276.987V182.331V109H276.266H275.518V182.331Z" fill="black"/>
<path d="M281.797 182.331V255.662H282.598H283.4V182.331V109H282.598H281.797V182.331Z" fill="black"/>
<path d="M286.072 182.331V255.662H287.943H289.813V182.331V109H287.943H286.072V182.331Z" fill="black"/>
<path d="M298.629 182.331V255.662H299.43H300.232V182.331V109H299.43H298.629V182.331Z" fill="black"/>
<path d="M302.904 182.331V255.662H306.779H310.653V182.331V109H306.779H302.904V182.331Z" fill="black"/>
<path d="M313.324 182.331V255.662H316.263H319.202V182.331V109H316.263H313.324V182.331Z" fill="black"/>
<path d="M321.875 182.331V255.662H323.745H325.616V182.331V109H323.745H321.875V182.331Z" fill="black"/>
<path d="M332.295 182.331V255.662H335.234H338.173V182.331V109H335.234H332.295V182.331Z" fill="black"/>
<path d="M340.578 182.331V255.662H341.38H342.181V182.331V109H341.38H340.578V182.331Z" fill="black"/>
<path d="M344.854 182.331V255.662H346.724H348.594V182.331V109H346.724H344.854V182.331Z" fill="black"/>
<path d="M4 182H387" stroke="#E87B38" stroke-width="7" stroke-linecap="round"/>
<path d="M383.432 293.902V350.098H330" stroke="black" stroke-width="6.44863" stroke-linecap="round"/>
<path d="M69 351H8L8 293" stroke="black" stroke-width="7" stroke-linecap="round"/>
</svg>
