<svg width="41" height="40" viewBox="0 0 41 40" fill="none" xmlns="http://www.w3.org/2000/svg">
<path d="M8.59912 30.5992L8.59889 30.5991C7.72616 29.9483 6.92555 28.9206 6.34276 27.759C5.75992 26.5973 5.41669 25.3451 5.41669 24.2666V11.8666C5.41669 9.50736 7.17152 6.96177 9.39119 6.13513L9.39215 6.13477L17.7084 3.01826C17.7085 3.01823 17.7086 3.0182 17.7086 3.01817C18.4621 2.73661 19.4616 2.5874 20.4834 2.5874C21.5051 2.5874 22.5046 2.73661 23.2581 3.01817C23.2581 3.0182 23.2582 3.01823 23.2583 3.01826L31.5746 6.13477L31.5755 6.13513C33.7952 6.96177 35.55 9.50736 35.55 11.8666V24.2499C35.55 25.3371 35.2066 26.5892 34.6241 27.7483C34.0416 28.9073 33.2411 29.9313 32.3678 30.5824L32.3676 30.5826L25.2009 35.9326L25.2009 35.9325L25.1947 35.9373C23.912 36.9264 22.224 37.4332 20.5 37.4332C18.7774 37.4332 17.0852 36.927 15.7649 35.9486C15.7647 35.9484 15.7646 35.9483 15.7644 35.9482L8.59912 30.5992ZM18.2419 4.43145L18.2412 4.4317L9.92456 7.54837L9.92386 7.54863C9.09627 7.86019 8.35504 8.52248 7.82412 9.29061C7.29303 10.059 6.93335 10.9898 6.93335 11.8832V24.2666C6.93335 25.161 7.24394 26.1892 7.70094 27.101C8.15782 28.0126 8.79331 28.8722 9.50087 29.4005L9.50092 29.4006L16.6672 34.7503C17.7292 35.5445 19.1283 35.9249 20.5021 35.9249C21.8761 35.9249 23.2783 35.5445 24.3478 34.7516L24.3491 34.7506L31.5158 29.4006L31.5167 29.3999C32.2314 28.8638 32.8669 28.005 33.3222 27.0943C33.7776 26.1837 34.0834 25.16 34.0834 24.2666V11.8666C34.0834 10.9804 33.7229 10.0538 33.1926 9.28645C32.6621 8.51889 31.9223 7.85396 31.0976 7.5338L31.0977 7.53376L31.0921 7.5317L22.7755 4.41503L22.7755 4.41495L22.7664 4.41174C22.1283 4.18651 21.3002 4.08314 20.5007 4.08532C19.7021 4.0875 18.8752 4.19514 18.2419 4.43145Z" fill="#FAFAFA" stroke="#FAFAFA"/>
<path d="M17.9131 21.0536L18.2667 21.4071L18.6202 21.0536L24.9036 14.7703C25.1916 14.4822 25.6751 14.4822 25.9631 14.7703C26.2512 15.0583 26.2512 15.5417 25.9631 15.8298L18.7965 22.9965C18.6452 23.1478 18.4579 23.2167 18.2667 23.2167C18.0755 23.2167 17.8882 23.1478 17.7369 22.9965L15.0536 20.3131C14.7655 20.0251 14.7655 19.5417 15.0536 19.2536C15.3416 18.9655 15.8251 18.9655 16.1131 19.2536L17.9131 21.0536Z" fill="#FAFAFA" stroke="#FAFAFA"/>
</svg>
