<svg width="170" height="145" viewBox="0 0 170 145" fill="none" xmlns="http://www.w3.org/2000/svg">
<rect x="0.5" y="0.5" width="169" height="144" rx="3.5" stroke="black" stroke-opacity="0.3"/>
<path d="M35.1274 115.112C34.3914 115.112 33.73 114.984 33.1434 114.728C32.5674 114.461 32.114 114.099 31.7834 113.64C31.4527 113.171 31.282 112.632 31.2714 112.024H32.8234C32.8767 112.547 33.09 112.989 33.4634 113.352C33.8474 113.704 34.402 113.88 35.1274 113.88C35.8207 113.88 36.3647 113.709 36.7594 113.368C37.1647 113.016 37.3674 112.568 37.3674 112.024C37.3674 111.597 37.25 111.251 37.0154 110.984C36.7807 110.717 36.4874 110.515 36.1354 110.376C35.7834 110.237 35.3087 110.088 34.7114 109.928C33.9754 109.736 33.3834 109.544 32.9354 109.352C32.498 109.16 32.1194 108.861 31.7994 108.456C31.49 108.04 31.3354 107.485 31.3354 106.792C31.3354 106.184 31.49 105.645 31.7994 105.176C32.1087 104.707 32.5407 104.344 33.0954 104.088C33.6607 103.832 34.306 103.704 35.0314 103.704C36.0767 103.704 36.93 103.965 37.5914 104.488C38.2634 105.011 38.642 105.704 38.7274 106.568H37.1274C37.074 106.141 36.85 105.768 36.4554 105.448C36.0607 105.117 35.538 104.952 34.8874 104.952C34.2794 104.952 33.7834 105.112 33.3994 105.432C33.0154 105.741 32.8234 106.179 32.8234 106.744C32.8234 107.149 32.9354 107.48 33.1594 107.736C33.394 107.992 33.6767 108.189 34.0074 108.328C34.3487 108.456 34.8234 108.605 35.4314 108.776C36.1674 108.979 36.7594 109.181 37.2074 109.384C37.6554 109.576 38.0394 109.88 38.3594 110.296C38.6794 110.701 38.8394 111.256 38.8394 111.96C38.8394 112.504 38.6954 113.016 38.4074 113.496C38.1194 113.976 37.6927 114.365 37.1274 114.664C36.562 114.963 35.8954 115.112 35.1274 115.112ZM51.526 106.072C52.2087 106.072 52.8167 106.216 53.35 106.504C53.8833 106.781 54.3047 107.203 54.614 107.768C54.9233 108.333 55.078 109.021 55.078 109.832V115H53.638V110.04C53.638 109.165 53.4193 108.499 52.982 108.04C52.5553 107.571 51.974 107.336 51.238 107.336C50.4807 107.336 49.878 107.581 49.43 108.072C48.982 108.552 48.758 109.251 48.758 110.168V115H47.318V110.04C47.318 109.165 47.0993 108.499 46.662 108.04C46.2353 107.571 45.654 107.336 44.918 107.336C44.1607 107.336 43.558 107.581 43.11 108.072C42.662 108.552 42.438 109.251 42.438 110.168V115H40.982V106.232H42.438V107.496C42.726 107.037 43.11 106.685 43.59 106.44C44.0807 106.195 44.6193 106.072 45.206 106.072C45.942 106.072 46.5927 106.237 47.158 106.568C47.7233 106.899 48.1447 107.384 48.422 108.024C48.6673 107.405 49.0727 106.925 49.638 106.584C50.2033 106.243 50.8327 106.072 51.526 106.072ZM56.9224 110.584C56.9224 109.688 57.1037 108.904 57.4664 108.232C57.829 107.549 58.325 107.021 58.9544 106.648C59.5944 106.275 60.3037 106.088 61.0824 106.088C61.8504 106.088 62.517 106.253 63.0824 106.584C63.6477 106.915 64.069 107.331 64.3464 107.832V106.232H65.8184V115H64.3464V113.368C64.0584 113.88 63.6264 114.307 63.0504 114.648C62.485 114.979 61.8237 115.144 61.0664 115.144C60.2877 115.144 59.5837 114.952 58.9544 114.568C58.325 114.184 57.829 113.645 57.4664 112.952C57.1037 112.259 56.9224 111.469 56.9224 110.584ZM64.3464 110.6C64.3464 109.939 64.213 109.363 63.9464 108.872C63.6797 108.381 63.317 108.008 62.8584 107.752C62.4104 107.485 61.9144 107.352 61.3704 107.352C60.8264 107.352 60.3304 107.48 59.8824 107.736C59.4344 107.992 59.077 108.365 58.8104 108.856C58.5437 109.347 58.4104 109.923 58.4104 110.584C58.4104 111.256 58.5437 111.843 58.8104 112.344C59.077 112.835 59.4344 113.213 59.8824 113.48C60.3304 113.736 60.8264 113.864 61.3704 113.864C61.9144 113.864 62.4104 113.736 62.8584 113.48C63.317 113.213 63.6797 112.835 63.9464 112.344C64.213 111.843 64.3464 111.261 64.3464 110.6ZM69.7349 107.656C69.9909 107.155 70.3535 106.765 70.8229 106.488C71.3029 106.211 71.8842 106.072 72.5669 106.072V107.576H72.1829C70.5509 107.576 69.7349 108.461 69.7349 110.232V115H68.2789V106.232H69.7349V107.656ZM76.0236 107.432V112.6C76.0236 113.027 76.1143 113.331 76.2956 113.512C76.477 113.683 76.7916 113.768 77.2396 113.768H78.3116V115H76.9996C76.189 115 75.581 114.813 75.1756 114.44C74.7703 114.067 74.5676 113.453 74.5676 112.6V107.432H73.4316V106.232H74.5676V104.024H76.0236V106.232H78.3116V107.432H76.0236ZM81.5318 107.848C81.8198 107.347 82.2464 106.931 82.8118 106.6C83.3878 106.259 84.0544 106.088 84.8118 106.088C85.5904 106.088 86.2944 106.275 86.9237 106.648C87.5637 107.021 88.0651 107.549 88.4278 108.232C88.7904 108.904 88.9718 109.688 88.9718 110.584C88.9718 111.469 88.7904 112.259 88.4278 112.952C88.0651 113.645 87.5637 114.184 86.9237 114.568C86.2944 114.952 85.5904 115.144 84.8118 115.144C84.0651 115.144 83.4038 114.979 82.8278 114.648C82.2624 114.307 81.8304 113.885 81.5318 113.384V119.16H80.0758V106.232H81.5318V107.848ZM87.4838 110.584C87.4838 109.923 87.3504 109.347 87.0838 108.856C86.8171 108.365 86.4544 107.992 85.9958 107.736C85.5478 107.48 85.0518 107.352 84.5078 107.352C83.9744 107.352 83.4784 107.485 83.0198 107.752C82.5718 108.008 82.2091 108.387 81.9318 108.888C81.6651 109.379 81.5318 109.949 81.5318 110.6C81.5318 111.261 81.6651 111.843 81.9318 112.344C82.2091 112.835 82.5718 113.213 83.0198 113.48C83.4784 113.736 83.9744 113.864 84.5078 113.864C85.0518 113.864 85.5478 113.736 85.9958 113.48C86.4544 113.213 86.8171 112.835 87.0838 112.344C87.3504 111.843 87.4838 111.256 87.4838 110.584ZM95.2403 106.072C95.9016 106.072 96.4989 106.216 97.0323 106.504C97.5656 106.781 97.9816 107.203 98.2803 107.768C98.5896 108.333 98.7443 109.021 98.7443 109.832V115H97.3043V110.04C97.3043 109.165 97.0856 108.499 96.6483 108.04C96.2109 107.571 95.6136 107.336 94.8563 107.336C94.0883 107.336 93.4749 107.576 93.0163 108.056C92.5683 108.536 92.3443 109.235 92.3443 110.152V115H90.8883V103.16H92.3443V107.48C92.6323 107.032 93.0269 106.685 93.5283 106.44C94.0403 106.195 94.6109 106.072 95.2403 106.072ZM104.947 115.144C104.125 115.144 103.379 114.957 102.707 114.584C102.045 114.211 101.523 113.683 101.139 113C100.765 112.307 100.579 111.507 100.579 110.6C100.579 109.704 100.771 108.915 101.155 108.232C101.549 107.539 102.083 107.011 102.755 106.648C103.427 106.275 104.179 106.088 105.011 106.088C105.843 106.088 106.595 106.275 107.267 106.648C107.939 107.011 108.467 107.533 108.851 108.216C109.245 108.899 109.443 109.693 109.443 110.6C109.443 111.507 109.24 112.307 108.835 113C108.44 113.683 107.901 114.211 107.219 114.584C106.536 114.957 105.779 115.144 104.947 115.144ZM104.947 113.864C105.469 113.864 105.96 113.741 106.419 113.496C106.877 113.251 107.245 112.883 107.523 112.392C107.811 111.901 107.955 111.304 107.955 110.6C107.955 109.896 107.816 109.299 107.539 108.808C107.261 108.317 106.899 107.955 106.451 107.72C106.003 107.475 105.517 107.352 104.995 107.352C104.461 107.352 103.971 107.475 103.523 107.72C103.085 107.955 102.733 108.317 102.467 108.808C102.2 109.299 102.067 109.896 102.067 110.6C102.067 111.315 102.195 111.917 102.451 112.408C102.717 112.899 103.069 113.267 103.507 113.512C103.944 113.747 104.424 113.864 104.947 113.864ZM115.629 106.072C116.696 106.072 117.56 106.397 118.221 107.048C118.882 107.688 119.213 108.616 119.213 109.832V115H117.773V110.04C117.773 109.165 117.554 108.499 117.117 108.04C116.68 107.571 116.082 107.336 115.325 107.336C114.557 107.336 113.944 107.576 113.485 108.056C113.037 108.536 112.813 109.235 112.813 110.152V115H111.357V106.232H112.813V107.48C113.101 107.032 113.49 106.685 113.981 106.44C114.482 106.195 115.032 106.072 115.629 106.072ZM129.591 110.28C129.591 110.557 129.575 110.851 129.543 111.16H122.535C122.589 112.024 122.882 112.701 123.415 113.192C123.959 113.672 124.615 113.912 125.383 113.912C126.013 113.912 126.535 113.768 126.951 113.48C127.378 113.181 127.677 112.787 127.847 112.296H129.415C129.181 113.139 128.711 113.827 128.007 114.36C127.303 114.883 126.429 115.144 125.383 115.144C124.551 115.144 123.805 114.957 123.143 114.584C122.493 114.211 121.981 113.683 121.607 113C121.234 112.307 121.047 111.507 121.047 110.6C121.047 109.693 121.229 108.899 121.591 108.216C121.954 107.533 122.461 107.011 123.111 106.648C123.773 106.275 124.53 106.088 125.383 106.088C126.215 106.088 126.951 106.269 127.591 106.632C128.231 106.995 128.722 107.496 129.063 108.136C129.415 108.765 129.591 109.48 129.591 110.28ZM128.087 109.976C128.087 109.421 127.965 108.947 127.719 108.552C127.474 108.147 127.138 107.843 126.711 107.64C126.295 107.427 125.831 107.32 125.319 107.32C124.583 107.32 123.954 107.555 123.431 108.024C122.919 108.493 122.626 109.144 122.551 109.976H128.087ZM134.617 115.144C133.945 115.144 133.343 115.032 132.809 114.808C132.276 114.573 131.855 114.253 131.545 113.848C131.236 113.432 131.065 112.957 131.033 112.424H132.537C132.58 112.861 132.783 113.219 133.145 113.496C133.519 113.773 134.004 113.912 134.601 113.912C135.156 113.912 135.593 113.789 135.913 113.544C136.233 113.299 136.393 112.989 136.393 112.616C136.393 112.232 136.223 111.949 135.881 111.768C135.54 111.576 135.012 111.389 134.297 111.208C133.647 111.037 133.113 110.867 132.697 110.696C132.292 110.515 131.94 110.253 131.641 109.912C131.353 109.56 131.209 109.101 131.209 108.536C131.209 108.088 131.343 107.677 131.609 107.304C131.876 106.931 132.255 106.637 132.745 106.424C133.236 106.2 133.796 106.088 134.425 106.088C135.396 106.088 136.18 106.333 136.777 106.824C137.375 107.315 137.695 107.987 137.737 108.84H136.281C136.249 108.381 136.063 108.013 135.721 107.736C135.391 107.459 134.943 107.32 134.377 107.32C133.855 107.32 133.439 107.432 133.129 107.656C132.82 107.88 132.665 108.173 132.665 108.536C132.665 108.824 132.756 109.064 132.937 109.256C133.129 109.437 133.364 109.587 133.641 109.704C133.929 109.811 134.324 109.933 134.825 110.072C135.455 110.243 135.967 110.413 136.361 110.584C136.756 110.744 137.092 110.989 137.369 111.32C137.657 111.651 137.807 112.083 137.817 112.616C137.817 113.096 137.684 113.528 137.417 113.912C137.151 114.296 136.772 114.6 136.281 114.824C135.801 115.037 135.247 115.144 134.617 115.144Z" fill="black"/>
<g clip-path="url(#clip0_85_1334)">
<path d="M95.9375 31.125H74.0625C72.5523 31.125 71.3281 32.3492 71.3281 33.8594V72.1406C71.3281 73.6508 72.5523 74.875 74.0625 74.875H95.9375C97.4477 74.875 98.6719 73.6508 98.6719 72.1406V33.8594C98.6719 32.3492 97.4477 31.125 95.9375 31.125Z" stroke="black" stroke-width="2" stroke-linecap="round" stroke-linejoin="round"/>
<path d="M82.667 32H88.1357" stroke="black" stroke-width="3" stroke-linecap="round" stroke-linejoin="round"/>
<path d="M85 69.0051V69.0304" stroke="black" stroke-width="2.5" stroke-linecap="round" stroke-linejoin="round"/>
<line x1="72.167" y1="64.8333" x2="97.8337" y2="64.8333" stroke="black" stroke-width="2"/>
</g>
<defs>
<clipPath id="clip0_85_1334">
<rect width="56" height="56" fill="white" transform="translate(57 25)"/>
</clipPath>
</defs>
</svg>
