<svg width="233" height="90" viewBox="0 0 233 90" fill="none" xmlns="http://www.w3.org/2000/svg">
<path d="M221.049 87.337L186.528 0.057771L186.505 0H185.824L178.715 17.9356L165.773 50.5877L165.743 50.5619C161.258 46.9274 154.93 44.6555 146.96 43.8095L144.53 43.579L146.941 43.2951C160.084 41.1263 168.918 33.504 168.918 24.3205C168.918 11.7273 156.02 2.93734 137.544 2.93734H99.1024V3.57496H110.272V68.6465L83.1444 0.0575571L83.12 0H82.4387L75.3298 17.9356L47.9118 87.1123L47.7431 87.1303C47.2745 87.1833 46.8111 87.2255 46.3526 87.2574C45.6629 87.307 44.9772 87.3368 44.2893 87.3368H16.5856L69.2467 3.57474L69.6381 2.94525H5.23155V28.8566H5.91494C6.0361 16.2356 14.0401 3.57474 31.7243 3.57474H53.059L0 87.9643H71.4807V63.1395H70.7973C70.7041 74.1399 63.9135 84.5884 49.1469 86.9475L48.6774 87.0212L59.9234 58.6353H91.4269L102.779 87.337H91.5806V87.9645H135.533V87.337H124.287V44.0419H137.263C150.468 44.0419 158.042 49.4595 158.042 58.901V66.5809C158.042 67.4271 158.104 68.6643 158.174 69.699V69.7367L151.199 87.3329H142.088V87.9605H160.948V87.3329H151.935L158.286 71.3098C158.299 71.4647 158.306 71.558 158.306 71.558L158.481 73.0018L158.65 73.957C159.709 79.8655 162.17 84.2088 165.962 86.866L166.507 87.2296C169.387 89.0686 172.967 90 177.151 90C182.694 90 186.39 88.731 189.442 85.7442L189.042 85.3984C186.23 87.7816 183.871 88.747 180.914 88.747C175.877 88.747 173.241 83.1364 173.241 77.6034V66.843C173.268 64.1731 172.813 61.5176 171.894 58.9844L171.769 58.6509V58.6389H194.811L206.163 87.3408H194.965V87.9684H233V87.3408L221.049 87.337ZM60.1741 58.0075L75.6935 18.8533L91.1783 58.0075H60.1741ZM124.293 43.4122V3.57474H134.198C147.43 3.57474 154.415 10.7978 154.415 24.4558C154.415 38.9813 150.405 43.4122 137.263 43.4122H124.293ZM171.5 58.0075L171.433 57.8526C170.409 55.5623 168.918 53.4726 167.04 51.6959L166.392 51.1L166.323 51.0405L179.069 18.8533L194.554 58.0075H171.5Z" fill="black"/>
</svg>
